%TF.GenerationSoftware,KiCad,Pcbnew,9.0.6*%
%TF.CreationDate,2026-08-06T13:47:57+03:00*%
%TF.ProjectId,BIFROST-3S,42494652-4f53-4542-9d33-532e6b696361,rev?*%
%TF.SameCoordinates,Original*%
%TF.FileFunction,Copper,L2,Bot*%
%TF.FilePolarity,Positive*%
%FSLAX46Y46*%
G04 Gerber Fmt 4.6, Leading zero omitted, Abs format (unit mm)*
G04 Created by KiCad (PCBNEW 9.0.6) date 2026-08-06 13:47:57*
%MOMM*%
%LPD*%
G01*
G04 APERTURE LIST*
%TA.AperFunction,ComponentPad*%
%ADD10R,1.800000X1.800000*%
%TD*%
%TA.AperFunction,ComponentPad*%
%ADD11C,1.800000*%
%TD*%
%TA.AperFunction,ComponentPad*%
%ADD12C,1.500000*%
%TD*%
%TA.AperFunction,ComponentPad*%
%ADD13C,2.550000*%
%TD*%
%TA.AperFunction,ComponentPad*%
%ADD14R,1.650000X1.650000*%
%TD*%
%TA.AperFunction,ComponentPad*%
%ADD15C,1.650000*%
%TD*%
G04 APERTURE END LIST*
D10*
%TO.P,F1,1,1*%
%TO.N,/PACK+_RAW*%
X151827500Y-102592500D03*
D11*
%TO.P,F1,2,2*%
%TO.N,/+BATT*%
X151827500Y-107692500D03*
%TD*%
D12*
%TO.P,J3,1,1*%
%TO.N,GND*%
X143660000Y-117465000D03*
%TO.P,J3,2,2*%
%TO.N,/BQ2_TS3*%
X146160000Y-117465000D03*
%TO.P,J3,3,3*%
%TO.N,/BQ2_TS2*%
X148660000Y-117465000D03*
%TO.P,J3,4,4*%
%TO.N,/BQ2_TS1*%
X151160000Y-117465000D03*
%TD*%
D13*
%TO.P,J4,1,1*%
%TO.N,/+BATT*%
X163840000Y-106358000D03*
%TO.P,J4,2,2*%
%TO.N,GND*%
X158840000Y-106358000D03*
D12*
%TO.P,J4,3,3*%
%TO.N,unconnected-(J4-Pad3)*%
X155840000Y-116358000D03*
%TO.P,J4,4,4*%
%TO.N,unconnected-(J4-Pad4)*%
X166840000Y-116358000D03*
%TD*%
D14*
%TO.P,J1,1,1*%
%TO.N,GND*%
X125550000Y-117495000D03*
D15*
%TO.P,J1,2,2*%
%TO.N,/BAT1*%
X128050000Y-117495000D03*
%TO.P,J1,3,3*%
%TO.N,/BAT2*%
X130550000Y-117495000D03*
%TO.P,J1,4,4*%
%TO.N,/BAT3{slash}PACK+*%
X133050000Y-117495000D03*
%TO.P,J1,5,5*%
%TO.N,/BQ_TS*%
X135550000Y-117495000D03*
%TO.P,J1,6,6*%
%TO.N,GND*%
X138050000Y-117495000D03*
%TD*%
D13*
%TO.P,J5,1,1*%
%TO.N,GND*%
X158840000Y-101582000D03*
%TO.P,J5,2,2*%
%TO.N,/PACK+_RAW*%
X163840000Y-101582000D03*
D12*
%TO.P,J5,3,3*%
%TO.N,unconnected-(J5-Pad3)*%
X166840000Y-91582000D03*
%TO.P,J5,4,4*%
%TO.N,unconnected-(J5-Pad4)*%
X155840000Y-91582000D03*
%TD*%
%TA.AperFunction,Conductor*%
%TO.N,GND*%
G36*
X168203039Y-87849685D02*
G01*
X168248794Y-87902489D01*
X168260000Y-87954000D01*
X168260000Y-91122702D01*
X168240315Y-91189741D01*
X168187511Y-91235496D01*
X168118353Y-91245440D01*
X168054797Y-91216415D01*
X168018069Y-91161021D01*
X167998884Y-91101975D01*
X167998882Y-91101972D01*
X167998882Y-91101970D01*
X167909523Y-90926594D01*
X167793828Y-90767354D01*
X167654646Y-90628172D01*
X167495405Y-90512476D01*
X167320029Y-90423117D01*
X167132826Y-90362290D01*
X166938422Y-90331500D01*
X166938417Y-90331500D01*
X166741583Y-90331500D01*
X166741578Y-90331500D01*
X166547173Y-90362290D01*
X166359970Y-90423117D01*
X166184594Y-90512476D01*
X166093741Y-90578485D01*
X166025354Y-90628172D01*
X166025352Y-90628174D01*
X166025351Y-90628174D01*
X165886174Y-90767351D01*
X165886174Y-90767352D01*
X165886172Y-90767354D01*
X165836485Y-90835741D01*
X165770476Y-90926594D01*
X165681117Y-91101970D01*
X165620290Y-91289173D01*
X165589500Y-91483577D01*
X165589500Y-91680422D01*
X165620290Y-91874826D01*
X165681117Y-92062029D01*
X165770476Y-92237405D01*
X165886172Y-92396646D01*
X166025354Y-92535828D01*
X166184595Y-92651524D01*
X166267455Y-92693743D01*
X166359970Y-92740882D01*
X166359972Y-92740882D01*
X166359975Y-92740884D01*
X166460317Y-92773487D01*
X166547173Y-92801709D01*
X166741578Y-92832500D01*
X166741583Y-92832500D01*
X166938422Y-92832500D01*
X167132826Y-92801709D01*
X167320025Y-92740884D01*
X167495405Y-92651524D01*
X167654646Y-92535828D01*
X167793828Y-92396646D01*
X167909524Y-92237405D01*
X167998884Y-92062025D01*
X168018069Y-92002978D01*
X168057507Y-91945303D01*
X168121865Y-91918105D01*
X168190712Y-91930020D01*
X168242187Y-91977264D01*
X168260000Y-92041297D01*
X168260000Y-115898702D01*
X168240315Y-115965741D01*
X168187511Y-116011496D01*
X168118353Y-116021440D01*
X168054797Y-115992415D01*
X168018069Y-115937021D01*
X167998884Y-115877975D01*
X167998882Y-115877972D01*
X167998882Y-115877970D01*
X167909523Y-115702594D01*
X167793828Y-115543354D01*
X167654646Y-115404172D01*
X167495405Y-115288476D01*
X167320029Y-115199117D01*
X167132826Y-115138290D01*
X166938422Y-115107500D01*
X166938417Y-115107500D01*
X166741583Y-115107500D01*
X166741578Y-115107500D01*
X166547173Y-115138290D01*
X166359970Y-115199117D01*
X166184594Y-115288476D01*
X166093741Y-115354485D01*
X166025354Y-115404172D01*
X166025352Y-115404174D01*
X166025351Y-115404174D01*
X165886174Y-115543351D01*
X165886174Y-115543352D01*
X165886172Y-115543354D01*
X165836485Y-115611741D01*
X165770476Y-115702594D01*
X165681117Y-115877970D01*
X165620290Y-116065173D01*
X165589500Y-116259577D01*
X165589500Y-116456422D01*
X165620290Y-116650826D01*
X165681117Y-116838029D01*
X165755988Y-116984970D01*
X165770476Y-117013405D01*
X165886172Y-117172646D01*
X166025354Y-117311828D01*
X166184595Y-117427524D01*
X166267455Y-117469743D01*
X166359970Y-117516882D01*
X166359972Y-117516882D01*
X166359975Y-117516884D01*
X166460317Y-117549487D01*
X166547173Y-117577709D01*
X166741578Y-117608500D01*
X166741583Y-117608500D01*
X166938422Y-117608500D01*
X167132826Y-117577709D01*
X167320025Y-117516884D01*
X167495405Y-117427524D01*
X167654646Y-117311828D01*
X167793828Y-117172646D01*
X167909524Y-117013405D01*
X167998884Y-116838025D01*
X168018069Y-116778978D01*
X168057507Y-116721303D01*
X168121865Y-116694105D01*
X168190712Y-116706020D01*
X168242187Y-116753264D01*
X168260000Y-116817297D01*
X168260000Y-120566000D01*
X168240315Y-120633039D01*
X168187511Y-120678794D01*
X168136000Y-120690000D01*
X123504000Y-120690000D01*
X123436961Y-120670315D01*
X123391206Y-120617511D01*
X123380000Y-120566000D01*
X123380000Y-117390675D01*
X126724500Y-117390675D01*
X126724500Y-117599324D01*
X126757137Y-117805389D01*
X126821612Y-118003820D01*
X126910485Y-118178243D01*
X126916330Y-118189714D01*
X127038965Y-118358505D01*
X127186495Y-118506035D01*
X127355286Y-118628670D01*
X127443116Y-118673421D01*
X127541179Y-118723387D01*
X127541181Y-118723387D01*
X127541184Y-118723389D01*
X127647545Y-118757948D01*
X127739610Y-118787862D01*
X127945676Y-118820500D01*
X127945681Y-118820500D01*
X128154324Y-118820500D01*
X128360389Y-118787862D01*
X128558816Y-118723389D01*
X128744714Y-118628670D01*
X128913505Y-118506035D01*
X129061035Y-118358505D01*
X129183670Y-118189714D01*
X129189515Y-118178243D01*
X129237489Y-118127447D01*
X129305310Y-118110651D01*
X129371445Y-118133188D01*
X129410485Y-118178243D01*
X129416328Y-118189712D01*
X129481670Y-118279646D01*
X129538965Y-118358505D01*
X129686495Y-118506035D01*
X129855286Y-118628670D01*
X129943116Y-118673421D01*
X130041179Y-118723387D01*
X130041181Y-118723387D01*
X130041184Y-118723389D01*
X130147545Y-118757948D01*
X130239610Y-118787862D01*
X130445676Y-118820500D01*
X130445681Y-118820500D01*
X130654324Y-118820500D01*
X130860389Y-118787862D01*
X131058816Y-118723389D01*
X131244714Y-118628670D01*
X131413505Y-118506035D01*
X131561035Y-118358505D01*
X131683670Y-118189714D01*
X131689515Y-118178243D01*
X131737489Y-118127447D01*
X131805310Y-118110651D01*
X131871445Y-118133188D01*
X131910485Y-118178243D01*
X131916328Y-118189712D01*
X131981670Y-118279646D01*
X132038965Y-118358505D01*
X132186495Y-118506035D01*
X132355286Y-118628670D01*
X132443116Y-118673421D01*
X132541179Y-118723387D01*
X132541181Y-118723387D01*
X132541184Y-118723389D01*
X132647545Y-118757948D01*
X132739610Y-118787862D01*
X132945676Y-118820500D01*
X132945681Y-118820500D01*
X133154324Y-118820500D01*
X133360389Y-118787862D01*
X133558816Y-118723389D01*
X133744714Y-118628670D01*
X133913505Y-118506035D01*
X134061035Y-118358505D01*
X134183670Y-118189714D01*
X134189515Y-118178243D01*
X134237489Y-118127447D01*
X134305310Y-118110651D01*
X134371445Y-118133188D01*
X134410485Y-118178243D01*
X134416328Y-118189712D01*
X134481670Y-118279646D01*
X134538965Y-118358505D01*
X134686495Y-118506035D01*
X134855286Y-118628670D01*
X134943116Y-118673421D01*
X135041179Y-118723387D01*
X135041181Y-118723387D01*
X135041184Y-118723389D01*
X135147545Y-118757948D01*
X135239610Y-118787862D01*
X135445676Y-118820500D01*
X135445681Y-118820500D01*
X135654324Y-118820500D01*
X135860389Y-118787862D01*
X136058816Y-118723389D01*
X136244714Y-118628670D01*
X136413505Y-118506035D01*
X136561035Y-118358505D01*
X136683670Y-118189714D01*
X136778389Y-118003816D01*
X136842862Y-117805389D01*
X136850395Y-117757826D01*
X136875500Y-117599324D01*
X136875500Y-117390679D01*
X136873984Y-117381107D01*
X136873984Y-117381104D01*
X136871683Y-117366577D01*
X144909500Y-117366577D01*
X144909500Y-117563422D01*
X144940290Y-117757826D01*
X145001117Y-117945029D01*
X145031071Y-118003816D01*
X145090476Y-118120405D01*
X145206172Y-118279646D01*
X145345354Y-118418828D01*
X145504595Y-118534524D01*
X145587455Y-118576743D01*
X145679970Y-118623882D01*
X145679972Y-118623882D01*
X145679975Y-118623884D01*
X145780317Y-118656487D01*
X145867173Y-118684709D01*
X146061578Y-118715500D01*
X146061583Y-118715500D01*
X146258422Y-118715500D01*
X146452826Y-118684709D01*
X146640025Y-118623884D01*
X146815405Y-118534524D01*
X146974646Y-118418828D01*
X147113828Y-118279646D01*
X147229524Y-118120405D01*
X147299515Y-117983038D01*
X147347489Y-117932243D01*
X147415310Y-117915448D01*
X147481445Y-117937985D01*
X147520484Y-117983038D01*
X147590476Y-118120405D01*
X147706172Y-118279646D01*
X147845354Y-118418828D01*
X148004595Y-118534524D01*
X148087455Y-118576743D01*
X148179970Y-118623882D01*
X148179972Y-118623882D01*
X148179975Y-118623884D01*
X148280317Y-118656487D01*
X148367173Y-118684709D01*
X148561578Y-118715500D01*
X148561583Y-118715500D01*
X148758422Y-118715500D01*
X148952826Y-118684709D01*
X149140025Y-118623884D01*
X149315405Y-118534524D01*
X149474646Y-118418828D01*
X149613828Y-118279646D01*
X149729524Y-118120405D01*
X149799515Y-117983038D01*
X149847489Y-117932243D01*
X149915310Y-117915448D01*
X149981445Y-117937985D01*
X150020484Y-117983038D01*
X150090476Y-118120405D01*
X150206172Y-118279646D01*
X150345354Y-118418828D01*
X150504595Y-118534524D01*
X150587455Y-118576743D01*
X150679970Y-118623882D01*
X150679972Y-118623882D01*
X150679975Y-118623884D01*
X150780317Y-118656487D01*
X150867173Y-118684709D01*
X151061578Y-118715500D01*
X151061583Y-118715500D01*
X151258422Y-118715500D01*
X151452826Y-118684709D01*
X151640025Y-118623884D01*
X151815405Y-118534524D01*
X151974646Y-118418828D01*
X152113828Y-118279646D01*
X152229524Y-118120405D01*
X152318884Y-117945025D01*
X152379709Y-117757826D01*
X152403360Y-117608500D01*
X152410500Y-117563422D01*
X152410500Y-117366577D01*
X152379709Y-117172173D01*
X152328494Y-117014551D01*
X152318884Y-116984975D01*
X152318882Y-116984972D01*
X152318882Y-116984970D01*
X152256508Y-116862554D01*
X152229524Y-116809595D01*
X152113828Y-116650354D01*
X151974646Y-116511172D01*
X151815405Y-116395476D01*
X151755977Y-116365196D01*
X151640029Y-116306117D01*
X151496796Y-116259577D01*
X154589500Y-116259577D01*
X154589500Y-116456422D01*
X154620290Y-116650826D01*
X154681117Y-116838029D01*
X154755988Y-116984970D01*
X154770476Y-117013405D01*
X154886172Y-117172646D01*
X155025354Y-117311828D01*
X155184595Y-117427524D01*
X155267455Y-117469743D01*
X155359970Y-117516882D01*
X155359972Y-117516882D01*
X155359975Y-117516884D01*
X155460317Y-117549487D01*
X155547173Y-117577709D01*
X155741578Y-117608500D01*
X155741583Y-117608500D01*
X155938422Y-117608500D01*
X156132826Y-117577709D01*
X156320025Y-117516884D01*
X156495405Y-117427524D01*
X156654646Y-117311828D01*
X156793828Y-117172646D01*
X156909524Y-117013405D01*
X156998884Y-116838025D01*
X157059709Y-116650826D01*
X157062771Y-116631493D01*
X157090500Y-116456422D01*
X157090500Y-116259577D01*
X157059709Y-116065173D01*
X157018069Y-115937021D01*
X156998884Y-115877975D01*
X156998882Y-115877972D01*
X156998882Y-115877970D01*
X156909523Y-115702594D01*
X156793828Y-115543354D01*
X156654646Y-115404172D01*
X156495405Y-115288476D01*
X156320029Y-115199117D01*
X156132826Y-115138290D01*
X155938422Y-115107500D01*
X155938417Y-115107500D01*
X155741583Y-115107500D01*
X155741578Y-115107500D01*
X155547173Y-115138290D01*
X155359970Y-115199117D01*
X155184594Y-115288476D01*
X155093741Y-115354485D01*
X155025354Y-115404172D01*
X155025352Y-115404174D01*
X155025351Y-115404174D01*
X154886174Y-115543351D01*
X154886174Y-115543352D01*
X154886172Y-115543354D01*
X154836485Y-115611741D01*
X154770476Y-115702594D01*
X154681117Y-115877970D01*
X154620290Y-116065173D01*
X154589500Y-116259577D01*
X151496796Y-116259577D01*
X151452826Y-116245290D01*
X151258422Y-116214500D01*
X151258417Y-116214500D01*
X151061583Y-116214500D01*
X151061578Y-116214500D01*
X150867173Y-116245290D01*
X150679970Y-116306117D01*
X150504594Y-116395476D01*
X150420717Y-116456417D01*
X150345354Y-116511172D01*
X150345352Y-116511174D01*
X150345351Y-116511174D01*
X150206174Y-116650351D01*
X150206174Y-116650352D01*
X150206172Y-116650354D01*
X150174385Y-116694105D01*
X150090476Y-116809594D01*
X150020485Y-116946960D01*
X149972510Y-116997756D01*
X149904689Y-117014551D01*
X149838554Y-116992014D01*
X149799515Y-116946960D01*
X149756508Y-116862554D01*
X149729524Y-116809595D01*
X149613828Y-116650354D01*
X149474646Y-116511172D01*
X149315405Y-116395476D01*
X149255977Y-116365196D01*
X149140029Y-116306117D01*
X148952826Y-116245290D01*
X148758422Y-116214500D01*
X148758417Y-116214500D01*
X148561583Y-116214500D01*
X148561578Y-116214500D01*
X148367173Y-116245290D01*
X148179970Y-116306117D01*
X148004594Y-116395476D01*
X147920717Y-116456417D01*
X147845354Y-116511172D01*
X147845352Y-116511174D01*
X147845351Y-116511174D01*
X147706174Y-116650351D01*
X147706174Y-116650352D01*
X147706172Y-116650354D01*
X147674385Y-116694105D01*
X147590476Y-116809594D01*
X147520485Y-116946960D01*
X147472510Y-116997756D01*
X147404689Y-117014551D01*
X147338554Y-116992014D01*
X147299515Y-116946960D01*
X147256508Y-116862554D01*
X147229524Y-116809595D01*
X147113828Y-116650354D01*
X146974646Y-116511172D01*
X146815405Y-116395476D01*
X146755977Y-116365196D01*
X146640029Y-116306117D01*
X146452826Y-116245290D01*
X146258422Y-116214500D01*
X146258417Y-116214500D01*
X146061583Y-116214500D01*
X146061578Y-116214500D01*
X145867173Y-116245290D01*
X145679970Y-116306117D01*
X145504594Y-116395476D01*
X145420717Y-116456417D01*
X145345354Y-116511172D01*
X145345352Y-116511174D01*
X145345351Y-116511174D01*
X145206174Y-116650351D01*
X145206174Y-116650352D01*
X145206172Y-116650354D01*
X145174385Y-116694105D01*
X145090476Y-116809594D01*
X145001117Y-116984970D01*
X144940290Y-117172173D01*
X144909500Y-117366577D01*
X136871683Y-117366577D01*
X136842862Y-117184610D01*
X136787606Y-117014551D01*
X136778389Y-116986184D01*
X136778387Y-116986181D01*
X136778387Y-116986179D01*
X136692337Y-116817297D01*
X136683670Y-116800286D01*
X136561035Y-116631495D01*
X136413505Y-116483965D01*
X136244714Y-116361330D01*
X136058820Y-116266612D01*
X135860389Y-116202137D01*
X135654324Y-116169500D01*
X135654319Y-116169500D01*
X135445681Y-116169500D01*
X135445676Y-116169500D01*
X135239610Y-116202137D01*
X135041179Y-116266612D01*
X134855285Y-116361330D01*
X134686493Y-116483966D01*
X134538966Y-116631493D01*
X134416330Y-116800286D01*
X134410484Y-116811759D01*
X134362508Y-116862554D01*
X134294687Y-116879348D01*
X134228553Y-116856809D01*
X134189516Y-116811759D01*
X134188303Y-116809380D01*
X134183670Y-116800286D01*
X134061035Y-116631495D01*
X133913505Y-116483965D01*
X133744714Y-116361330D01*
X133558820Y-116266612D01*
X133360389Y-116202137D01*
X133154324Y-116169500D01*
X133154319Y-116169500D01*
X132945681Y-116169500D01*
X132945676Y-116169500D01*
X132739610Y-116202137D01*
X132541179Y-116266612D01*
X132355285Y-116361330D01*
X132186493Y-116483966D01*
X132038966Y-116631493D01*
X131916330Y-116800286D01*
X131910484Y-116811759D01*
X131862508Y-116862554D01*
X131794687Y-116879348D01*
X131728553Y-116856809D01*
X131689516Y-116811759D01*
X131688303Y-116809380D01*
X131683670Y-116800286D01*
X131561035Y-116631495D01*
X131413505Y-116483965D01*
X131244714Y-116361330D01*
X131058820Y-116266612D01*
X130860389Y-116202137D01*
X130654324Y-116169500D01*
X130654319Y-116169500D01*
X130445681Y-116169500D01*
X130445676Y-116169500D01*
X130239610Y-116202137D01*
X130041179Y-116266612D01*
X129855285Y-116361330D01*
X129686493Y-116483966D01*
X129538966Y-116631493D01*
X129416330Y-116800286D01*
X129410484Y-116811759D01*
X129362508Y-116862554D01*
X129294687Y-116879348D01*
X129228553Y-116856809D01*
X129189516Y-116811759D01*
X129188303Y-116809380D01*
X129183670Y-116800286D01*
X129061035Y-116631495D01*
X128913505Y-116483965D01*
X128744714Y-116361330D01*
X128558820Y-116266612D01*
X128360389Y-116202137D01*
X128154324Y-116169500D01*
X128154319Y-116169500D01*
X127945681Y-116169500D01*
X127945676Y-116169500D01*
X127739610Y-116202137D01*
X127541179Y-116266612D01*
X127355285Y-116361330D01*
X127186493Y-116483966D01*
X127038966Y-116631493D01*
X126916330Y-116800285D01*
X126821612Y-116986179D01*
X126757137Y-117184610D01*
X126724500Y-117390675D01*
X123380000Y-117390675D01*
X123380000Y-107582278D01*
X150427000Y-107582278D01*
X150427000Y-107802721D01*
X150461485Y-108020452D01*
X150529603Y-108230103D01*
X150529604Y-108230106D01*
X150629687Y-108426525D01*
X150759252Y-108604858D01*
X150759256Y-108604863D01*
X150915136Y-108760743D01*
X150915141Y-108760747D01*
X151070692Y-108873760D01*
X151093478Y-108890315D01*
X151221875Y-108955737D01*
X151289893Y-108990395D01*
X151289896Y-108990396D01*
X151394721Y-109024455D01*
X151499549Y-109058515D01*
X151717278Y-109093000D01*
X151717279Y-109093000D01*
X151937721Y-109093000D01*
X151937722Y-109093000D01*
X152155451Y-109058515D01*
X152365106Y-108990395D01*
X152561522Y-108890315D01*
X152739865Y-108760742D01*
X152895742Y-108604865D01*
X153025315Y-108426522D01*
X153125395Y-108230106D01*
X153193515Y-108020451D01*
X153228000Y-107802722D01*
X153228000Y-107582278D01*
X153193515Y-107364549D01*
X153125395Y-107154894D01*
X153125395Y-107154893D01*
X153090737Y-107086875D01*
X153025315Y-106958478D01*
X153004581Y-106929940D01*
X152895747Y-106780141D01*
X152895743Y-106780136D01*
X152739863Y-106624256D01*
X152739858Y-106624252D01*
X152561525Y-106494687D01*
X152561524Y-106494686D01*
X152561522Y-106494685D01*
X152498596Y-106462622D01*
X152365106Y-106394604D01*
X152365100Y-106394602D01*
X152244753Y-106355500D01*
X152244752Y-106355500D01*
X152155452Y-106326485D01*
X152046586Y-106309242D01*
X151937722Y-106292000D01*
X151717278Y-106292000D01*
X151644701Y-106303495D01*
X151499547Y-106326485D01*
X151289896Y-106394603D01*
X151289893Y-106394604D01*
X151093474Y-106494687D01*
X150915141Y-106624252D01*
X150915136Y-106624256D01*
X150759256Y-106780136D01*
X150759252Y-106780141D01*
X150629687Y-106958474D01*
X150529604Y-107154893D01*
X150529603Y-107154896D01*
X150461485Y-107364547D01*
X150427000Y-107582278D01*
X123380000Y-107582278D01*
X123380000Y-106241634D01*
X162064500Y-106241634D01*
X162064500Y-106474365D01*
X162064501Y-106474382D01*
X162094878Y-106705122D01*
X162155120Y-106929947D01*
X162244180Y-107144960D01*
X162244188Y-107144976D01*
X162360553Y-107346524D01*
X162360564Y-107346540D01*
X162502242Y-107531179D01*
X162502248Y-107531186D01*
X162666813Y-107695751D01*
X162666819Y-107695756D01*
X162851468Y-107837442D01*
X162851475Y-107837446D01*
X163053023Y-107953811D01*
X163053039Y-107953819D01*
X163268052Y-108042879D01*
X163268054Y-108042879D01*
X163268060Y-108042882D01*
X163492874Y-108103121D01*
X163723628Y-108133500D01*
X163723635Y-108133500D01*
X163956365Y-108133500D01*
X163956372Y-108133500D01*
X164187126Y-108103121D01*
X164411940Y-108042882D01*
X164469953Y-108018852D01*
X164626960Y-107953819D01*
X164626963Y-107953817D01*
X164626969Y-107953815D01*
X164828532Y-107837442D01*
X165013181Y-107695756D01*
X165177756Y-107531181D01*
X165319442Y-107346532D01*
X165435815Y-107144969D01*
X165524882Y-106929940D01*
X165585121Y-106705126D01*
X165615500Y-106474372D01*
X165615500Y-106241628D01*
X165585121Y-106010874D01*
X165524882Y-105786060D01*
X165524879Y-105786052D01*
X165435819Y-105571039D01*
X165435811Y-105571023D01*
X165319446Y-105369475D01*
X165319442Y-105369468D01*
X165177756Y-105184819D01*
X165177751Y-105184813D01*
X165013186Y-105020248D01*
X165013179Y-105020242D01*
X164828540Y-104878564D01*
X164828538Y-104878562D01*
X164828532Y-104878558D01*
X164828527Y-104878555D01*
X164828524Y-104878553D01*
X164626976Y-104762188D01*
X164626960Y-104762180D01*
X164411947Y-104673120D01*
X164187122Y-104612878D01*
X163956382Y-104582501D01*
X163956377Y-104582500D01*
X163956372Y-104582500D01*
X163723628Y-104582500D01*
X163723622Y-104582500D01*
X163723617Y-104582501D01*
X163492877Y-104612878D01*
X163268052Y-104673120D01*
X163053039Y-104762180D01*
X163053023Y-104762188D01*
X162851475Y-104878553D01*
X162851459Y-104878564D01*
X162666820Y-105020242D01*
X162666813Y-105020248D01*
X162502248Y-105184813D01*
X162502242Y-105184820D01*
X162360564Y-105369459D01*
X162360553Y-105369475D01*
X162244188Y-105571023D01*
X162244180Y-105571039D01*
X162155120Y-105786052D01*
X162094878Y-106010877D01*
X162064501Y-106241617D01*
X162064500Y-106241634D01*
X123380000Y-106241634D01*
X123380000Y-101644635D01*
X150427000Y-101644635D01*
X150427000Y-103540370D01*
X150427001Y-103540376D01*
X150433408Y-103599983D01*
X150483702Y-103734828D01*
X150483706Y-103734835D01*
X150569952Y-103850044D01*
X150569955Y-103850047D01*
X150685164Y-103936293D01*
X150685171Y-103936297D01*
X150820017Y-103986591D01*
X150820016Y-103986591D01*
X150826944Y-103987335D01*
X150879627Y-103993000D01*
X152775372Y-103992999D01*
X152834983Y-103986591D01*
X152969831Y-103936296D01*
X153085046Y-103850046D01*
X153171296Y-103734831D01*
X153221591Y-103599983D01*
X153228000Y-103540373D01*
X153227999Y-101644628D01*
X153221591Y-101585017D01*
X153177064Y-101465634D01*
X162064500Y-101465634D01*
X162064500Y-101698365D01*
X162064501Y-101698382D01*
X162094878Y-101929122D01*
X162155120Y-102153947D01*
X162244180Y-102368960D01*
X162244188Y-102368976D01*
X162360553Y-102570524D01*
X162360564Y-102570540D01*
X162502242Y-102755179D01*
X162502248Y-102755186D01*
X162666813Y-102919751D01*
X162666819Y-102919756D01*
X162851468Y-103061442D01*
X162851475Y-103061446D01*
X163053023Y-103177811D01*
X163053039Y-103177819D01*
X163268052Y-103266879D01*
X163268054Y-103266879D01*
X163268060Y-103266882D01*
X163492874Y-103327121D01*
X163723628Y-103357500D01*
X163723635Y-103357500D01*
X163956365Y-103357500D01*
X163956372Y-103357500D01*
X164187126Y-103327121D01*
X164411940Y-103266882D01*
X164469953Y-103242852D01*
X164626960Y-103177819D01*
X164626963Y-103177817D01*
X164626969Y-103177815D01*
X164828532Y-103061442D01*
X165013181Y-102919756D01*
X165177756Y-102755181D01*
X165319442Y-102570532D01*
X165435815Y-102368969D01*
X165524882Y-102153940D01*
X165585121Y-101929126D01*
X165615500Y-101698372D01*
X165615500Y-101465628D01*
X165585121Y-101234874D01*
X165524882Y-101010060D01*
X165524879Y-101010052D01*
X165435819Y-100795039D01*
X165435811Y-100795023D01*
X165319446Y-100593475D01*
X165319442Y-100593468D01*
X165177756Y-100408819D01*
X165177751Y-100408813D01*
X165013186Y-100244248D01*
X165013179Y-100244242D01*
X164828540Y-100102564D01*
X164828538Y-100102562D01*
X164828532Y-100102558D01*
X164828527Y-100102555D01*
X164828524Y-100102553D01*
X164626976Y-99986188D01*
X164626960Y-99986180D01*
X164411947Y-99897120D01*
X164187122Y-99836878D01*
X163956382Y-99806501D01*
X163956377Y-99806500D01*
X163956372Y-99806500D01*
X163723628Y-99806500D01*
X163723622Y-99806500D01*
X163723617Y-99806501D01*
X163492877Y-99836878D01*
X163268052Y-99897120D01*
X163053039Y-99986180D01*
X163053023Y-99986188D01*
X162851475Y-100102553D01*
X162851459Y-100102564D01*
X162666820Y-100244242D01*
X162666813Y-100244248D01*
X162502248Y-100408813D01*
X162502242Y-100408820D01*
X162360564Y-100593459D01*
X162360553Y-100593475D01*
X162244188Y-100795023D01*
X162244180Y-100795039D01*
X162155120Y-101010052D01*
X162094878Y-101234877D01*
X162064501Y-101465617D01*
X162064500Y-101465634D01*
X153177064Y-101465634D01*
X153177058Y-101465617D01*
X153171298Y-101450173D01*
X153171293Y-101450164D01*
X153085047Y-101334955D01*
X153085044Y-101334952D01*
X152969835Y-101248706D01*
X152969828Y-101248702D01*
X152834982Y-101198408D01*
X152834983Y-101198408D01*
X152775383Y-101192001D01*
X152775381Y-101192000D01*
X152775373Y-101192000D01*
X152775364Y-101192000D01*
X150879629Y-101192000D01*
X150879623Y-101192001D01*
X150820016Y-101198408D01*
X150685171Y-101248702D01*
X150685164Y-101248706D01*
X150569955Y-101334952D01*
X150569952Y-101334955D01*
X150483706Y-101450164D01*
X150483702Y-101450171D01*
X150433408Y-101585017D01*
X150427001Y-101644616D01*
X150427001Y-101644623D01*
X150427000Y-101644635D01*
X123380000Y-101644635D01*
X123380000Y-91483577D01*
X154589500Y-91483577D01*
X154589500Y-91680422D01*
X154620290Y-91874826D01*
X154681117Y-92062029D01*
X154770476Y-92237405D01*
X154886172Y-92396646D01*
X155025354Y-92535828D01*
X155184595Y-92651524D01*
X155267455Y-92693743D01*
X155359970Y-92740882D01*
X155359972Y-92740882D01*
X155359975Y-92740884D01*
X155460317Y-92773487D01*
X155547173Y-92801709D01*
X155741578Y-92832500D01*
X155741583Y-92832500D01*
X155938422Y-92832500D01*
X156132826Y-92801709D01*
X156320025Y-92740884D01*
X156495405Y-92651524D01*
X156654646Y-92535828D01*
X156793828Y-92396646D01*
X156909524Y-92237405D01*
X156998884Y-92062025D01*
X157059709Y-91874826D01*
X157090500Y-91680422D01*
X157090500Y-91483577D01*
X157059709Y-91289173D01*
X157018069Y-91161021D01*
X156998884Y-91101975D01*
X156998882Y-91101972D01*
X156998882Y-91101970D01*
X156909523Y-90926594D01*
X156793828Y-90767354D01*
X156654646Y-90628172D01*
X156495405Y-90512476D01*
X156320029Y-90423117D01*
X156132826Y-90362290D01*
X155938422Y-90331500D01*
X155938417Y-90331500D01*
X155741583Y-90331500D01*
X155741578Y-90331500D01*
X155547173Y-90362290D01*
X155359970Y-90423117D01*
X155184594Y-90512476D01*
X155093741Y-90578485D01*
X155025354Y-90628172D01*
X155025352Y-90628174D01*
X155025351Y-90628174D01*
X154886174Y-90767351D01*
X154886174Y-90767352D01*
X154886172Y-90767354D01*
X154836485Y-90835741D01*
X154770476Y-90926594D01*
X154681117Y-91101970D01*
X154620290Y-91289173D01*
X154589500Y-91483577D01*
X123380000Y-91483577D01*
X123380000Y-87954000D01*
X123399685Y-87886961D01*
X123452489Y-87841206D01*
X123504000Y-87830000D01*
X168136000Y-87830000D01*
X168203039Y-87849685D01*
G37*
%TD.AperFunction*%
%TD*%
M02*
