%TF.GenerationSoftware,KiCad,Pcbnew,9.0.6*%
%TF.CreationDate,2026-08-10T20:04:36+03:00*%
%TF.ProjectId,BIFROST-3S,42494652-4f53-4542-9d33-532e6b696361,rev?*%
%TF.SameCoordinates,Original*%
%TF.FileFunction,Copper,L1,Top*%
%TF.FilePolarity,Positive*%
%FSLAX46Y46*%
G04 Gerber Fmt 4.6, Leading zero omitted, Abs format (unit mm)*
G04 Created by KiCad (PCBNEW 9.0.6) date 2026-08-10 20:04:36*
%MOMM*%
%LPD*%
G01*
G04 APERTURE LIST*
%TA.AperFunction,SMDPad,CuDef*%
%ADD10R,1.650000X1.250000*%
%TD*%
%TA.AperFunction,ComponentPad*%
%ADD11C,1.500000*%
%TD*%
%TA.AperFunction,ComponentPad*%
%ADD12C,2.550000*%
%TD*%
%TA.AperFunction,ComponentPad*%
%ADD13R,1.650000X1.650000*%
%TD*%
%TA.AperFunction,ComponentPad*%
%ADD14C,1.650000*%
%TD*%
%TA.AperFunction,SMDPad,CuDef*%
%ADD15R,1.250000X0.600000*%
%TD*%
%TA.AperFunction,ViaPad*%
%ADD16C,0.400000*%
%TD*%
%TA.AperFunction,Conductor*%
%ADD17C,0.300000*%
%TD*%
G04 APERTURE END LIST*
D10*
%TO.P,F1,1,1*%
%TO.N,/PACK+_RAW*%
X151827500Y-105715000D03*
%TO.P,F1,2,2*%
%TO.N,/+BATT*%
X151827500Y-109165000D03*
%TD*%
D11*
%TO.P,J3,1,1*%
%TO.N,/BQ2_TS1*%
X143660000Y-117465000D03*
%TO.P,J3,2,2*%
%TO.N,/BQ2_TS2*%
X146160000Y-117465000D03*
%TO.P,J3,3,3*%
%TO.N,/BQ2_TS3*%
X148660000Y-117465000D03*
%TO.P,J3,4,4*%
%TO.N,GND*%
X151160000Y-117465000D03*
%TD*%
D12*
%TO.P,J4,1,1*%
%TO.N,/+BATT*%
X163840000Y-106358000D03*
%TO.P,J4,2,2*%
%TO.N,GND*%
X158840000Y-106358000D03*
D11*
%TO.P,J4,3,3*%
%TO.N,unconnected-(J4-Pad3)*%
X155840000Y-116358000D03*
%TO.P,J4,4,4*%
%TO.N,unconnected-(J4-Pad4)*%
X166840000Y-116358000D03*
%TD*%
D13*
%TO.P,J1,1,1*%
%TO.N,GND*%
X125550000Y-117495000D03*
D14*
%TO.P,J1,2,2*%
%TO.N,/BAT1*%
X128050000Y-117495000D03*
%TO.P,J1,3,3*%
%TO.N,/BAT2*%
X130550000Y-117495000D03*
%TO.P,J1,4,4*%
%TO.N,/BAT3{slash}PACK+*%
X133050000Y-117495000D03*
%TO.P,J1,5,5*%
%TO.N,/BQ_TS*%
X135550000Y-117495000D03*
%TO.P,J1,6,6*%
%TO.N,GND*%
X138050000Y-117495000D03*
%TD*%
%TO.P,J2,1,Pin_1*%
%TO.N,GND*%
X124312000Y-110468611D03*
%TO.P,J2,2,Pin_2*%
%TO.N,/BAT1*%
X124312000Y-108150000D03*
%TO.P,J2,3,Pin_3*%
%TO.N,/BAT2*%
X124312000Y-105831389D03*
%TO.P,J2,4,Pin_4*%
%TO.N,/BAT3{slash}PACK+*%
X124312000Y-103512778D03*
%TO.P,J2,5,Pin_5*%
%TO.N,/BQ_TS*%
X131032000Y-99700000D03*
%TO.P,J2,6,Pin_6*%
%TO.N,GND*%
X133289000Y-99700000D03*
D11*
%TO.P,J2,7,Pin_7*%
%TO.N,/BQ2_TS1*%
X135471000Y-99700000D03*
%TO.P,J2,8,Pin_8*%
%TO.N,/BQ2_TS2*%
X137578000Y-99700000D03*
%TO.P,J2,9,Pin_9*%
%TO.N,/BQ2_TS3*%
X139685000Y-99700000D03*
%TO.P,J2,10,Pin_10*%
%TO.N,GND*%
X141792000Y-99700000D03*
D12*
%TO.P,J2,11,Pin_11*%
X158872000Y-101470000D03*
%TO.P,J2,12,Pin_12*%
%TO.N,/PACK+_RAW*%
X163492000Y-101470000D03*
%TD*%
D15*
%TO.P,D1,1,1*%
%TO.N,/+BATT*%
X148210000Y-108070000D03*
%TO.P,D1,2,2*%
%TO.N,unconnected-(D1-Pad2)*%
X148210000Y-106170000D03*
%TO.P,D1,3,3*%
%TO.N,GND*%
X146210000Y-107120000D03*
%TD*%
D16*
%TO.N,/+BATT*%
X157480000Y-111760000D03*
X162560000Y-114300000D03*
X162560000Y-109220000D03*
X160020000Y-109220000D03*
X160020000Y-111760000D03*
X157480000Y-109220000D03*
X165100000Y-114300000D03*
X165100000Y-111760000D03*
X165100000Y-109220000D03*
X160020000Y-114300000D03*
X162560000Y-111760000D03*
X157480000Y-114300000D03*
%TO.N,/PACK+_RAW*%
X152400000Y-100330000D03*
X154940000Y-102870000D03*
X154940000Y-100330000D03*
X149860000Y-102870000D03*
X152400000Y-99060000D03*
X149860000Y-99060000D03*
X149860000Y-100330000D03*
X152400000Y-102870000D03*
X154940000Y-101710000D03*
X152400000Y-101600000D03*
X149860000Y-101600000D03*
X154940000Y-99060000D03*
%TD*%
D17*
%TO.N,/BAT1*%
X124280000Y-108150000D02*
X128050000Y-111920000D01*
X128050000Y-111920000D02*
X128050000Y-117495000D01*
%TO.N,/BQ2_TS1*%
X135471000Y-109276000D02*
X143660000Y-117465000D01*
X135471000Y-99700000D02*
X135471000Y-109276000D01*
%TO.N,/BQ_TS*%
X135550000Y-113920000D02*
X135550000Y-117495000D01*
X131010000Y-99710000D02*
X131010000Y-109380000D01*
X131010000Y-109380000D02*
X135550000Y-113920000D01*
X131000000Y-99700000D02*
X131010000Y-99710000D01*
%TO.N,/BAT3{slash}PACK+*%
X133050000Y-112282778D02*
X133050000Y-117495000D01*
X124280000Y-103512778D02*
X133050000Y-112282778D01*
%TO.N,/BQ2_TS2*%
X137546000Y-108851000D02*
X146160000Y-117465000D01*
X137546000Y-99700000D02*
X137546000Y-108851000D01*
%TO.N,/BQ2_TS3*%
X138500000Y-108210000D02*
X147755000Y-117465000D01*
X147755000Y-117465000D02*
X148660000Y-117465000D01*
X139653000Y-99700000D02*
X138500000Y-100853000D01*
X138500000Y-100853000D02*
X138500000Y-108210000D01*
%TO.N,/BAT2*%
X124280000Y-105831389D02*
X130550000Y-112101389D01*
X130550000Y-112101389D02*
X130550000Y-117495000D01*
%TD*%
%TA.AperFunction,Conductor*%
%TO.N,/PACK+_RAW*%
G36*
X167985677Y-98809685D02*
G01*
X168006319Y-98826319D01*
X168193681Y-99013681D01*
X168227166Y-99075004D01*
X168230000Y-99101362D01*
X168230000Y-103338638D01*
X168210315Y-103405677D01*
X168193681Y-103426319D01*
X167946319Y-103673681D01*
X167884996Y-103707166D01*
X167858638Y-103710000D01*
X153979999Y-103710000D01*
X152900000Y-104789999D01*
X152900000Y-106678638D01*
X152891355Y-106708078D01*
X152884832Y-106738065D01*
X152881077Y-106743080D01*
X152880315Y-106745677D01*
X152863681Y-106766319D01*
X152746319Y-106883681D01*
X152684996Y-106917166D01*
X152658638Y-106920000D01*
X149371057Y-106920000D01*
X149304018Y-106900315D01*
X149258263Y-106847511D01*
X149248319Y-106778353D01*
X149271792Y-106721687D01*
X149278795Y-106712332D01*
X149278796Y-106712331D01*
X149329091Y-106577483D01*
X149335500Y-106517873D01*
X149335499Y-105822128D01*
X149329091Y-105762517D01*
X149278796Y-105627669D01*
X149278795Y-105627668D01*
X149278793Y-105627664D01*
X149192547Y-105512455D01*
X149192544Y-105512452D01*
X149077335Y-105426206D01*
X149077328Y-105426202D01*
X148942482Y-105375908D01*
X148942483Y-105375908D01*
X148882883Y-105369501D01*
X148882881Y-105369500D01*
X148882873Y-105369500D01*
X148882865Y-105369500D01*
X147634000Y-105369500D01*
X147566961Y-105349815D01*
X147521206Y-105297011D01*
X147510000Y-105245500D01*
X147510000Y-101353634D01*
X157096500Y-101353634D01*
X157096500Y-101586365D01*
X157096501Y-101586382D01*
X157126878Y-101817122D01*
X157187120Y-102041947D01*
X157276180Y-102256960D01*
X157276188Y-102256976D01*
X157392553Y-102458524D01*
X157392564Y-102458540D01*
X157534242Y-102643179D01*
X157534248Y-102643186D01*
X157698813Y-102807751D01*
X157698819Y-102807756D01*
X157883468Y-102949442D01*
X157883475Y-102949446D01*
X158085023Y-103065811D01*
X158085039Y-103065819D01*
X158300052Y-103154879D01*
X158300054Y-103154879D01*
X158300060Y-103154882D01*
X158524874Y-103215121D01*
X158755628Y-103245500D01*
X158755635Y-103245500D01*
X158988365Y-103245500D01*
X158988372Y-103245500D01*
X159219126Y-103215121D01*
X159443940Y-103154882D01*
X159501953Y-103130852D01*
X159658960Y-103065819D01*
X159658963Y-103065817D01*
X159658969Y-103065815D01*
X159860532Y-102949442D01*
X160045181Y-102807756D01*
X160209756Y-102643181D01*
X160351442Y-102458532D01*
X160467815Y-102256969D01*
X160556882Y-102041940D01*
X160617121Y-101817126D01*
X160647500Y-101586372D01*
X160647500Y-101353628D01*
X160617121Y-101122874D01*
X160556882Y-100898060D01*
X160556879Y-100898052D01*
X160467819Y-100683039D01*
X160467811Y-100683023D01*
X160351446Y-100481475D01*
X160351442Y-100481468D01*
X160209756Y-100296819D01*
X160209751Y-100296813D01*
X160045186Y-100132248D01*
X160045179Y-100132242D01*
X159860540Y-99990564D01*
X159860538Y-99990562D01*
X159860532Y-99990558D01*
X159860527Y-99990555D01*
X159860524Y-99990553D01*
X159658976Y-99874188D01*
X159658960Y-99874180D01*
X159443947Y-99785120D01*
X159219122Y-99724878D01*
X158988382Y-99694501D01*
X158988377Y-99694500D01*
X158988372Y-99694500D01*
X158755628Y-99694500D01*
X158755622Y-99694500D01*
X158755617Y-99694501D01*
X158524877Y-99724878D01*
X158300052Y-99785120D01*
X158085039Y-99874180D01*
X158085023Y-99874188D01*
X157883475Y-99990553D01*
X157883459Y-99990564D01*
X157698820Y-100132242D01*
X157698813Y-100132248D01*
X157534248Y-100296813D01*
X157534242Y-100296820D01*
X157392564Y-100481459D01*
X157392553Y-100481475D01*
X157276188Y-100683023D01*
X157276180Y-100683039D01*
X157187120Y-100898052D01*
X157126878Y-101122877D01*
X157096501Y-101353617D01*
X157096500Y-101353634D01*
X147510000Y-101353634D01*
X147510000Y-99101362D01*
X147529685Y-99034323D01*
X147546319Y-99013681D01*
X147733681Y-98826319D01*
X147795004Y-98792834D01*
X147821362Y-98790000D01*
X167918638Y-98790000D01*
X167985677Y-98809685D01*
G37*
%TD.AperFunction*%
%TD*%
%TA.AperFunction,Conductor*%
%TO.N,GND*%
G36*
X134410126Y-98809685D02*
G01*
X134455881Y-98862489D01*
X134465825Y-98931647D01*
X134443404Y-98986886D01*
X134401478Y-99044590D01*
X134312117Y-99219970D01*
X134251290Y-99407173D01*
X134220500Y-99601577D01*
X134220500Y-99798422D01*
X134251290Y-99992826D01*
X134312117Y-100180029D01*
X134353378Y-100261007D01*
X134401476Y-100355405D01*
X134517172Y-100514646D01*
X134656354Y-100653828D01*
X134737385Y-100712701D01*
X134769385Y-100735950D01*
X134812051Y-100791280D01*
X134820500Y-100836268D01*
X134820500Y-109340069D01*
X134820500Y-109340071D01*
X134820499Y-109340071D01*
X134845497Y-109465738D01*
X134845499Y-109465744D01*
X134894535Y-109584127D01*
X134965723Y-109690669D01*
X134965726Y-109690673D01*
X134965727Y-109690674D01*
X142396563Y-117121509D01*
X142430048Y-117182832D01*
X142431355Y-117228588D01*
X142409500Y-117366577D01*
X142409500Y-117563422D01*
X142440290Y-117757826D01*
X142501117Y-117945029D01*
X142575239Y-118090501D01*
X142590476Y-118120405D01*
X142706172Y-118279646D01*
X142845354Y-118418828D01*
X143004595Y-118534524D01*
X143087455Y-118576743D01*
X143179970Y-118623882D01*
X143179972Y-118623882D01*
X143179975Y-118623884D01*
X143280317Y-118656487D01*
X143367173Y-118684709D01*
X143561578Y-118715500D01*
X143561583Y-118715500D01*
X143758422Y-118715500D01*
X143952826Y-118684709D01*
X144140025Y-118623884D01*
X144315405Y-118534524D01*
X144474646Y-118418828D01*
X144613828Y-118279646D01*
X144729524Y-118120405D01*
X144799515Y-117983038D01*
X144847489Y-117932243D01*
X144915310Y-117915448D01*
X144981445Y-117937985D01*
X145020484Y-117983038D01*
X145090476Y-118120405D01*
X145206172Y-118279646D01*
X145345354Y-118418828D01*
X145504595Y-118534524D01*
X145587455Y-118576743D01*
X145679970Y-118623882D01*
X145679972Y-118623882D01*
X145679975Y-118623884D01*
X145780317Y-118656487D01*
X145867173Y-118684709D01*
X146061578Y-118715500D01*
X146061583Y-118715500D01*
X146258422Y-118715500D01*
X146452826Y-118684709D01*
X146640025Y-118623884D01*
X146815405Y-118534524D01*
X146974646Y-118418828D01*
X147113828Y-118279646D01*
X147229524Y-118120405D01*
X147251382Y-118077504D01*
X147299353Y-118026710D01*
X147367173Y-118009913D01*
X147415216Y-118021862D01*
X147423301Y-118025715D01*
X147446874Y-118041466D01*
X147516221Y-118070189D01*
X147537947Y-118079188D01*
X147590807Y-118120861D01*
X147706172Y-118279646D01*
X147845354Y-118418828D01*
X148004595Y-118534524D01*
X148087455Y-118576743D01*
X148179970Y-118623882D01*
X148179972Y-118623882D01*
X148179975Y-118623884D01*
X148280317Y-118656487D01*
X148367173Y-118684709D01*
X148561578Y-118715500D01*
X148561583Y-118715500D01*
X148758422Y-118715500D01*
X148952826Y-118684709D01*
X149140025Y-118623884D01*
X149315405Y-118534524D01*
X149474646Y-118418828D01*
X149613828Y-118279646D01*
X149729524Y-118120405D01*
X149818884Y-117945025D01*
X149879709Y-117757826D01*
X149903360Y-117608500D01*
X149910500Y-117563422D01*
X149910500Y-117366577D01*
X149879709Y-117172173D01*
X149840888Y-117052695D01*
X149818884Y-116984975D01*
X149818882Y-116984972D01*
X149818882Y-116984970D01*
X149756508Y-116862554D01*
X149729524Y-116809595D01*
X149613828Y-116650354D01*
X149474646Y-116511172D01*
X149315405Y-116395476D01*
X149140029Y-116306117D01*
X148952826Y-116245290D01*
X148758422Y-116214500D01*
X148758417Y-116214500D01*
X148561583Y-116214500D01*
X148561578Y-116214500D01*
X148367173Y-116245290D01*
X148179970Y-116306117D01*
X148004591Y-116395478D01*
X147859076Y-116501201D01*
X147793270Y-116524681D01*
X147725216Y-116508856D01*
X147698510Y-116488564D01*
X139186819Y-107976873D01*
X139153334Y-107915550D01*
X139150500Y-107889192D01*
X139150500Y-101173807D01*
X139159145Y-101144363D01*
X139165668Y-101114381D01*
X139169422Y-101109365D01*
X139170185Y-101106768D01*
X139186810Y-101086135D01*
X139313887Y-100959057D01*
X139375206Y-100925575D01*
X139420959Y-100924268D01*
X139515113Y-100939180D01*
X139586579Y-100950500D01*
X139586583Y-100950500D01*
X139783422Y-100950500D01*
X139977826Y-100919709D01*
X139998505Y-100912990D01*
X140165025Y-100858884D01*
X140340405Y-100769524D01*
X140499646Y-100653828D01*
X140638828Y-100514646D01*
X140754524Y-100355405D01*
X140843884Y-100180025D01*
X140904709Y-99992826D01*
X140922031Y-99883458D01*
X140935500Y-99798422D01*
X140935500Y-99601577D01*
X140904709Y-99407173D01*
X140843882Y-99219970D01*
X140754521Y-99044590D01*
X140712596Y-98986886D01*
X140689115Y-98921080D01*
X140704940Y-98853026D01*
X140755045Y-98804331D01*
X140812913Y-98790000D01*
X146558638Y-98790000D01*
X146625677Y-98809685D01*
X146646319Y-98826319D01*
X146863681Y-99043681D01*
X146897166Y-99105004D01*
X146900000Y-99131362D01*
X146900000Y-109680000D01*
X157023681Y-119803681D01*
X157057166Y-119865004D01*
X157060000Y-119891362D01*
X157060000Y-120308638D01*
X157040315Y-120375677D01*
X157023681Y-120396319D01*
X156756319Y-120663681D01*
X156694996Y-120697166D01*
X156668638Y-120700000D01*
X123841362Y-120700000D01*
X123774323Y-120680315D01*
X123753681Y-120663681D01*
X123386319Y-120296319D01*
X123352834Y-120234996D01*
X123350000Y-120208638D01*
X123350000Y-109332838D01*
X123369685Y-109265799D01*
X123422489Y-109220044D01*
X123491647Y-109210100D01*
X123546884Y-109232520D01*
X123588334Y-109262635D01*
X123617284Y-109283669D01*
X123803179Y-109378387D01*
X123803181Y-109378387D01*
X123803184Y-109378389D01*
X123909545Y-109412948D01*
X124001610Y-109442862D01*
X124207676Y-109475500D01*
X124207681Y-109475500D01*
X124416324Y-109475500D01*
X124586339Y-109448572D01*
X124655632Y-109457526D01*
X124693418Y-109483364D01*
X127363181Y-112153126D01*
X127396666Y-112214449D01*
X127399500Y-112240807D01*
X127399500Y-116266025D01*
X127379815Y-116333064D01*
X127348386Y-116366343D01*
X127186493Y-116483966D01*
X127038966Y-116631493D01*
X126916330Y-116800285D01*
X126821612Y-116986179D01*
X126757137Y-117184610D01*
X126724500Y-117390675D01*
X126724500Y-117599324D01*
X126757137Y-117805389D01*
X126821612Y-118003820D01*
X126910485Y-118178243D01*
X126916330Y-118189714D01*
X127038965Y-118358505D01*
X127186495Y-118506035D01*
X127355286Y-118628670D01*
X127443116Y-118673421D01*
X127541179Y-118723387D01*
X127541181Y-118723387D01*
X127541184Y-118723389D01*
X127647545Y-118757948D01*
X127739610Y-118787862D01*
X127945676Y-118820500D01*
X127945681Y-118820500D01*
X128154324Y-118820500D01*
X128360389Y-118787862D01*
X128558816Y-118723389D01*
X128744714Y-118628670D01*
X128913505Y-118506035D01*
X129061035Y-118358505D01*
X129183670Y-118189714D01*
X129189515Y-118178243D01*
X129237489Y-118127447D01*
X129305310Y-118110651D01*
X129371445Y-118133188D01*
X129410485Y-118178243D01*
X129416328Y-118189712D01*
X129481670Y-118279646D01*
X129538965Y-118358505D01*
X129686495Y-118506035D01*
X129855286Y-118628670D01*
X129943116Y-118673421D01*
X130041179Y-118723387D01*
X130041181Y-118723387D01*
X130041184Y-118723389D01*
X130147545Y-118757948D01*
X130239610Y-118787862D01*
X130445676Y-118820500D01*
X130445681Y-118820500D01*
X130654324Y-118820500D01*
X130860389Y-118787862D01*
X131058816Y-118723389D01*
X131244714Y-118628670D01*
X131413505Y-118506035D01*
X131561035Y-118358505D01*
X131683670Y-118189714D01*
X131689515Y-118178243D01*
X131737489Y-118127447D01*
X131805310Y-118110651D01*
X131871445Y-118133188D01*
X131910485Y-118178243D01*
X131916328Y-118189712D01*
X131981670Y-118279646D01*
X132038965Y-118358505D01*
X132186495Y-118506035D01*
X132355286Y-118628670D01*
X132443116Y-118673421D01*
X132541179Y-118723387D01*
X132541181Y-118723387D01*
X132541184Y-118723389D01*
X132647545Y-118757948D01*
X132739610Y-118787862D01*
X132945676Y-118820500D01*
X132945681Y-118820500D01*
X133154324Y-118820500D01*
X133360389Y-118787862D01*
X133558816Y-118723389D01*
X133744714Y-118628670D01*
X133913505Y-118506035D01*
X134061035Y-118358505D01*
X134183670Y-118189714D01*
X134189515Y-118178243D01*
X134237489Y-118127447D01*
X134305310Y-118110651D01*
X134371445Y-118133188D01*
X134410485Y-118178243D01*
X134416328Y-118189712D01*
X134481670Y-118279646D01*
X134538965Y-118358505D01*
X134686495Y-118506035D01*
X134855286Y-118628670D01*
X134943116Y-118673421D01*
X135041179Y-118723387D01*
X135041181Y-118723387D01*
X135041184Y-118723389D01*
X135147545Y-118757948D01*
X135239610Y-118787862D01*
X135445676Y-118820500D01*
X135445681Y-118820500D01*
X135654324Y-118820500D01*
X135860389Y-118787862D01*
X136058816Y-118723389D01*
X136244714Y-118628670D01*
X136413505Y-118506035D01*
X136561035Y-118358505D01*
X136683670Y-118189714D01*
X136778389Y-118003816D01*
X136842862Y-117805389D01*
X136850395Y-117757826D01*
X136875500Y-117599324D01*
X136875500Y-117390675D01*
X136842862Y-117184610D01*
X136800000Y-117052695D01*
X136778389Y-116986184D01*
X136778387Y-116986181D01*
X136778387Y-116986179D01*
X136702899Y-116838025D01*
X136683670Y-116800286D01*
X136561035Y-116631495D01*
X136413505Y-116483965D01*
X136291714Y-116395478D01*
X136251614Y-116366343D01*
X136208949Y-116311012D01*
X136200500Y-116266025D01*
X136200500Y-113855928D01*
X136175502Y-113730261D01*
X136175501Y-113730260D01*
X136175501Y-113730256D01*
X136132491Y-113626420D01*
X136126466Y-113611874D01*
X136055277Y-113505331D01*
X136055272Y-113505325D01*
X131696819Y-109146872D01*
X131663334Y-109085549D01*
X131660500Y-109059191D01*
X131660500Y-100943394D01*
X131680185Y-100876355D01*
X131723278Y-100837373D01*
X131722566Y-100836211D01*
X131726702Y-100833675D01*
X131726714Y-100833670D01*
X131895505Y-100711035D01*
X132043035Y-100563505D01*
X132165670Y-100394714D01*
X132260389Y-100208816D01*
X132324862Y-100010389D01*
X132344966Y-99883458D01*
X132357500Y-99804324D01*
X132357500Y-99595675D01*
X132324862Y-99389610D01*
X132260387Y-99191179D01*
X132165669Y-99005284D01*
X132152302Y-98986887D01*
X132128821Y-98921081D01*
X132144645Y-98853027D01*
X132194750Y-98804331D01*
X132252619Y-98790000D01*
X134343087Y-98790000D01*
X134410126Y-98809685D01*
G37*
%TD.AperFunction*%
%TD*%
%TA.AperFunction,Conductor*%
%TO.N,/+BATT*%
G36*
X158375195Y-104429685D02*
G01*
X158420950Y-104482489D01*
X158430894Y-104551647D01*
X158401869Y-104615203D01*
X158343091Y-104652977D01*
X158340276Y-104653767D01*
X158289535Y-104667363D01*
X158268052Y-104673120D01*
X158053039Y-104762180D01*
X158053023Y-104762188D01*
X157851475Y-104878553D01*
X157851459Y-104878564D01*
X157666820Y-105020242D01*
X157666813Y-105020248D01*
X157502248Y-105184813D01*
X157502242Y-105184820D01*
X157360564Y-105369459D01*
X157360553Y-105369475D01*
X157244188Y-105571023D01*
X157244180Y-105571039D01*
X157155120Y-105786052D01*
X157094878Y-106010877D01*
X157064501Y-106241617D01*
X157064500Y-106241634D01*
X157064500Y-106474365D01*
X157064501Y-106474382D01*
X157091391Y-106678638D01*
X157094879Y-106705126D01*
X157150605Y-106913099D01*
X157155120Y-106929947D01*
X157244180Y-107144960D01*
X157244188Y-107144976D01*
X157360553Y-107346524D01*
X157360564Y-107346540D01*
X157502242Y-107531179D01*
X157502248Y-107531186D01*
X157666813Y-107695751D01*
X157666819Y-107695756D01*
X157851468Y-107837442D01*
X157851475Y-107837446D01*
X158053023Y-107953811D01*
X158053039Y-107953819D01*
X158268052Y-108042879D01*
X158268054Y-108042879D01*
X158268060Y-108042882D01*
X158492874Y-108103121D01*
X158723628Y-108133500D01*
X158723635Y-108133500D01*
X158956365Y-108133500D01*
X158956372Y-108133500D01*
X159187126Y-108103121D01*
X159411940Y-108042882D01*
X159469953Y-108018852D01*
X159626960Y-107953819D01*
X159626963Y-107953817D01*
X159626969Y-107953815D01*
X159828532Y-107837442D01*
X160013181Y-107695756D01*
X160177756Y-107531181D01*
X160319442Y-107346532D01*
X160435815Y-107144969D01*
X160444610Y-107123737D01*
X160524879Y-106929947D01*
X160524878Y-106929947D01*
X160524882Y-106929940D01*
X160585121Y-106705126D01*
X160615500Y-106474372D01*
X160615500Y-106241628D01*
X160585121Y-106010874D01*
X160524882Y-105786060D01*
X160524879Y-105786052D01*
X160435819Y-105571039D01*
X160435811Y-105571023D01*
X160319446Y-105369475D01*
X160319442Y-105369468D01*
X160177756Y-105184819D01*
X160177751Y-105184813D01*
X160013186Y-105020248D01*
X160013179Y-105020242D01*
X159828540Y-104878564D01*
X159828538Y-104878562D01*
X159828532Y-104878558D01*
X159828527Y-104878555D01*
X159828524Y-104878553D01*
X159626976Y-104762188D01*
X159626960Y-104762180D01*
X159411947Y-104673120D01*
X159411940Y-104673118D01*
X159339749Y-104653774D01*
X159280090Y-104617410D01*
X159249561Y-104554563D01*
X159257856Y-104485187D01*
X159302341Y-104431309D01*
X159368893Y-104410035D01*
X159371844Y-104410000D01*
X167768638Y-104410000D01*
X167835677Y-104429685D01*
X167856319Y-104446319D01*
X168223681Y-104813681D01*
X168257166Y-104875004D01*
X168260000Y-104901362D01*
X168260000Y-115898702D01*
X168240315Y-115965741D01*
X168187511Y-116011496D01*
X168118353Y-116021440D01*
X168054797Y-115992415D01*
X168018069Y-115937021D01*
X167998884Y-115877975D01*
X167998882Y-115877972D01*
X167998882Y-115877970D01*
X167909523Y-115702594D01*
X167793828Y-115543354D01*
X167654646Y-115404172D01*
X167495405Y-115288476D01*
X167320029Y-115199117D01*
X167132826Y-115138290D01*
X166938422Y-115107500D01*
X166938417Y-115107500D01*
X166741583Y-115107500D01*
X166741578Y-115107500D01*
X166547173Y-115138290D01*
X166359970Y-115199117D01*
X166184594Y-115288476D01*
X166093741Y-115354485D01*
X166025354Y-115404172D01*
X166025352Y-115404174D01*
X166025351Y-115404174D01*
X165886174Y-115543351D01*
X165886174Y-115543352D01*
X165886172Y-115543354D01*
X165836485Y-115611741D01*
X165770476Y-115702594D01*
X165681117Y-115877970D01*
X165620290Y-116065173D01*
X165589500Y-116259577D01*
X165589500Y-116456422D01*
X165620290Y-116650826D01*
X165681117Y-116838029D01*
X165755990Y-116984975D01*
X165770476Y-117013405D01*
X165886172Y-117172646D01*
X166025354Y-117311828D01*
X166184595Y-117427524D01*
X166267455Y-117469743D01*
X166359970Y-117516882D01*
X166359972Y-117516882D01*
X166359975Y-117516884D01*
X166460317Y-117549487D01*
X166547173Y-117577709D01*
X166741578Y-117608500D01*
X166741583Y-117608500D01*
X166938422Y-117608500D01*
X167132826Y-117577709D01*
X167320025Y-117516884D01*
X167495405Y-117427524D01*
X167654646Y-117311828D01*
X167793828Y-117172646D01*
X167909524Y-117013405D01*
X167998884Y-116838025D01*
X168018069Y-116778978D01*
X168057507Y-116721303D01*
X168121865Y-116694105D01*
X168190712Y-116706020D01*
X168242187Y-116753264D01*
X168260000Y-116817297D01*
X168260000Y-120128638D01*
X168240315Y-120195677D01*
X168223681Y-120216319D01*
X167786319Y-120653681D01*
X167724996Y-120687166D01*
X167698638Y-120690000D01*
X158721362Y-120690000D01*
X158654323Y-120670315D01*
X158633681Y-120653681D01*
X155800181Y-117820181D01*
X155766696Y-117758858D01*
X155771680Y-117689166D01*
X155813552Y-117633233D01*
X155879016Y-117608816D01*
X155887862Y-117608500D01*
X155938422Y-117608500D01*
X156132826Y-117577709D01*
X156320025Y-117516884D01*
X156495405Y-117427524D01*
X156654646Y-117311828D01*
X156793828Y-117172646D01*
X156909524Y-117013405D01*
X156998884Y-116838025D01*
X157059709Y-116650826D01*
X157059784Y-116650354D01*
X157090500Y-116456422D01*
X157090500Y-116259577D01*
X157059709Y-116065173D01*
X157018069Y-115937021D01*
X156998884Y-115877975D01*
X156998882Y-115877972D01*
X156998882Y-115877970D01*
X156909523Y-115702594D01*
X156793828Y-115543354D01*
X156654646Y-115404172D01*
X156495405Y-115288476D01*
X156320029Y-115199117D01*
X156132826Y-115138290D01*
X155938422Y-115107500D01*
X155938417Y-115107500D01*
X155741583Y-115107500D01*
X155741578Y-115107500D01*
X155547173Y-115138290D01*
X155359970Y-115199117D01*
X155184594Y-115288476D01*
X155093741Y-115354485D01*
X155025354Y-115404172D01*
X155025352Y-115404174D01*
X155025351Y-115404174D01*
X154886174Y-115543351D01*
X154886174Y-115543352D01*
X154886172Y-115543354D01*
X154836485Y-115611741D01*
X154770476Y-115702594D01*
X154681117Y-115877970D01*
X154620290Y-116065173D01*
X154589500Y-116259577D01*
X154589500Y-116310138D01*
X154569815Y-116377177D01*
X154517011Y-116422932D01*
X154447853Y-116432876D01*
X154384297Y-116403851D01*
X154377819Y-116397819D01*
X147446319Y-109466319D01*
X147412834Y-109404996D01*
X147410000Y-109378638D01*
X147410000Y-107701362D01*
X147418644Y-107671921D01*
X147425168Y-107641935D01*
X147428922Y-107636919D01*
X147429685Y-107634323D01*
X147446319Y-107613681D01*
X147583681Y-107476319D01*
X147645004Y-107442834D01*
X147671362Y-107440000D01*
X152709999Y-107440000D01*
X152710000Y-107440000D01*
X152710000Y-107439999D01*
X152732789Y-107430560D01*
X152733275Y-107431734D01*
X152761528Y-107416305D01*
X152768034Y-107415069D01*
X152792448Y-107411114D01*
X152927257Y-107360832D01*
X152988580Y-107327347D01*
X153103761Y-107241123D01*
X153221123Y-107123761D01*
X153257288Y-107083500D01*
X153267780Y-107070478D01*
X153273908Y-107062876D01*
X153273912Y-107062869D01*
X153273922Y-107062858D01*
X153305622Y-107018888D01*
X153310298Y-107008641D01*
X153328501Y-106980322D01*
X153352071Y-106917124D01*
X153365366Y-106887999D01*
X153366128Y-106885402D01*
X153366127Y-106885401D01*
X153373082Y-106861699D01*
X153373096Y-106861652D01*
X153374339Y-106857420D01*
X153378781Y-106845512D01*
X153381465Y-106833171D01*
X153384408Y-106823149D01*
X153384895Y-106821596D01*
X153385023Y-106821056D01*
X153385024Y-106821054D01*
X153388567Y-106796410D01*
X153417588Y-106732858D01*
X153419801Y-106730480D01*
X153420000Y-106730001D01*
X153420000Y-105101362D01*
X153439685Y-105034323D01*
X153456319Y-105013681D01*
X154023681Y-104446319D01*
X154085004Y-104412834D01*
X154111362Y-104410000D01*
X158308156Y-104410000D01*
X158375195Y-104429685D01*
G37*
%TD.AperFunction*%
%TD*%
M02*
