%TF.GenerationSoftware,KiCad,Pcbnew,9.0.6*%
%TF.CreationDate,2026-08-10T18:58:00+03:00*%
%TF.ProjectId,BIFROST-3S,42494652-4f53-4542-9d33-532e6b696361,rev?*%
%TF.SameCoordinates,Original*%
%TF.FileFunction,Copper,L4,Bot*%
%TF.FilePolarity,Positive*%
%FSLAX46Y46*%
G04 Gerber Fmt 4.6, Leading zero omitted, Abs format (unit mm)*
G04 Created by KiCad (PCBNEW 9.0.6) date 2026-08-10 18:58:00*
%MOMM*%
%LPD*%
G01*
G04 APERTURE LIST*
%TA.AperFunction,ComponentPad*%
%ADD10C,1.500000*%
%TD*%
%TA.AperFunction,ComponentPad*%
%ADD11C,2.550000*%
%TD*%
%TA.AperFunction,ComponentPad*%
%ADD12R,1.650000X1.650000*%
%TD*%
%TA.AperFunction,ComponentPad*%
%ADD13C,1.650000*%
%TD*%
G04 APERTURE END LIST*
D10*
%TO.P,J3,1,1*%
%TO.N,GND*%
X143660000Y-117465000D03*
%TO.P,J3,2,2*%
%TO.N,/BQ2_TS3*%
X146160000Y-117465000D03*
%TO.P,J3,3,3*%
%TO.N,/BQ2_TS2*%
X148660000Y-117465000D03*
%TO.P,J3,4,4*%
%TO.N,/BQ2_TS1*%
X151160000Y-117465000D03*
%TD*%
D11*
%TO.P,J4,1,1*%
%TO.N,/+BATT*%
X163840000Y-106358000D03*
%TO.P,J4,2,2*%
%TO.N,GND*%
X158840000Y-106358000D03*
D10*
%TO.P,J4,3,3*%
%TO.N,unconnected-(J4-Pad3)*%
X155840000Y-116358000D03*
%TO.P,J4,4,4*%
%TO.N,unconnected-(J4-Pad4)*%
X166840000Y-116358000D03*
%TD*%
D12*
%TO.P,J1,1,1*%
%TO.N,GND*%
X125550000Y-117495000D03*
D13*
%TO.P,J1,2,2*%
%TO.N,/BAT1*%
X128050000Y-117495000D03*
%TO.P,J1,3,3*%
%TO.N,/BAT2*%
X130550000Y-117495000D03*
%TO.P,J1,4,4*%
%TO.N,/BAT3{slash}PACK+*%
X133050000Y-117495000D03*
%TO.P,J1,5,5*%
%TO.N,/BQ_TS*%
X135550000Y-117495000D03*
%TO.P,J1,6,6*%
%TO.N,GND*%
X138050000Y-117495000D03*
%TD*%
%TO.P,J2,1,Pin_1*%
%TO.N,GND*%
X124312000Y-110468611D03*
%TO.P,J2,2,Pin_2*%
%TO.N,/BAT1*%
X124312000Y-108150000D03*
%TO.P,J2,3,Pin_3*%
%TO.N,/BAT2*%
X124312000Y-105831389D03*
%TO.P,J2,4,Pin_4*%
%TO.N,/BAT3{slash}PACK+*%
X124312000Y-103512778D03*
%TO.P,J2,5,Pin_5*%
%TO.N,/BQ_TS*%
X131032000Y-99700000D03*
%TO.P,J2,6,Pin_6*%
%TO.N,GND*%
X133289000Y-99700000D03*
D10*
%TO.P,J2,7,Pin_7*%
X135471000Y-99700000D03*
%TO.P,J2,8,Pin_8*%
%TO.N,/BQ2_TS3*%
X137578000Y-99700000D03*
%TO.P,J2,9,Pin_9*%
%TO.N,/BQ2_TS2*%
X139685000Y-99700000D03*
%TO.P,J2,10,Pin_10*%
%TO.N,/BQ2_TS1*%
X141792000Y-99700000D03*
D11*
%TO.P,J2,11,Pin_11*%
%TO.N,GND*%
X158872000Y-101470000D03*
%TO.P,J2,12,Pin_12*%
%TO.N,/PACK+_RAW*%
X163492000Y-101470000D03*
%TD*%
%TA.AperFunction,Conductor*%
%TO.N,GND*%
G36*
X129863889Y-98829685D02*
G01*
X129909644Y-98882489D01*
X129919588Y-98951647D01*
X129899774Y-99000455D01*
X129900876Y-99001130D01*
X129898334Y-99005277D01*
X129803612Y-99191179D01*
X129739137Y-99389610D01*
X129706500Y-99595675D01*
X129706500Y-99804324D01*
X129739137Y-100010389D01*
X129803612Y-100208820D01*
X129878301Y-100355405D01*
X129898330Y-100394714D01*
X130020965Y-100563505D01*
X130168495Y-100711035D01*
X130337286Y-100833670D01*
X130386768Y-100858882D01*
X130523179Y-100928387D01*
X130523181Y-100928387D01*
X130523184Y-100928389D01*
X130629545Y-100962948D01*
X130721610Y-100992862D01*
X130927676Y-101025500D01*
X130927681Y-101025500D01*
X131136324Y-101025500D01*
X131342389Y-100992862D01*
X131540816Y-100928389D01*
X131726714Y-100833670D01*
X131895505Y-100711035D01*
X132043035Y-100563505D01*
X132165670Y-100394714D01*
X132260389Y-100208816D01*
X132324862Y-100010389D01*
X132327644Y-99992826D01*
X132357500Y-99804324D01*
X132357500Y-99595675D01*
X132324862Y-99389610D01*
X132260387Y-99191179D01*
X132185698Y-99044593D01*
X132165670Y-99005286D01*
X132165668Y-99005284D01*
X132165665Y-99005277D01*
X132163124Y-99001130D01*
X132164484Y-99000296D01*
X132143353Y-98941094D01*
X132159170Y-98873038D01*
X132209270Y-98824337D01*
X132267150Y-98810000D01*
X136435556Y-98810000D01*
X136502595Y-98829685D01*
X136548350Y-98882489D01*
X136558294Y-98951647D01*
X136535873Y-99006887D01*
X136508476Y-99044593D01*
X136419117Y-99219970D01*
X136358290Y-99407173D01*
X136327500Y-99601577D01*
X136327500Y-99798422D01*
X136358290Y-99992826D01*
X136419117Y-100180029D01*
X136508476Y-100355405D01*
X136624172Y-100514646D01*
X136763354Y-100653828D01*
X136922595Y-100769524D01*
X137005455Y-100811743D01*
X137097970Y-100858882D01*
X137097972Y-100858882D01*
X137097975Y-100858884D01*
X137198317Y-100891487D01*
X137285173Y-100919709D01*
X137479578Y-100950500D01*
X137479583Y-100950500D01*
X137676422Y-100950500D01*
X137870826Y-100919709D01*
X138058025Y-100858884D01*
X138233405Y-100769524D01*
X138392646Y-100653828D01*
X138531828Y-100514646D01*
X138531835Y-100514635D01*
X138534992Y-100510941D01*
X138536011Y-100511811D01*
X138586509Y-100472870D01*
X138656122Y-100466889D01*
X138717918Y-100499493D01*
X138727909Y-100511024D01*
X138728008Y-100510941D01*
X138731170Y-100514643D01*
X138731172Y-100514646D01*
X138870354Y-100653828D01*
X139029595Y-100769524D01*
X139112455Y-100811743D01*
X139204970Y-100858882D01*
X139204972Y-100858882D01*
X139204975Y-100858884D01*
X139305317Y-100891487D01*
X139392173Y-100919709D01*
X139586578Y-100950500D01*
X139586583Y-100950500D01*
X139783422Y-100950500D01*
X139977826Y-100919709D01*
X140165025Y-100858884D01*
X140340405Y-100769524D01*
X140499646Y-100653828D01*
X140638828Y-100514646D01*
X140638835Y-100514635D01*
X140641992Y-100510941D01*
X140643011Y-100511811D01*
X140693509Y-100472870D01*
X140763122Y-100466889D01*
X140824918Y-100499493D01*
X140834909Y-100511024D01*
X140835008Y-100510941D01*
X140838170Y-100514643D01*
X140838172Y-100514646D01*
X140977354Y-100653828D01*
X141136595Y-100769524D01*
X141219455Y-100811743D01*
X141311970Y-100858882D01*
X141311972Y-100858882D01*
X141311975Y-100858884D01*
X141412317Y-100891487D01*
X141499173Y-100919709D01*
X141693578Y-100950500D01*
X141693583Y-100950500D01*
X141890422Y-100950500D01*
X142084826Y-100919709D01*
X142272025Y-100858884D01*
X142447405Y-100769524D01*
X142606646Y-100653828D01*
X142745828Y-100514646D01*
X142861524Y-100355405D01*
X142950884Y-100180025D01*
X143011709Y-99992826D01*
X143042500Y-99798422D01*
X143042500Y-99601577D01*
X143011709Y-99407173D01*
X142983487Y-99320317D01*
X142950884Y-99219975D01*
X142950882Y-99219972D01*
X142950882Y-99219970D01*
X142861523Y-99044593D01*
X142834127Y-99006887D01*
X142810646Y-98941081D01*
X142826471Y-98873026D01*
X142876576Y-98824331D01*
X142934444Y-98810000D01*
X146598638Y-98810000D01*
X146665677Y-98829685D01*
X146686319Y-98846319D01*
X146903681Y-99063681D01*
X146937166Y-99125004D01*
X146940000Y-99151362D01*
X146940000Y-109700000D01*
X157063681Y-119823681D01*
X157097166Y-119885004D01*
X157100000Y-119911362D01*
X157100000Y-120328638D01*
X157080315Y-120395677D01*
X157063681Y-120416319D01*
X156796319Y-120683681D01*
X156734996Y-120717166D01*
X156708638Y-120720000D01*
X123881362Y-120720000D01*
X123814323Y-120700315D01*
X123793681Y-120683681D01*
X123426319Y-120316319D01*
X123392834Y-120254996D01*
X123390000Y-120228638D01*
X123390000Y-117390675D01*
X126724500Y-117390675D01*
X126724500Y-117599324D01*
X126757137Y-117805389D01*
X126821612Y-118003820D01*
X126910485Y-118178243D01*
X126916330Y-118189714D01*
X127038965Y-118358505D01*
X127186495Y-118506035D01*
X127355286Y-118628670D01*
X127443116Y-118673421D01*
X127541179Y-118723387D01*
X127541181Y-118723387D01*
X127541184Y-118723389D01*
X127647545Y-118757948D01*
X127739610Y-118787862D01*
X127945676Y-118820500D01*
X127945681Y-118820500D01*
X128154324Y-118820500D01*
X128360389Y-118787862D01*
X128558816Y-118723389D01*
X128744714Y-118628670D01*
X128913505Y-118506035D01*
X129061035Y-118358505D01*
X129183670Y-118189714D01*
X129189515Y-118178243D01*
X129237489Y-118127447D01*
X129305310Y-118110651D01*
X129371445Y-118133188D01*
X129410485Y-118178243D01*
X129416328Y-118189712D01*
X129481670Y-118279646D01*
X129538965Y-118358505D01*
X129686495Y-118506035D01*
X129855286Y-118628670D01*
X129943116Y-118673421D01*
X130041179Y-118723387D01*
X130041181Y-118723387D01*
X130041184Y-118723389D01*
X130147545Y-118757948D01*
X130239610Y-118787862D01*
X130445676Y-118820500D01*
X130445681Y-118820500D01*
X130654324Y-118820500D01*
X130860389Y-118787862D01*
X131058816Y-118723389D01*
X131244714Y-118628670D01*
X131413505Y-118506035D01*
X131561035Y-118358505D01*
X131683670Y-118189714D01*
X131689515Y-118178243D01*
X131737489Y-118127447D01*
X131805310Y-118110651D01*
X131871445Y-118133188D01*
X131910485Y-118178243D01*
X131916328Y-118189712D01*
X131981670Y-118279646D01*
X132038965Y-118358505D01*
X132186495Y-118506035D01*
X132355286Y-118628670D01*
X132443116Y-118673421D01*
X132541179Y-118723387D01*
X132541181Y-118723387D01*
X132541184Y-118723389D01*
X132647545Y-118757948D01*
X132739610Y-118787862D01*
X132945676Y-118820500D01*
X132945681Y-118820500D01*
X133154324Y-118820500D01*
X133360389Y-118787862D01*
X133558816Y-118723389D01*
X133744714Y-118628670D01*
X133913505Y-118506035D01*
X134061035Y-118358505D01*
X134183670Y-118189714D01*
X134189515Y-118178243D01*
X134237489Y-118127447D01*
X134305310Y-118110651D01*
X134371445Y-118133188D01*
X134410485Y-118178243D01*
X134416328Y-118189712D01*
X134481670Y-118279646D01*
X134538965Y-118358505D01*
X134686495Y-118506035D01*
X134855286Y-118628670D01*
X134943116Y-118673421D01*
X135041179Y-118723387D01*
X135041181Y-118723387D01*
X135041184Y-118723389D01*
X135147545Y-118757948D01*
X135239610Y-118787862D01*
X135445676Y-118820500D01*
X135445681Y-118820500D01*
X135654324Y-118820500D01*
X135860389Y-118787862D01*
X136058816Y-118723389D01*
X136244714Y-118628670D01*
X136413505Y-118506035D01*
X136561035Y-118358505D01*
X136683670Y-118189714D01*
X136778389Y-118003816D01*
X136842862Y-117805389D01*
X136850395Y-117757826D01*
X136875500Y-117599324D01*
X136875500Y-117390679D01*
X136873984Y-117381107D01*
X136873984Y-117381104D01*
X136871683Y-117366577D01*
X144909500Y-117366577D01*
X144909500Y-117563422D01*
X144940290Y-117757826D01*
X145001117Y-117945029D01*
X145031071Y-118003816D01*
X145090476Y-118120405D01*
X145206172Y-118279646D01*
X145345354Y-118418828D01*
X145504595Y-118534524D01*
X145587455Y-118576743D01*
X145679970Y-118623882D01*
X145679972Y-118623882D01*
X145679975Y-118623884D01*
X145780317Y-118656487D01*
X145867173Y-118684709D01*
X146061578Y-118715500D01*
X146061583Y-118715500D01*
X146258422Y-118715500D01*
X146452826Y-118684709D01*
X146640025Y-118623884D01*
X146815405Y-118534524D01*
X146974646Y-118418828D01*
X147113828Y-118279646D01*
X147229524Y-118120405D01*
X147299515Y-117983038D01*
X147347489Y-117932243D01*
X147415310Y-117915448D01*
X147481445Y-117937985D01*
X147520484Y-117983038D01*
X147590476Y-118120405D01*
X147706172Y-118279646D01*
X147845354Y-118418828D01*
X148004595Y-118534524D01*
X148087455Y-118576743D01*
X148179970Y-118623882D01*
X148179972Y-118623882D01*
X148179975Y-118623884D01*
X148280317Y-118656487D01*
X148367173Y-118684709D01*
X148561578Y-118715500D01*
X148561583Y-118715500D01*
X148758422Y-118715500D01*
X148952826Y-118684709D01*
X149140025Y-118623884D01*
X149315405Y-118534524D01*
X149474646Y-118418828D01*
X149613828Y-118279646D01*
X149729524Y-118120405D01*
X149799515Y-117983038D01*
X149847489Y-117932243D01*
X149915310Y-117915448D01*
X149981445Y-117937985D01*
X150020484Y-117983038D01*
X150090476Y-118120405D01*
X150206172Y-118279646D01*
X150345354Y-118418828D01*
X150504595Y-118534524D01*
X150587455Y-118576743D01*
X150679970Y-118623882D01*
X150679972Y-118623882D01*
X150679975Y-118623884D01*
X150780317Y-118656487D01*
X150867173Y-118684709D01*
X151061578Y-118715500D01*
X151061583Y-118715500D01*
X151258422Y-118715500D01*
X151452826Y-118684709D01*
X151640025Y-118623884D01*
X151815405Y-118534524D01*
X151974646Y-118418828D01*
X152113828Y-118279646D01*
X152229524Y-118120405D01*
X152318884Y-117945025D01*
X152379709Y-117757826D01*
X152403360Y-117608500D01*
X152410500Y-117563422D01*
X152410500Y-117366577D01*
X152379709Y-117172173D01*
X152328494Y-117014551D01*
X152318884Y-116984975D01*
X152318882Y-116984972D01*
X152318882Y-116984970D01*
X152256508Y-116862554D01*
X152229524Y-116809595D01*
X152113828Y-116650354D01*
X151974646Y-116511172D01*
X151815405Y-116395476D01*
X151640029Y-116306117D01*
X151452826Y-116245290D01*
X151258422Y-116214500D01*
X151258417Y-116214500D01*
X151061583Y-116214500D01*
X151061578Y-116214500D01*
X150867173Y-116245290D01*
X150679970Y-116306117D01*
X150504594Y-116395476D01*
X150420717Y-116456417D01*
X150345354Y-116511172D01*
X150345352Y-116511174D01*
X150345351Y-116511174D01*
X150206174Y-116650351D01*
X150206174Y-116650352D01*
X150206172Y-116650354D01*
X150156485Y-116718741D01*
X150090476Y-116809594D01*
X150020485Y-116946960D01*
X149972510Y-116997756D01*
X149904689Y-117014551D01*
X149838554Y-116992014D01*
X149799515Y-116946960D01*
X149756508Y-116862554D01*
X149729524Y-116809595D01*
X149613828Y-116650354D01*
X149474646Y-116511172D01*
X149315405Y-116395476D01*
X149140029Y-116306117D01*
X148952826Y-116245290D01*
X148758422Y-116214500D01*
X148758417Y-116214500D01*
X148561583Y-116214500D01*
X148561578Y-116214500D01*
X148367173Y-116245290D01*
X148179970Y-116306117D01*
X148004594Y-116395476D01*
X147920717Y-116456417D01*
X147845354Y-116511172D01*
X147845352Y-116511174D01*
X147845351Y-116511174D01*
X147706174Y-116650351D01*
X147706174Y-116650352D01*
X147706172Y-116650354D01*
X147656485Y-116718741D01*
X147590476Y-116809594D01*
X147520485Y-116946960D01*
X147472510Y-116997756D01*
X147404689Y-117014551D01*
X147338554Y-116992014D01*
X147299515Y-116946960D01*
X147256508Y-116862554D01*
X147229524Y-116809595D01*
X147113828Y-116650354D01*
X146974646Y-116511172D01*
X146815405Y-116395476D01*
X146640029Y-116306117D01*
X146452826Y-116245290D01*
X146258422Y-116214500D01*
X146258417Y-116214500D01*
X146061583Y-116214500D01*
X146061578Y-116214500D01*
X145867173Y-116245290D01*
X145679970Y-116306117D01*
X145504594Y-116395476D01*
X145420717Y-116456417D01*
X145345354Y-116511172D01*
X145345352Y-116511174D01*
X145345351Y-116511174D01*
X145206174Y-116650351D01*
X145206174Y-116650352D01*
X145206172Y-116650354D01*
X145156485Y-116718741D01*
X145090476Y-116809594D01*
X145001117Y-116984970D01*
X144940290Y-117172173D01*
X144909500Y-117366577D01*
X136871683Y-117366577D01*
X136842862Y-117184610D01*
X136787606Y-117014551D01*
X136778389Y-116986184D01*
X136778387Y-116986181D01*
X136778387Y-116986179D01*
X136702899Y-116838025D01*
X136683670Y-116800286D01*
X136561035Y-116631495D01*
X136413505Y-116483965D01*
X136244714Y-116361330D01*
X136058820Y-116266612D01*
X135860389Y-116202137D01*
X135654324Y-116169500D01*
X135654319Y-116169500D01*
X135445681Y-116169500D01*
X135445676Y-116169500D01*
X135239610Y-116202137D01*
X135041179Y-116266612D01*
X134855285Y-116361330D01*
X134686493Y-116483966D01*
X134538966Y-116631493D01*
X134416330Y-116800286D01*
X134410484Y-116811759D01*
X134362508Y-116862554D01*
X134294687Y-116879348D01*
X134228553Y-116856809D01*
X134189516Y-116811759D01*
X134188303Y-116809380D01*
X134183670Y-116800286D01*
X134061035Y-116631495D01*
X133913505Y-116483965D01*
X133744714Y-116361330D01*
X133558820Y-116266612D01*
X133360389Y-116202137D01*
X133154324Y-116169500D01*
X133154319Y-116169500D01*
X132945681Y-116169500D01*
X132945676Y-116169500D01*
X132739610Y-116202137D01*
X132541179Y-116266612D01*
X132355285Y-116361330D01*
X132186493Y-116483966D01*
X132038966Y-116631493D01*
X131916330Y-116800286D01*
X131910484Y-116811759D01*
X131862508Y-116862554D01*
X131794687Y-116879348D01*
X131728553Y-116856809D01*
X131689516Y-116811759D01*
X131688303Y-116809380D01*
X131683670Y-116800286D01*
X131561035Y-116631495D01*
X131413505Y-116483965D01*
X131244714Y-116361330D01*
X131058820Y-116266612D01*
X130860389Y-116202137D01*
X130654324Y-116169500D01*
X130654319Y-116169500D01*
X130445681Y-116169500D01*
X130445676Y-116169500D01*
X130239610Y-116202137D01*
X130041179Y-116266612D01*
X129855285Y-116361330D01*
X129686493Y-116483966D01*
X129538966Y-116631493D01*
X129416330Y-116800286D01*
X129410484Y-116811759D01*
X129362508Y-116862554D01*
X129294687Y-116879348D01*
X129228553Y-116856809D01*
X129189516Y-116811759D01*
X129188303Y-116809380D01*
X129183670Y-116800286D01*
X129061035Y-116631495D01*
X128913505Y-116483965D01*
X128744714Y-116361330D01*
X128558820Y-116266612D01*
X128360389Y-116202137D01*
X128154324Y-116169500D01*
X128154319Y-116169500D01*
X127945681Y-116169500D01*
X127945676Y-116169500D01*
X127739610Y-116202137D01*
X127541179Y-116266612D01*
X127355285Y-116361330D01*
X127186493Y-116483966D01*
X127038966Y-116631493D01*
X126916330Y-116800285D01*
X126821612Y-116986179D01*
X126757137Y-117184610D01*
X126724500Y-117390675D01*
X123390000Y-117390675D01*
X123390000Y-109361900D01*
X123409685Y-109294861D01*
X123462489Y-109249106D01*
X123531647Y-109239162D01*
X123586885Y-109261582D01*
X123604505Y-109274384D01*
X123617284Y-109283669D01*
X123803179Y-109378387D01*
X123803181Y-109378387D01*
X123803184Y-109378389D01*
X123909545Y-109412948D01*
X124001610Y-109442862D01*
X124207676Y-109475500D01*
X124207681Y-109475500D01*
X124416324Y-109475500D01*
X124622389Y-109442862D01*
X124820816Y-109378389D01*
X125006714Y-109283670D01*
X125175505Y-109161035D01*
X125323035Y-109013505D01*
X125445670Y-108844714D01*
X125540389Y-108658816D01*
X125604862Y-108460389D01*
X125637500Y-108254324D01*
X125637500Y-108045675D01*
X125604862Y-107839610D01*
X125540387Y-107641179D01*
X125445669Y-107455285D01*
X125323035Y-107286495D01*
X125175505Y-107138965D01*
X125109501Y-107091010D01*
X125066838Y-107035682D01*
X125060859Y-106966068D01*
X125093465Y-106904273D01*
X125109496Y-106890382D01*
X125175505Y-106842424D01*
X125323035Y-106694894D01*
X125445670Y-106526103D01*
X125540389Y-106340205D01*
X125604862Y-106141778D01*
X125637500Y-105935713D01*
X125637500Y-105727064D01*
X125604862Y-105520999D01*
X125540387Y-105322568D01*
X125445669Y-105136674D01*
X125323035Y-104967884D01*
X125175505Y-104820354D01*
X125109501Y-104772399D01*
X125066838Y-104717071D01*
X125060859Y-104647457D01*
X125093465Y-104585662D01*
X125109496Y-104571771D01*
X125175505Y-104523813D01*
X125323035Y-104376283D01*
X125445670Y-104207492D01*
X125540389Y-104021594D01*
X125604862Y-103823167D01*
X125637500Y-103617102D01*
X125637500Y-103408453D01*
X125604862Y-103202388D01*
X125540387Y-103003957D01*
X125445669Y-102818063D01*
X125323035Y-102649273D01*
X125175505Y-102501743D01*
X125006714Y-102379108D01*
X124820820Y-102284390D01*
X124622389Y-102219915D01*
X124416324Y-102187278D01*
X124416319Y-102187278D01*
X124207681Y-102187278D01*
X124207676Y-102187278D01*
X124001610Y-102219915D01*
X123803179Y-102284390D01*
X123617285Y-102379108D01*
X123586886Y-102401195D01*
X123521079Y-102424675D01*
X123453025Y-102408850D01*
X123404330Y-102358744D01*
X123390000Y-102300877D01*
X123390000Y-99261362D01*
X123409685Y-99194323D01*
X123426319Y-99173681D01*
X123753681Y-98846319D01*
X123815004Y-98812834D01*
X123841362Y-98810000D01*
X129796850Y-98810000D01*
X129863889Y-98829685D01*
G37*
%TD.AperFunction*%
%TD*%
%TA.AperFunction,Conductor*%
%TO.N,/PACK+_RAW*%
G36*
X167985677Y-98789685D02*
G01*
X168006319Y-98806319D01*
X168193681Y-98993681D01*
X168227166Y-99055004D01*
X168230000Y-99081362D01*
X168230000Y-103318638D01*
X168210315Y-103385677D01*
X168193681Y-103406319D01*
X167946319Y-103653681D01*
X167884996Y-103687166D01*
X167858638Y-103690000D01*
X147881362Y-103690000D01*
X147814323Y-103670315D01*
X147793681Y-103653681D01*
X147546319Y-103406319D01*
X147512834Y-103344996D01*
X147510000Y-103318638D01*
X147510000Y-101353634D01*
X157096500Y-101353634D01*
X157096500Y-101586365D01*
X157096501Y-101586382D01*
X157126878Y-101817122D01*
X157187120Y-102041947D01*
X157276180Y-102256960D01*
X157276188Y-102256976D01*
X157392553Y-102458524D01*
X157392564Y-102458540D01*
X157534242Y-102643179D01*
X157534248Y-102643186D01*
X157698813Y-102807751D01*
X157698819Y-102807756D01*
X157883468Y-102949442D01*
X157883475Y-102949446D01*
X158085023Y-103065811D01*
X158085039Y-103065819D01*
X158300052Y-103154879D01*
X158300054Y-103154879D01*
X158300060Y-103154882D01*
X158524874Y-103215121D01*
X158755628Y-103245500D01*
X158755635Y-103245500D01*
X158988365Y-103245500D01*
X158988372Y-103245500D01*
X159219126Y-103215121D01*
X159443940Y-103154882D01*
X159501953Y-103130852D01*
X159658960Y-103065819D01*
X159658963Y-103065817D01*
X159658969Y-103065815D01*
X159860532Y-102949442D01*
X160045181Y-102807756D01*
X160209756Y-102643181D01*
X160351442Y-102458532D01*
X160467815Y-102256969D01*
X160556882Y-102041940D01*
X160617121Y-101817126D01*
X160647500Y-101586372D01*
X160647500Y-101353628D01*
X160617121Y-101122874D01*
X160556882Y-100898060D01*
X160556879Y-100898052D01*
X160467819Y-100683039D01*
X160467811Y-100683023D01*
X160351446Y-100481475D01*
X160351442Y-100481468D01*
X160209756Y-100296819D01*
X160209751Y-100296813D01*
X160045186Y-100132248D01*
X160045179Y-100132242D01*
X159860540Y-99990564D01*
X159860538Y-99990562D01*
X159860532Y-99990558D01*
X159860527Y-99990555D01*
X159860524Y-99990553D01*
X159658976Y-99874188D01*
X159658960Y-99874180D01*
X159443947Y-99785120D01*
X159219122Y-99724878D01*
X158988382Y-99694501D01*
X158988377Y-99694500D01*
X158988372Y-99694500D01*
X158755628Y-99694500D01*
X158755622Y-99694500D01*
X158755617Y-99694501D01*
X158524877Y-99724878D01*
X158300052Y-99785120D01*
X158085039Y-99874180D01*
X158085023Y-99874188D01*
X157883475Y-99990553D01*
X157883459Y-99990564D01*
X157698820Y-100132242D01*
X157698813Y-100132248D01*
X157534248Y-100296813D01*
X157534242Y-100296820D01*
X157392564Y-100481459D01*
X157392553Y-100481475D01*
X157276188Y-100683023D01*
X157276180Y-100683039D01*
X157187120Y-100898052D01*
X157126878Y-101122877D01*
X157096501Y-101353617D01*
X157096500Y-101353634D01*
X147510000Y-101353634D01*
X147510000Y-99081362D01*
X147529685Y-99014323D01*
X147546319Y-98993681D01*
X147733681Y-98806319D01*
X147795004Y-98772834D01*
X147821362Y-98770000D01*
X167918638Y-98770000D01*
X167985677Y-98789685D01*
G37*
%TD.AperFunction*%
%TD*%
%TA.AperFunction,Conductor*%
%TO.N,/+BATT*%
G36*
X158226220Y-104479685D02*
G01*
X158271975Y-104532489D01*
X158281919Y-104601647D01*
X158252894Y-104665203D01*
X158206633Y-104698561D01*
X158053039Y-104762180D01*
X158053023Y-104762188D01*
X157851475Y-104878553D01*
X157851459Y-104878564D01*
X157666820Y-105020242D01*
X157666813Y-105020248D01*
X157502248Y-105184813D01*
X157502242Y-105184820D01*
X157360564Y-105369459D01*
X157360553Y-105369475D01*
X157244188Y-105571023D01*
X157244180Y-105571039D01*
X157155120Y-105786052D01*
X157094878Y-106010877D01*
X157064501Y-106241617D01*
X157064500Y-106241634D01*
X157064500Y-106474365D01*
X157064501Y-106474382D01*
X157094878Y-106705122D01*
X157155120Y-106929947D01*
X157244180Y-107144960D01*
X157244188Y-107144976D01*
X157360553Y-107346524D01*
X157360564Y-107346540D01*
X157502242Y-107531179D01*
X157502248Y-107531186D01*
X157666813Y-107695751D01*
X157666819Y-107695756D01*
X157851468Y-107837442D01*
X157851475Y-107837446D01*
X158053023Y-107953811D01*
X158053039Y-107953819D01*
X158268052Y-108042879D01*
X158268054Y-108042879D01*
X158268060Y-108042882D01*
X158492874Y-108103121D01*
X158723628Y-108133500D01*
X158723635Y-108133500D01*
X158956365Y-108133500D01*
X158956372Y-108133500D01*
X159187126Y-108103121D01*
X159411940Y-108042882D01*
X159469953Y-108018852D01*
X159626960Y-107953819D01*
X159626963Y-107953817D01*
X159626969Y-107953815D01*
X159828532Y-107837442D01*
X160013181Y-107695756D01*
X160177756Y-107531181D01*
X160319442Y-107346532D01*
X160435815Y-107144969D01*
X160524882Y-106929940D01*
X160585121Y-106705126D01*
X160615500Y-106474372D01*
X160615500Y-106241628D01*
X160585121Y-106010874D01*
X160524882Y-105786060D01*
X160524879Y-105786052D01*
X160435819Y-105571039D01*
X160435811Y-105571023D01*
X160319446Y-105369475D01*
X160319442Y-105369468D01*
X160177756Y-105184819D01*
X160177751Y-105184813D01*
X160013186Y-105020248D01*
X160013179Y-105020242D01*
X159828540Y-104878564D01*
X159828538Y-104878562D01*
X159828532Y-104878558D01*
X159828527Y-104878555D01*
X159828524Y-104878553D01*
X159626976Y-104762188D01*
X159626960Y-104762180D01*
X159473367Y-104698561D01*
X159418963Y-104654720D01*
X159396898Y-104588426D01*
X159414177Y-104520727D01*
X159465314Y-104473116D01*
X159520819Y-104460000D01*
X167698638Y-104460000D01*
X167765677Y-104479685D01*
X167786319Y-104496319D01*
X168153681Y-104863681D01*
X168187166Y-104925004D01*
X168190000Y-104951362D01*
X168190000Y-115736562D01*
X168170315Y-115803601D01*
X168117511Y-115849356D01*
X168048353Y-115859300D01*
X167984797Y-115830275D01*
X167955515Y-115792857D01*
X167909523Y-115702594D01*
X167793828Y-115543354D01*
X167654646Y-115404172D01*
X167495405Y-115288476D01*
X167320029Y-115199117D01*
X167132826Y-115138290D01*
X166938422Y-115107500D01*
X166938417Y-115107500D01*
X166741583Y-115107500D01*
X166741578Y-115107500D01*
X166547173Y-115138290D01*
X166359970Y-115199117D01*
X166184594Y-115288476D01*
X166093741Y-115354485D01*
X166025354Y-115404172D01*
X166025352Y-115404174D01*
X166025351Y-115404174D01*
X165886174Y-115543351D01*
X165886174Y-115543352D01*
X165886172Y-115543354D01*
X165836485Y-115611741D01*
X165770476Y-115702594D01*
X165681117Y-115877970D01*
X165620290Y-116065173D01*
X165589500Y-116259577D01*
X165589500Y-116456422D01*
X165620290Y-116650826D01*
X165681117Y-116838029D01*
X165753285Y-116979666D01*
X165770476Y-117013405D01*
X165886172Y-117172646D01*
X166025354Y-117311828D01*
X166184595Y-117427524D01*
X166256582Y-117464203D01*
X166359970Y-117516882D01*
X166359972Y-117516882D01*
X166359975Y-117516884D01*
X166460317Y-117549487D01*
X166547173Y-117577709D01*
X166741578Y-117608500D01*
X166741583Y-117608500D01*
X166938422Y-117608500D01*
X167132826Y-117577709D01*
X167154425Y-117570691D01*
X167320025Y-117516884D01*
X167495405Y-117427524D01*
X167654646Y-117311828D01*
X167793828Y-117172646D01*
X167909524Y-117013405D01*
X167955515Y-116923141D01*
X168003489Y-116872346D01*
X168071310Y-116855551D01*
X168137445Y-116878088D01*
X168180897Y-116932803D01*
X168190000Y-116979437D01*
X168190000Y-120178638D01*
X168170315Y-120245677D01*
X168153681Y-120266319D01*
X167716819Y-120703181D01*
X167655496Y-120736666D01*
X167629138Y-120739500D01*
X158650862Y-120739500D01*
X158583823Y-120719815D01*
X158563181Y-120703181D01*
X157582563Y-119722563D01*
X157554063Y-119678217D01*
X157540832Y-119642743D01*
X157507347Y-119581420D01*
X157421123Y-119466239D01*
X157421118Y-119466234D01*
X157421113Y-119466228D01*
X155775065Y-117820181D01*
X155741580Y-117758858D01*
X155746564Y-117689166D01*
X155788436Y-117633233D01*
X155853900Y-117608816D01*
X155862746Y-117608500D01*
X155938422Y-117608500D01*
X156132826Y-117577709D01*
X156154425Y-117570691D01*
X156320025Y-117516884D01*
X156495405Y-117427524D01*
X156654646Y-117311828D01*
X156793828Y-117172646D01*
X156909524Y-117013405D01*
X156998884Y-116838025D01*
X157059709Y-116650826D01*
X157090251Y-116457992D01*
X157090500Y-116456422D01*
X157090500Y-116259577D01*
X157059709Y-116065173D01*
X156998882Y-115877970D01*
X156909523Y-115702594D01*
X156793828Y-115543354D01*
X156654646Y-115404172D01*
X156495405Y-115288476D01*
X156320029Y-115199117D01*
X156132826Y-115138290D01*
X155938422Y-115107500D01*
X155938417Y-115107500D01*
X155741583Y-115107500D01*
X155741578Y-115107500D01*
X155547173Y-115138290D01*
X155359970Y-115199117D01*
X155184594Y-115288476D01*
X155093741Y-115354485D01*
X155025354Y-115404172D01*
X155025352Y-115404174D01*
X155025351Y-115404174D01*
X154886174Y-115543351D01*
X154886174Y-115543352D01*
X154886172Y-115543354D01*
X154836485Y-115611741D01*
X154770476Y-115702594D01*
X154681117Y-115877970D01*
X154620290Y-116065173D01*
X154589500Y-116259577D01*
X154589500Y-116335254D01*
X154569815Y-116402293D01*
X154517011Y-116448048D01*
X154447853Y-116457992D01*
X154384297Y-116428967D01*
X154377819Y-116422935D01*
X147696319Y-109741435D01*
X147662834Y-109680112D01*
X147660000Y-109653754D01*
X147660000Y-104871362D01*
X147679685Y-104804323D01*
X147696319Y-104783681D01*
X147983681Y-104496319D01*
X148045004Y-104462834D01*
X148071362Y-104460000D01*
X158159181Y-104460000D01*
X158226220Y-104479685D01*
G37*
%TD.AperFunction*%
%TD*%
M02*
