M48
; DRILL file {KiCad 9.0.6} date 2026-08-10T19:18:37+0300
; FORMAT={-:-/ absolute / metric / decimal}
; #@! TF.CreationDate,2026-08-10T19:18:37+03:00
; #@! TF.GenerationSoftware,Kicad,Pcbnew,9.0.6
; #@! TF.FileFunction,Plated,1,4,PTH
FMAT,2
METRIC
; #@! TA.AperFunction,Plated,PTH,ViaDrill
T1C0.300
; #@! TA.AperFunction,Plated,PTH,ComponentDrill
T2C1.000
; #@! TA.AperFunction,Plated,PTH,ComponentDrill
T3C1.100
; #@! TA.AperFunction,Plated,PTH,ComponentDrill
T4C1.700
%
G90
G05
T1
X166.116Y-99.568
X166.116Y-100.584
X166.116Y-101.6
X166.116Y-102.525
X166.116Y-105.664
X166.116Y-106.68
X166.116Y-107.696
X166.116Y-108.712
X167.284Y-99.568
X167.284Y-100.584
X167.284Y-101.6
X167.284Y-102.525
X167.284Y-105.664
X167.284Y-106.68
X167.284Y-107.696
X167.284Y-108.712
T2
X135.471Y-99.7
X137.578Y-99.7
X139.685Y-99.7
X141.792Y-99.7
X143.66Y-117.465
X146.16Y-117.465
X148.66Y-117.465
X151.16Y-117.465
X155.84Y-116.358
X166.84Y-116.358
T3
X124.312Y-103.513
X124.312Y-105.831
X124.312Y-108.15
X124.312Y-110.469
X125.55Y-117.495
X128.05Y-117.495
X130.55Y-117.495
X131.032Y-99.7
X133.05Y-117.495
X133.289Y-99.7
X135.55Y-117.495
X138.05Y-117.495
T4
X158.84Y-106.358
X158.872Y-101.47
X163.492Y-101.47
X163.84Y-106.358
M30
