M48
; DRILL file {KiCad 9.0.6} date 2026-08-07T10:11:56+0300
; FORMAT={-:-/ absolute / metric / decimal}
; #@! TF.CreationDate,2026-08-07T10:11:56+03:00
; #@! TF.GenerationSoftware,Kicad,Pcbnew,9.0.6
; #@! TF.FileFunction,Plated,1,2,PTH
FMAT,2
METRIC
; #@! TA.AperFunction,Plated,PTH,ComponentDrill
T1C1.000
; #@! TA.AperFunction,Plated,PTH,ComponentDrill
T2C1.100
; #@! TA.AperFunction,Plated,PTH,ComponentDrill
T3C1.200
; #@! TA.AperFunction,Plated,PTH,ComponentDrill
T4C1.700
%
G90
G05
T1
X135.471Y-99.7
X137.578Y-99.7
X139.685Y-99.7
X141.792Y-99.7
X143.66Y-117.465
X146.16Y-117.465
X148.66Y-117.465
X151.16Y-117.465
X155.84Y-116.358
X166.84Y-116.358
T2
X124.312Y-103.513
X124.312Y-105.831
X124.312Y-108.15
X124.312Y-110.469
X125.55Y-117.495
X128.05Y-117.495
X130.55Y-117.495
X131.032Y-99.7
X133.05Y-117.495
X133.289Y-99.7
X135.55Y-117.495
X138.05Y-117.495
T3
X151.827Y-102.593
X151.827Y-107.692
T4
X158.84Y-106.358
X158.872Y-101.47
X163.492Y-101.47
X163.84Y-106.358
M30
