M48
; DRILL file {KiCad 9.0.6} date 2026-08-17T12:17:35+0300
; FORMAT={-:-/ absolute / metric / decimal}
; #@! TF.CreationDate,2026-08-17T12:17:35+03:00
; #@! TF.GenerationSoftware,Kicad,Pcbnew,9.0.6
; #@! TF.FileFunction,Plated,1,4,PTH
FMAT,2
METRIC
; #@! TA.AperFunction,Plated,PTH,ViaDrill
T1C0.300
; #@! TA.AperFunction,Plated,PTH,ComponentDrill
T2C1.000
; #@! TA.AperFunction,Plated,PTH,ComponentDrill
T3C1.100
; #@! TA.AperFunction,Plated,PTH,ComponentDrill
T4C1.700
%
G90
G05
T1
X149.86Y-99.06
X149.86Y-100.33
X149.86Y-101.6
X149.86Y-102.87
X152.4Y-99.06
X152.4Y-100.33
X152.4Y-101.6
X152.4Y-102.87
X154.94Y-99.06
X154.94Y-100.33
X154.94Y-101.71
X154.94Y-102.87
X157.48Y-109.22
X157.48Y-111.76
X157.48Y-114.3
X160.02Y-109.22
X160.02Y-111.76
X160.02Y-114.3
X162.56Y-109.22
X162.56Y-111.76
X162.56Y-114.3
X165.1Y-109.22
X165.1Y-111.76
X165.1Y-114.3
T2
X135.471Y-99.7
X137.578Y-99.7
X139.685Y-99.7
X141.792Y-99.7
X143.66Y-117.465
X146.16Y-117.465
X148.66Y-117.465
X151.16Y-117.465
X155.84Y-116.358
X166.84Y-116.358
T3
X124.312Y-103.513
X124.312Y-105.831
X124.312Y-108.15
X124.312Y-110.469
X125.55Y-117.495
X128.05Y-117.495
X130.55Y-117.495
X131.032Y-99.7
X133.05Y-117.495
X133.289Y-99.7
X135.55Y-117.495
X138.05Y-117.495
T4
X158.84Y-106.358
X158.872Y-101.47
X163.492Y-101.47
X163.84Y-106.358
M30
