%TF.GenerationSoftware,KiCad,Pcbnew,9.0.6*%
%TF.CreationDate,2026-08-17T12:17:31+03:00*%
%TF.ProjectId,BIFROST-3S,42494652-4f53-4542-9d33-532e6b696361,rev?*%
%TF.SameCoordinates,Original*%
%TF.FileFunction,Copper,L3,Inr*%
%TF.FilePolarity,Positive*%
%FSLAX46Y46*%
G04 Gerber Fmt 4.6, Leading zero omitted, Abs format (unit mm)*
G04 Created by KiCad (PCBNEW 9.0.6) date 2026-08-17 12:17:31*
%MOMM*%
%LPD*%
G01*
G04 APERTURE LIST*
%TA.AperFunction,ComponentPad*%
%ADD10C,1.500000*%
%TD*%
%TA.AperFunction,ComponentPad*%
%ADD11C,2.550000*%
%TD*%
%TA.AperFunction,ComponentPad*%
%ADD12R,1.650000X1.650000*%
%TD*%
%TA.AperFunction,ComponentPad*%
%ADD13C,1.650000*%
%TD*%
%TA.AperFunction,ViaPad*%
%ADD14C,0.400000*%
%TD*%
G04 APERTURE END LIST*
D10*
%TO.N,/BQ2_TS1*%
%TO.C,J3*%
X143660000Y-117465000D03*
%TO.N,/BQ2_TS2*%
X146160000Y-117465000D03*
%TO.N,/BQ2_TS3*%
X148660000Y-117465000D03*
%TO.N,GND*%
X151160000Y-117465000D03*
%TD*%
D11*
%TO.N,/+BATT*%
%TO.C,J4*%
X163840000Y-106358000D03*
%TO.N,GND*%
X158840000Y-106358000D03*
D10*
%TO.N,unconnected-(J4-Pad3)*%
X155840000Y-116358000D03*
%TO.N,unconnected-(J4-Pad4)*%
X166840000Y-116358000D03*
%TD*%
D12*
%TO.N,GND*%
%TO.C,J1*%
X125550000Y-117495000D03*
D13*
%TO.N,/BAT1*%
X128050000Y-117495000D03*
%TO.N,/BAT2*%
X130550000Y-117495000D03*
%TO.N,/BAT3{slash}PACK+*%
X133050000Y-117495000D03*
%TO.N,/BQ_TS*%
X135550000Y-117495000D03*
%TO.N,GND*%
X138050000Y-117495000D03*
%TD*%
%TO.N,GND*%
%TO.C,J2*%
X124312000Y-110468611D03*
%TO.N,/BAT1*%
X124312000Y-108150000D03*
%TO.N,/BAT2*%
X124312000Y-105831389D03*
%TO.N,/BAT3{slash}PACK+*%
X124312000Y-103512778D03*
%TO.N,/BQ_TS*%
X131032000Y-99700000D03*
%TO.N,GND*%
X133289000Y-99700000D03*
D10*
%TO.N,/BQ2_TS1*%
X135471000Y-99700000D03*
%TO.N,/BQ2_TS2*%
X137578000Y-99700000D03*
%TO.N,/BQ2_TS3*%
X139685000Y-99700000D03*
%TO.N,GND*%
X141792000Y-99700000D03*
D11*
X158872000Y-101470000D03*
%TO.N,/PACK+_RAW*%
X163492000Y-101470000D03*
%TD*%
D14*
%TO.N,/+BATT*%
X157480000Y-111760000D03*
X162560000Y-114300000D03*
X162560000Y-109220000D03*
X160020000Y-109220000D03*
X160020000Y-111760000D03*
X157480000Y-109220000D03*
X165100000Y-114300000D03*
X165100000Y-111760000D03*
X165100000Y-109220000D03*
X160020000Y-114300000D03*
X162560000Y-111760000D03*
X157480000Y-114300000D03*
%TO.N,/PACK+_RAW*%
X152400000Y-100330000D03*
X154940000Y-102870000D03*
X154940000Y-100330000D03*
X149860000Y-102870000D03*
X152400000Y-99060000D03*
X149860000Y-99060000D03*
X149860000Y-100330000D03*
X152400000Y-102870000D03*
X154940000Y-101710000D03*
X152400000Y-101600000D03*
X149860000Y-101600000D03*
X154940000Y-99060000D03*
%TD*%
%TA.AperFunction,Conductor*%
%TO.N,GND*%
G36*
X129871154Y-98819685D02*
G01*
X129916909Y-98872489D01*
X129926853Y-98941647D01*
X129904433Y-98996885D01*
X129898332Y-99005282D01*
X129803612Y-99191179D01*
X129739137Y-99389610D01*
X129706500Y-99595675D01*
X129706500Y-99804324D01*
X129739137Y-100010389D01*
X129803612Y-100208820D01*
X129878301Y-100355405D01*
X129898330Y-100394714D01*
X130020965Y-100563505D01*
X130168495Y-100711035D01*
X130337286Y-100833670D01*
X130422953Y-100877319D01*
X130523179Y-100928387D01*
X130523181Y-100928387D01*
X130523184Y-100928389D01*
X130592081Y-100950775D01*
X130721610Y-100992862D01*
X130927676Y-101025500D01*
X130927681Y-101025500D01*
X131136324Y-101025500D01*
X131342389Y-100992862D01*
X131384359Y-100979225D01*
X131540816Y-100928389D01*
X131726714Y-100833670D01*
X131895505Y-100711035D01*
X132043035Y-100563505D01*
X132165670Y-100394714D01*
X132260389Y-100208816D01*
X132324862Y-100010389D01*
X132344966Y-99883458D01*
X132357500Y-99804324D01*
X132357500Y-99595675D01*
X132324862Y-99389610D01*
X132260387Y-99191179D01*
X132226025Y-99123741D01*
X132165670Y-99005286D01*
X132164982Y-99004339D01*
X132159567Y-98996885D01*
X132136087Y-98931079D01*
X132151912Y-98863025D01*
X132202018Y-98814330D01*
X132259885Y-98800000D01*
X134335821Y-98800000D01*
X134402860Y-98819685D01*
X134448615Y-98872489D01*
X134458559Y-98941647D01*
X134436139Y-98996886D01*
X134401476Y-99044594D01*
X134312117Y-99219970D01*
X134251290Y-99407173D01*
X134220500Y-99601577D01*
X134220500Y-99798422D01*
X134251290Y-99992826D01*
X134312117Y-100180029D01*
X134401476Y-100355405D01*
X134517172Y-100514646D01*
X134656354Y-100653828D01*
X134815595Y-100769524D01*
X134829369Y-100776542D01*
X134990970Y-100858882D01*
X134990972Y-100858882D01*
X134990975Y-100858884D01*
X135037839Y-100874111D01*
X135178173Y-100919709D01*
X135372578Y-100950500D01*
X135372583Y-100950500D01*
X135569422Y-100950500D01*
X135763826Y-100919709D01*
X135830454Y-100898060D01*
X135951025Y-100858884D01*
X136126405Y-100769524D01*
X136285646Y-100653828D01*
X136424828Y-100514646D01*
X136424835Y-100514635D01*
X136427992Y-100510941D01*
X136429011Y-100511811D01*
X136479509Y-100472870D01*
X136549122Y-100466889D01*
X136610918Y-100499493D01*
X136620909Y-100511024D01*
X136621008Y-100510941D01*
X136624170Y-100514643D01*
X136624172Y-100514646D01*
X136763354Y-100653828D01*
X136922595Y-100769524D01*
X136936369Y-100776542D01*
X137097970Y-100858882D01*
X137097972Y-100858882D01*
X137097975Y-100858884D01*
X137144839Y-100874111D01*
X137285173Y-100919709D01*
X137479578Y-100950500D01*
X137479583Y-100950500D01*
X137676422Y-100950500D01*
X137870826Y-100919709D01*
X137937454Y-100898060D01*
X138058025Y-100858884D01*
X138233405Y-100769524D01*
X138392646Y-100653828D01*
X138531828Y-100514646D01*
X138531835Y-100514635D01*
X138534992Y-100510941D01*
X138536011Y-100511811D01*
X138586509Y-100472870D01*
X138656122Y-100466889D01*
X138717918Y-100499493D01*
X138727909Y-100511024D01*
X138728008Y-100510941D01*
X138731170Y-100514643D01*
X138731172Y-100514646D01*
X138870354Y-100653828D01*
X139029595Y-100769524D01*
X139043369Y-100776542D01*
X139204970Y-100858882D01*
X139204972Y-100858882D01*
X139204975Y-100858884D01*
X139251839Y-100874111D01*
X139392173Y-100919709D01*
X139586578Y-100950500D01*
X139586583Y-100950500D01*
X139783422Y-100950500D01*
X139977826Y-100919709D01*
X140044454Y-100898060D01*
X140165025Y-100858884D01*
X140340405Y-100769524D01*
X140499646Y-100653828D01*
X140638828Y-100514646D01*
X140754524Y-100355405D01*
X140843884Y-100180025D01*
X140904709Y-99992826D01*
X140922032Y-99883454D01*
X140935500Y-99798422D01*
X140935500Y-99601577D01*
X140904709Y-99407173D01*
X140876487Y-99320317D01*
X140843884Y-99219975D01*
X140843882Y-99219972D01*
X140843882Y-99219970D01*
X140754523Y-99044594D01*
X140719861Y-98996886D01*
X140696381Y-98931080D01*
X140712206Y-98863026D01*
X140762312Y-98814331D01*
X140820179Y-98800000D01*
X149046399Y-98800000D01*
X149113438Y-98819685D01*
X149159193Y-98872489D01*
X149169137Y-98941647D01*
X149168016Y-98948191D01*
X149159500Y-98991002D01*
X149159500Y-98991007D01*
X149159500Y-99128993D01*
X149159500Y-99128995D01*
X149159499Y-99128995D01*
X149186418Y-99264322D01*
X149186421Y-99264332D01*
X149239221Y-99391804D01*
X149239228Y-99391817D01*
X149315885Y-99506541D01*
X149315888Y-99506545D01*
X149416662Y-99607319D01*
X149450147Y-99668642D01*
X149445163Y-99738334D01*
X149416662Y-99782681D01*
X149315888Y-99883454D01*
X149315885Y-99883458D01*
X149239228Y-99998182D01*
X149239221Y-99998195D01*
X149186421Y-100125667D01*
X149186418Y-100125677D01*
X149159500Y-100261004D01*
X149159500Y-100261007D01*
X149159500Y-100398993D01*
X149159500Y-100398995D01*
X149159499Y-100398995D01*
X149186418Y-100534322D01*
X149186421Y-100534332D01*
X149239221Y-100661804D01*
X149239228Y-100661817D01*
X149315885Y-100776541D01*
X149315888Y-100776545D01*
X149416662Y-100877319D01*
X149450147Y-100938642D01*
X149445163Y-101008334D01*
X149416662Y-101052681D01*
X149315888Y-101153454D01*
X149315885Y-101153458D01*
X149239228Y-101268182D01*
X149239221Y-101268195D01*
X149186421Y-101395667D01*
X149186418Y-101395677D01*
X149159500Y-101531004D01*
X149159500Y-101531007D01*
X149159500Y-101668993D01*
X149159500Y-101668995D01*
X149159499Y-101668995D01*
X149186418Y-101804322D01*
X149186421Y-101804332D01*
X149239221Y-101931804D01*
X149239228Y-101931817D01*
X149315885Y-102046541D01*
X149315888Y-102046545D01*
X149416662Y-102147319D01*
X149450147Y-102208642D01*
X149445163Y-102278334D01*
X149416662Y-102322681D01*
X149315888Y-102423454D01*
X149315885Y-102423458D01*
X149239228Y-102538182D01*
X149239221Y-102538195D01*
X149186421Y-102665667D01*
X149186418Y-102665677D01*
X149159500Y-102801004D01*
X149159500Y-102801007D01*
X149159500Y-102938993D01*
X149159500Y-102938995D01*
X149159499Y-102938995D01*
X149186418Y-103074322D01*
X149186421Y-103074332D01*
X149239221Y-103201804D01*
X149239228Y-103201817D01*
X149315885Y-103316541D01*
X149315888Y-103316545D01*
X149413454Y-103414111D01*
X149413458Y-103414114D01*
X149528182Y-103490771D01*
X149528195Y-103490778D01*
X149655667Y-103543578D01*
X149655672Y-103543580D01*
X149655676Y-103543580D01*
X149655677Y-103543581D01*
X149791004Y-103570500D01*
X149791007Y-103570500D01*
X149928995Y-103570500D01*
X150020041Y-103552389D01*
X150064328Y-103543580D01*
X150191811Y-103490775D01*
X150306542Y-103414114D01*
X150404114Y-103316542D01*
X150480775Y-103201811D01*
X150533580Y-103074328D01*
X150560500Y-102938993D01*
X150560500Y-102801007D01*
X150560500Y-102801004D01*
X150533581Y-102665677D01*
X150533580Y-102665676D01*
X150533580Y-102665672D01*
X150524263Y-102643179D01*
X150480778Y-102538195D01*
X150480771Y-102538182D01*
X150404114Y-102423458D01*
X150404111Y-102423454D01*
X150303338Y-102322681D01*
X150269853Y-102261358D01*
X150274837Y-102191666D01*
X150303338Y-102147319D01*
X150404111Y-102046545D01*
X150404114Y-102046542D01*
X150480775Y-101931811D01*
X150533580Y-101804328D01*
X150560500Y-101668993D01*
X150560500Y-101531007D01*
X150560500Y-101531004D01*
X150533581Y-101395677D01*
X150533580Y-101395676D01*
X150533580Y-101395672D01*
X150526338Y-101378189D01*
X150480778Y-101268195D01*
X150480771Y-101268182D01*
X150404114Y-101153458D01*
X150404111Y-101153454D01*
X150303338Y-101052681D01*
X150269853Y-100991358D01*
X150274837Y-100921666D01*
X150303338Y-100877319D01*
X150404111Y-100776545D01*
X150404114Y-100776542D01*
X150480775Y-100661811D01*
X150533580Y-100534328D01*
X150560500Y-100398993D01*
X150560500Y-100261007D01*
X150560500Y-100261004D01*
X150533581Y-100125677D01*
X150533580Y-100125676D01*
X150533580Y-100125672D01*
X150533578Y-100125667D01*
X150480778Y-99998195D01*
X150480771Y-99998182D01*
X150404114Y-99883458D01*
X150404111Y-99883454D01*
X150303338Y-99782681D01*
X150269853Y-99721358D01*
X150274837Y-99651666D01*
X150303338Y-99607319D01*
X150404111Y-99506545D01*
X150404114Y-99506542D01*
X150480775Y-99391811D01*
X150533580Y-99264328D01*
X150560500Y-99128993D01*
X150560500Y-98991007D01*
X150560500Y-98991004D01*
X150560499Y-98991002D01*
X150551984Y-98948191D01*
X150558211Y-98878600D01*
X150601074Y-98823422D01*
X150666964Y-98800178D01*
X150673601Y-98800000D01*
X151586399Y-98800000D01*
X151653438Y-98819685D01*
X151699193Y-98872489D01*
X151709137Y-98941647D01*
X151708016Y-98948191D01*
X151699500Y-98991002D01*
X151699500Y-98991007D01*
X151699500Y-99128993D01*
X151699500Y-99128995D01*
X151699499Y-99128995D01*
X151726418Y-99264322D01*
X151726421Y-99264332D01*
X151779221Y-99391804D01*
X151779228Y-99391817D01*
X151855885Y-99506541D01*
X151855888Y-99506545D01*
X151956662Y-99607319D01*
X151990147Y-99668642D01*
X151985163Y-99738334D01*
X151956662Y-99782681D01*
X151855888Y-99883454D01*
X151855885Y-99883458D01*
X151779228Y-99998182D01*
X151779221Y-99998195D01*
X151726421Y-100125667D01*
X151726418Y-100125677D01*
X151699500Y-100261004D01*
X151699500Y-100261007D01*
X151699500Y-100398993D01*
X151699500Y-100398995D01*
X151699499Y-100398995D01*
X151726418Y-100534322D01*
X151726421Y-100534332D01*
X151779221Y-100661804D01*
X151779228Y-100661817D01*
X151855885Y-100776541D01*
X151855888Y-100776545D01*
X151956662Y-100877319D01*
X151990147Y-100938642D01*
X151985163Y-101008334D01*
X151956662Y-101052681D01*
X151855888Y-101153454D01*
X151855885Y-101153458D01*
X151779228Y-101268182D01*
X151779221Y-101268195D01*
X151726421Y-101395667D01*
X151726418Y-101395677D01*
X151699500Y-101531004D01*
X151699500Y-101531007D01*
X151699500Y-101668993D01*
X151699500Y-101668995D01*
X151699499Y-101668995D01*
X151726418Y-101804322D01*
X151726421Y-101804332D01*
X151779221Y-101931804D01*
X151779228Y-101931817D01*
X151855885Y-102046541D01*
X151855888Y-102046545D01*
X151956662Y-102147319D01*
X151990147Y-102208642D01*
X151985163Y-102278334D01*
X151956662Y-102322681D01*
X151855888Y-102423454D01*
X151855885Y-102423458D01*
X151779228Y-102538182D01*
X151779221Y-102538195D01*
X151726421Y-102665667D01*
X151726418Y-102665677D01*
X151699500Y-102801004D01*
X151699500Y-102801007D01*
X151699500Y-102938993D01*
X151699500Y-102938995D01*
X151699499Y-102938995D01*
X151726418Y-103074322D01*
X151726421Y-103074332D01*
X151779221Y-103201804D01*
X151779228Y-103201817D01*
X151855885Y-103316541D01*
X151855888Y-103316545D01*
X151953454Y-103414111D01*
X151953458Y-103414114D01*
X152068182Y-103490771D01*
X152068195Y-103490778D01*
X152195667Y-103543578D01*
X152195672Y-103543580D01*
X152195676Y-103543580D01*
X152195677Y-103543581D01*
X152331004Y-103570500D01*
X152331007Y-103570500D01*
X152468995Y-103570500D01*
X152560041Y-103552389D01*
X152604328Y-103543580D01*
X152731811Y-103490775D01*
X152846542Y-103414114D01*
X152944114Y-103316542D01*
X153020775Y-103201811D01*
X153073580Y-103074328D01*
X153100500Y-102938993D01*
X153100500Y-102801007D01*
X153100500Y-102801004D01*
X153073581Y-102665677D01*
X153073580Y-102665676D01*
X153073580Y-102665672D01*
X153064263Y-102643179D01*
X153020778Y-102538195D01*
X153020771Y-102538182D01*
X152944114Y-102423458D01*
X152944111Y-102423454D01*
X152843338Y-102322681D01*
X152809853Y-102261358D01*
X152814837Y-102191666D01*
X152843338Y-102147319D01*
X152944111Y-102046545D01*
X152944114Y-102046542D01*
X153020775Y-101931811D01*
X153073580Y-101804328D01*
X153100500Y-101668993D01*
X153100500Y-101531007D01*
X153100500Y-101531004D01*
X153073581Y-101395677D01*
X153073580Y-101395676D01*
X153073580Y-101395672D01*
X153066338Y-101378189D01*
X153020778Y-101268195D01*
X153020771Y-101268182D01*
X152944114Y-101153458D01*
X152944111Y-101153454D01*
X152843338Y-101052681D01*
X152809853Y-100991358D01*
X152814837Y-100921666D01*
X152843338Y-100877319D01*
X152944111Y-100776545D01*
X152944114Y-100776542D01*
X153020775Y-100661811D01*
X153073580Y-100534328D01*
X153100500Y-100398993D01*
X153100500Y-100261007D01*
X153100500Y-100261004D01*
X153073581Y-100125677D01*
X153073580Y-100125676D01*
X153073580Y-100125672D01*
X153073578Y-100125667D01*
X153020778Y-99998195D01*
X153020771Y-99998182D01*
X152944114Y-99883458D01*
X152944111Y-99883454D01*
X152843338Y-99782681D01*
X152809853Y-99721358D01*
X152814837Y-99651666D01*
X152843338Y-99607319D01*
X152944111Y-99506545D01*
X152944114Y-99506542D01*
X153020775Y-99391811D01*
X153073580Y-99264328D01*
X153100500Y-99128993D01*
X153100500Y-98991007D01*
X153100500Y-98991004D01*
X153100499Y-98991002D01*
X153091984Y-98948191D01*
X153098211Y-98878600D01*
X153141074Y-98823422D01*
X153206964Y-98800178D01*
X153213601Y-98800000D01*
X154126399Y-98800000D01*
X154193438Y-98819685D01*
X154239193Y-98872489D01*
X154249137Y-98941647D01*
X154248016Y-98948191D01*
X154239500Y-98991002D01*
X154239500Y-98991007D01*
X154239500Y-99128993D01*
X154239500Y-99128995D01*
X154239499Y-99128995D01*
X154266418Y-99264322D01*
X154266421Y-99264332D01*
X154319221Y-99391804D01*
X154319228Y-99391817D01*
X154395885Y-99506541D01*
X154395888Y-99506545D01*
X154496662Y-99607319D01*
X154530147Y-99668642D01*
X154525163Y-99738334D01*
X154496662Y-99782681D01*
X154395888Y-99883454D01*
X154395885Y-99883458D01*
X154319228Y-99998182D01*
X154319221Y-99998195D01*
X154266421Y-100125667D01*
X154266418Y-100125677D01*
X154239500Y-100261004D01*
X154239500Y-100261007D01*
X154239500Y-100398993D01*
X154239500Y-100398995D01*
X154239499Y-100398995D01*
X154266418Y-100534322D01*
X154266421Y-100534332D01*
X154319221Y-100661804D01*
X154319228Y-100661817D01*
X154395885Y-100776541D01*
X154395888Y-100776545D01*
X154493454Y-100874111D01*
X154557488Y-100916898D01*
X154602292Y-100970511D01*
X154610999Y-101039836D01*
X154580844Y-101102863D01*
X154557488Y-101123102D01*
X154493454Y-101165888D01*
X154395888Y-101263454D01*
X154395885Y-101263458D01*
X154319228Y-101378182D01*
X154319221Y-101378195D01*
X154266421Y-101505667D01*
X154266418Y-101505677D01*
X154239500Y-101641004D01*
X154239500Y-101641007D01*
X154239500Y-101778993D01*
X154239500Y-101778995D01*
X154239499Y-101778995D01*
X154266418Y-101914322D01*
X154266421Y-101914332D01*
X154319221Y-102041804D01*
X154319228Y-102041817D01*
X154395885Y-102156541D01*
X154395888Y-102156545D01*
X154441662Y-102202319D01*
X154475147Y-102263642D01*
X154470163Y-102333334D01*
X154441662Y-102377681D01*
X154395888Y-102423454D01*
X154395885Y-102423458D01*
X154319228Y-102538182D01*
X154319221Y-102538195D01*
X154266421Y-102665667D01*
X154266418Y-102665677D01*
X154239500Y-102801004D01*
X154239500Y-102801007D01*
X154239500Y-102938993D01*
X154239500Y-102938995D01*
X154239499Y-102938995D01*
X154266418Y-103074322D01*
X154266421Y-103074332D01*
X154319221Y-103201804D01*
X154319228Y-103201817D01*
X154395885Y-103316541D01*
X154395888Y-103316545D01*
X154493454Y-103414111D01*
X154493458Y-103414114D01*
X154608182Y-103490771D01*
X154608195Y-103490778D01*
X154735667Y-103543578D01*
X154735672Y-103543580D01*
X154735676Y-103543580D01*
X154735677Y-103543581D01*
X154871004Y-103570500D01*
X154871007Y-103570500D01*
X155008995Y-103570500D01*
X155100041Y-103552389D01*
X155144328Y-103543580D01*
X155271811Y-103490775D01*
X155386542Y-103414114D01*
X155484114Y-103316542D01*
X155560775Y-103201811D01*
X155613580Y-103074328D01*
X155640500Y-102938993D01*
X155640500Y-102801007D01*
X155640500Y-102801004D01*
X155613581Y-102665677D01*
X155613580Y-102665676D01*
X155613580Y-102665672D01*
X155604263Y-102643179D01*
X155560778Y-102538195D01*
X155560771Y-102538182D01*
X155484114Y-102423458D01*
X155484111Y-102423454D01*
X155438338Y-102377681D01*
X155404853Y-102316358D01*
X155409837Y-102246666D01*
X155438338Y-102202319D01*
X155484111Y-102156545D01*
X155484114Y-102156542D01*
X155560775Y-102041811D01*
X155613580Y-101914328D01*
X155640500Y-101778993D01*
X155640500Y-101641007D01*
X155640500Y-101641004D01*
X155613581Y-101505677D01*
X155613580Y-101505676D01*
X155613580Y-101505672D01*
X155613578Y-101505667D01*
X155568576Y-101397021D01*
X155560778Y-101378195D01*
X155560771Y-101378182D01*
X155544368Y-101353634D01*
X161716500Y-101353634D01*
X161716500Y-101586365D01*
X161716501Y-101586382D01*
X161745194Y-101804332D01*
X161746879Y-101817126D01*
X161807083Y-102041811D01*
X161807120Y-102041947D01*
X161896180Y-102256960D01*
X161896188Y-102256976D01*
X162012553Y-102458524D01*
X162012564Y-102458540D01*
X162154242Y-102643179D01*
X162154248Y-102643186D01*
X162318813Y-102807751D01*
X162318820Y-102807757D01*
X162450303Y-102908647D01*
X162503468Y-102949442D01*
X162503475Y-102949446D01*
X162705023Y-103065811D01*
X162705039Y-103065819D01*
X162920052Y-103154879D01*
X162920054Y-103154879D01*
X162920060Y-103154882D01*
X163144874Y-103215121D01*
X163375628Y-103245500D01*
X163375635Y-103245500D01*
X163608365Y-103245500D01*
X163608372Y-103245500D01*
X163839126Y-103215121D01*
X164063940Y-103154882D01*
X164258417Y-103074328D01*
X164278960Y-103065819D01*
X164278963Y-103065817D01*
X164278969Y-103065815D01*
X164480532Y-102949442D01*
X164665181Y-102807756D01*
X164829756Y-102643181D01*
X164971442Y-102458532D01*
X165087815Y-102256969D01*
X165107833Y-102208642D01*
X165152852Y-102099953D01*
X165176882Y-102041940D01*
X165237121Y-101817126D01*
X165267500Y-101586372D01*
X165267500Y-101353628D01*
X165237121Y-101122874D01*
X165176882Y-100898060D01*
X165168291Y-100877319D01*
X165087819Y-100683039D01*
X165087811Y-100683023D01*
X164971446Y-100481475D01*
X164971442Y-100481468D01*
X164829756Y-100296819D01*
X164829751Y-100296813D01*
X164665186Y-100132248D01*
X164665179Y-100132242D01*
X164480540Y-99990564D01*
X164480538Y-99990562D01*
X164480532Y-99990558D01*
X164480527Y-99990555D01*
X164480524Y-99990553D01*
X164278976Y-99874188D01*
X164278960Y-99874180D01*
X164063947Y-99785120D01*
X163889340Y-99738334D01*
X163839126Y-99724879D01*
X163839125Y-99724878D01*
X163839122Y-99724878D01*
X163608382Y-99694501D01*
X163608377Y-99694500D01*
X163608372Y-99694500D01*
X163375628Y-99694500D01*
X163375622Y-99694500D01*
X163375617Y-99694501D01*
X163144877Y-99724878D01*
X162920052Y-99785120D01*
X162705039Y-99874180D01*
X162705023Y-99874188D01*
X162503475Y-99990553D01*
X162503459Y-99990564D01*
X162318820Y-100132242D01*
X162318813Y-100132248D01*
X162154248Y-100296813D01*
X162154242Y-100296820D01*
X162012564Y-100481459D01*
X162012553Y-100481475D01*
X161896188Y-100683023D01*
X161896180Y-100683039D01*
X161807120Y-100898052D01*
X161746878Y-101122877D01*
X161716501Y-101353617D01*
X161716500Y-101353634D01*
X155544368Y-101353634D01*
X155484114Y-101263458D01*
X155484111Y-101263454D01*
X155386545Y-101165888D01*
X155386541Y-101165885D01*
X155322512Y-101123102D01*
X155277707Y-101069490D01*
X155269000Y-101000165D01*
X155299155Y-100937137D01*
X155322512Y-100916898D01*
X155381745Y-100877319D01*
X155386542Y-100874114D01*
X155484114Y-100776542D01*
X155560775Y-100661811D01*
X155613580Y-100534328D01*
X155640500Y-100398993D01*
X155640500Y-100261007D01*
X155640500Y-100261004D01*
X155613581Y-100125677D01*
X155613580Y-100125676D01*
X155613580Y-100125672D01*
X155613578Y-100125667D01*
X155560778Y-99998195D01*
X155560771Y-99998182D01*
X155484114Y-99883458D01*
X155484111Y-99883454D01*
X155383338Y-99782681D01*
X155349853Y-99721358D01*
X155354837Y-99651666D01*
X155383338Y-99607319D01*
X155484111Y-99506545D01*
X155484114Y-99506542D01*
X155560775Y-99391811D01*
X155613580Y-99264328D01*
X155640500Y-99128993D01*
X155640500Y-98991007D01*
X155640500Y-98991004D01*
X155640499Y-98991002D01*
X155631984Y-98948191D01*
X155638211Y-98878600D01*
X155681074Y-98823422D01*
X155746964Y-98800178D01*
X155753601Y-98800000D01*
X168145500Y-98800000D01*
X168212539Y-98819685D01*
X168258294Y-98872489D01*
X168269500Y-98924000D01*
X168269500Y-115927939D01*
X168249815Y-115994978D01*
X168197011Y-116040733D01*
X168127853Y-116050677D01*
X168064297Y-116021652D01*
X168027569Y-115966258D01*
X167998882Y-115877970D01*
X167909523Y-115702594D01*
X167793828Y-115543354D01*
X167654646Y-115404172D01*
X167495405Y-115288476D01*
X167320029Y-115199117D01*
X167132826Y-115138290D01*
X166938422Y-115107500D01*
X166938417Y-115107500D01*
X166741583Y-115107500D01*
X166741578Y-115107500D01*
X166547173Y-115138290D01*
X166359970Y-115199117D01*
X166184594Y-115288476D01*
X166093741Y-115354485D01*
X166025354Y-115404172D01*
X166025352Y-115404174D01*
X166025351Y-115404174D01*
X165886174Y-115543351D01*
X165886174Y-115543352D01*
X165886172Y-115543354D01*
X165836485Y-115611741D01*
X165770476Y-115702594D01*
X165681117Y-115877970D01*
X165620290Y-116065173D01*
X165589500Y-116259577D01*
X165589500Y-116456422D01*
X165620290Y-116650826D01*
X165681117Y-116838029D01*
X165755988Y-116984970D01*
X165770476Y-117013405D01*
X165886172Y-117172646D01*
X166025354Y-117311828D01*
X166184595Y-117427524D01*
X166267455Y-117469743D01*
X166359970Y-117516882D01*
X166359972Y-117516882D01*
X166359975Y-117516884D01*
X166460317Y-117549487D01*
X166547173Y-117577709D01*
X166741578Y-117608500D01*
X166741583Y-117608500D01*
X166938422Y-117608500D01*
X167132826Y-117577709D01*
X167320025Y-117516884D01*
X167495405Y-117427524D01*
X167654646Y-117311828D01*
X167793828Y-117172646D01*
X167909524Y-117013405D01*
X167998884Y-116838025D01*
X168027569Y-116749739D01*
X168067007Y-116692066D01*
X168131366Y-116664868D01*
X168200212Y-116676783D01*
X168251688Y-116724027D01*
X168269500Y-116788060D01*
X168269500Y-120586000D01*
X168249815Y-120653039D01*
X168197011Y-120698794D01*
X168145500Y-120710000D01*
X123514000Y-120710000D01*
X123446961Y-120690315D01*
X123401206Y-120637511D01*
X123390000Y-120586000D01*
X123390000Y-117390675D01*
X126724500Y-117390675D01*
X126724500Y-117599324D01*
X126757137Y-117805389D01*
X126821612Y-118003820D01*
X126910485Y-118178243D01*
X126916330Y-118189714D01*
X127038965Y-118358505D01*
X127186495Y-118506035D01*
X127355286Y-118628670D01*
X127443116Y-118673421D01*
X127541179Y-118723387D01*
X127541181Y-118723387D01*
X127541184Y-118723389D01*
X127647545Y-118757948D01*
X127739610Y-118787862D01*
X127945676Y-118820500D01*
X127945681Y-118820500D01*
X128154324Y-118820500D01*
X128360389Y-118787862D01*
X128558816Y-118723389D01*
X128744714Y-118628670D01*
X128913505Y-118506035D01*
X129061035Y-118358505D01*
X129183670Y-118189714D01*
X129189515Y-118178243D01*
X129237489Y-118127447D01*
X129305310Y-118110651D01*
X129371445Y-118133188D01*
X129410485Y-118178243D01*
X129416328Y-118189712D01*
X129481670Y-118279646D01*
X129538965Y-118358505D01*
X129686495Y-118506035D01*
X129855286Y-118628670D01*
X129943116Y-118673421D01*
X130041179Y-118723387D01*
X130041181Y-118723387D01*
X130041184Y-118723389D01*
X130147545Y-118757948D01*
X130239610Y-118787862D01*
X130445676Y-118820500D01*
X130445681Y-118820500D01*
X130654324Y-118820500D01*
X130860389Y-118787862D01*
X131058816Y-118723389D01*
X131244714Y-118628670D01*
X131413505Y-118506035D01*
X131561035Y-118358505D01*
X131683670Y-118189714D01*
X131689515Y-118178243D01*
X131737489Y-118127447D01*
X131805310Y-118110651D01*
X131871445Y-118133188D01*
X131910485Y-118178243D01*
X131916328Y-118189712D01*
X131981670Y-118279646D01*
X132038965Y-118358505D01*
X132186495Y-118506035D01*
X132355286Y-118628670D01*
X132443116Y-118673421D01*
X132541179Y-118723387D01*
X132541181Y-118723387D01*
X132541184Y-118723389D01*
X132647545Y-118757948D01*
X132739610Y-118787862D01*
X132945676Y-118820500D01*
X132945681Y-118820500D01*
X133154324Y-118820500D01*
X133360389Y-118787862D01*
X133558816Y-118723389D01*
X133744714Y-118628670D01*
X133913505Y-118506035D01*
X134061035Y-118358505D01*
X134183670Y-118189714D01*
X134189515Y-118178243D01*
X134237489Y-118127447D01*
X134305310Y-118110651D01*
X134371445Y-118133188D01*
X134410485Y-118178243D01*
X134416328Y-118189712D01*
X134481670Y-118279646D01*
X134538965Y-118358505D01*
X134686495Y-118506035D01*
X134855286Y-118628670D01*
X134943116Y-118673421D01*
X135041179Y-118723387D01*
X135041181Y-118723387D01*
X135041184Y-118723389D01*
X135147545Y-118757948D01*
X135239610Y-118787862D01*
X135445676Y-118820500D01*
X135445681Y-118820500D01*
X135654324Y-118820500D01*
X135860389Y-118787862D01*
X136058816Y-118723389D01*
X136244714Y-118628670D01*
X136413505Y-118506035D01*
X136561035Y-118358505D01*
X136683670Y-118189714D01*
X136778389Y-118003816D01*
X136842862Y-117805389D01*
X136850395Y-117757826D01*
X136875500Y-117599324D01*
X136875500Y-117390679D01*
X136873984Y-117381107D01*
X136873984Y-117381104D01*
X136871683Y-117366577D01*
X142409500Y-117366577D01*
X142409500Y-117563422D01*
X142440290Y-117757826D01*
X142501117Y-117945029D01*
X142531071Y-118003816D01*
X142590476Y-118120405D01*
X142706172Y-118279646D01*
X142845354Y-118418828D01*
X143004595Y-118534524D01*
X143087455Y-118576743D01*
X143179970Y-118623882D01*
X143179972Y-118623882D01*
X143179975Y-118623884D01*
X143280317Y-118656487D01*
X143367173Y-118684709D01*
X143561578Y-118715500D01*
X143561583Y-118715500D01*
X143758422Y-118715500D01*
X143952826Y-118684709D01*
X144140025Y-118623884D01*
X144315405Y-118534524D01*
X144474646Y-118418828D01*
X144613828Y-118279646D01*
X144729524Y-118120405D01*
X144799515Y-117983038D01*
X144847489Y-117932243D01*
X144915310Y-117915448D01*
X144981445Y-117937985D01*
X145020484Y-117983038D01*
X145090476Y-118120405D01*
X145206172Y-118279646D01*
X145345354Y-118418828D01*
X145504595Y-118534524D01*
X145587455Y-118576743D01*
X145679970Y-118623882D01*
X145679972Y-118623882D01*
X145679975Y-118623884D01*
X145780317Y-118656487D01*
X145867173Y-118684709D01*
X146061578Y-118715500D01*
X146061583Y-118715500D01*
X146258422Y-118715500D01*
X146452826Y-118684709D01*
X146640025Y-118623884D01*
X146815405Y-118534524D01*
X146974646Y-118418828D01*
X147113828Y-118279646D01*
X147229524Y-118120405D01*
X147299515Y-117983038D01*
X147347489Y-117932243D01*
X147415310Y-117915448D01*
X147481445Y-117937985D01*
X147520484Y-117983038D01*
X147590476Y-118120405D01*
X147706172Y-118279646D01*
X147845354Y-118418828D01*
X148004595Y-118534524D01*
X148087455Y-118576743D01*
X148179970Y-118623882D01*
X148179972Y-118623882D01*
X148179975Y-118623884D01*
X148280317Y-118656487D01*
X148367173Y-118684709D01*
X148561578Y-118715500D01*
X148561583Y-118715500D01*
X148758422Y-118715500D01*
X148952826Y-118684709D01*
X149140025Y-118623884D01*
X149315405Y-118534524D01*
X149474646Y-118418828D01*
X149613828Y-118279646D01*
X149729524Y-118120405D01*
X149818884Y-117945025D01*
X149879709Y-117757826D01*
X149903360Y-117608500D01*
X149910500Y-117563422D01*
X149910500Y-117366577D01*
X149879709Y-117172173D01*
X149828494Y-117014551D01*
X149818884Y-116984975D01*
X149818882Y-116984972D01*
X149818882Y-116984970D01*
X149756508Y-116862554D01*
X149729524Y-116809595D01*
X149613828Y-116650354D01*
X149474646Y-116511172D01*
X149315405Y-116395476D01*
X149255977Y-116365196D01*
X149140029Y-116306117D01*
X148996796Y-116259577D01*
X154589500Y-116259577D01*
X154589500Y-116456422D01*
X154620290Y-116650826D01*
X154681117Y-116838029D01*
X154755988Y-116984970D01*
X154770476Y-117013405D01*
X154886172Y-117172646D01*
X155025354Y-117311828D01*
X155184595Y-117427524D01*
X155267455Y-117469743D01*
X155359970Y-117516882D01*
X155359972Y-117516882D01*
X155359975Y-117516884D01*
X155460317Y-117549487D01*
X155547173Y-117577709D01*
X155741578Y-117608500D01*
X155741583Y-117608500D01*
X155938422Y-117608500D01*
X156132826Y-117577709D01*
X156320025Y-117516884D01*
X156495405Y-117427524D01*
X156654646Y-117311828D01*
X156793828Y-117172646D01*
X156909524Y-117013405D01*
X156998884Y-116838025D01*
X157059709Y-116650826D01*
X157062771Y-116631493D01*
X157090500Y-116456422D01*
X157090500Y-116259577D01*
X157059709Y-116065173D01*
X156998882Y-115877970D01*
X156909523Y-115702594D01*
X156793828Y-115543354D01*
X156654646Y-115404172D01*
X156495405Y-115288476D01*
X156320029Y-115199117D01*
X156132826Y-115138290D01*
X155938422Y-115107500D01*
X155938417Y-115107500D01*
X155741583Y-115107500D01*
X155741578Y-115107500D01*
X155547173Y-115138290D01*
X155359970Y-115199117D01*
X155184594Y-115288476D01*
X155093741Y-115354485D01*
X155025354Y-115404172D01*
X155025352Y-115404174D01*
X155025351Y-115404174D01*
X154886174Y-115543351D01*
X154886174Y-115543352D01*
X154886172Y-115543354D01*
X154836485Y-115611741D01*
X154770476Y-115702594D01*
X154681117Y-115877970D01*
X154620290Y-116065173D01*
X154589500Y-116259577D01*
X148996796Y-116259577D01*
X148952826Y-116245290D01*
X148758422Y-116214500D01*
X148758417Y-116214500D01*
X148561583Y-116214500D01*
X148561578Y-116214500D01*
X148367173Y-116245290D01*
X148179970Y-116306117D01*
X148004594Y-116395476D01*
X147920717Y-116456417D01*
X147845354Y-116511172D01*
X147845352Y-116511174D01*
X147845351Y-116511174D01*
X147706174Y-116650351D01*
X147706174Y-116650352D01*
X147706172Y-116650354D01*
X147656485Y-116718741D01*
X147590476Y-116809594D01*
X147520485Y-116946960D01*
X147472510Y-116997756D01*
X147404689Y-117014551D01*
X147338554Y-116992014D01*
X147299515Y-116946960D01*
X147256508Y-116862554D01*
X147229524Y-116809595D01*
X147113828Y-116650354D01*
X146974646Y-116511172D01*
X146815405Y-116395476D01*
X146755977Y-116365196D01*
X146640029Y-116306117D01*
X146452826Y-116245290D01*
X146258422Y-116214500D01*
X146258417Y-116214500D01*
X146061583Y-116214500D01*
X146061578Y-116214500D01*
X145867173Y-116245290D01*
X145679970Y-116306117D01*
X145504594Y-116395476D01*
X145420717Y-116456417D01*
X145345354Y-116511172D01*
X145345352Y-116511174D01*
X145345351Y-116511174D01*
X145206174Y-116650351D01*
X145206174Y-116650352D01*
X145206172Y-116650354D01*
X145156485Y-116718741D01*
X145090476Y-116809594D01*
X145020485Y-116946960D01*
X144972510Y-116997756D01*
X144904689Y-117014551D01*
X144838554Y-116992014D01*
X144799515Y-116946960D01*
X144756508Y-116862554D01*
X144729524Y-116809595D01*
X144613828Y-116650354D01*
X144474646Y-116511172D01*
X144315405Y-116395476D01*
X144255977Y-116365196D01*
X144140029Y-116306117D01*
X143952826Y-116245290D01*
X143758422Y-116214500D01*
X143758417Y-116214500D01*
X143561583Y-116214500D01*
X143561578Y-116214500D01*
X143367173Y-116245290D01*
X143179970Y-116306117D01*
X143004594Y-116395476D01*
X142920717Y-116456417D01*
X142845354Y-116511172D01*
X142845352Y-116511174D01*
X142845351Y-116511174D01*
X142706174Y-116650351D01*
X142706174Y-116650352D01*
X142706172Y-116650354D01*
X142656485Y-116718741D01*
X142590476Y-116809594D01*
X142501117Y-116984970D01*
X142440290Y-117172173D01*
X142409500Y-117366577D01*
X136871683Y-117366577D01*
X136842862Y-117184610D01*
X136787606Y-117014551D01*
X136778389Y-116986184D01*
X136778387Y-116986181D01*
X136778387Y-116986179D01*
X136702899Y-116838025D01*
X136683670Y-116800286D01*
X136561035Y-116631495D01*
X136413505Y-116483965D01*
X136244714Y-116361330D01*
X136058820Y-116266612D01*
X135860389Y-116202137D01*
X135654324Y-116169500D01*
X135654319Y-116169500D01*
X135445681Y-116169500D01*
X135445676Y-116169500D01*
X135239610Y-116202137D01*
X135041179Y-116266612D01*
X134855285Y-116361330D01*
X134686493Y-116483966D01*
X134538966Y-116631493D01*
X134416330Y-116800286D01*
X134410484Y-116811759D01*
X134362508Y-116862554D01*
X134294687Y-116879348D01*
X134228553Y-116856809D01*
X134189516Y-116811759D01*
X134188303Y-116809380D01*
X134183670Y-116800286D01*
X134061035Y-116631495D01*
X133913505Y-116483965D01*
X133744714Y-116361330D01*
X133558820Y-116266612D01*
X133360389Y-116202137D01*
X133154324Y-116169500D01*
X133154319Y-116169500D01*
X132945681Y-116169500D01*
X132945676Y-116169500D01*
X132739610Y-116202137D01*
X132541179Y-116266612D01*
X132355285Y-116361330D01*
X132186493Y-116483966D01*
X132038966Y-116631493D01*
X131916330Y-116800286D01*
X131910484Y-116811759D01*
X131862508Y-116862554D01*
X131794687Y-116879348D01*
X131728553Y-116856809D01*
X131689516Y-116811759D01*
X131688303Y-116809380D01*
X131683670Y-116800286D01*
X131561035Y-116631495D01*
X131413505Y-116483965D01*
X131244714Y-116361330D01*
X131058820Y-116266612D01*
X130860389Y-116202137D01*
X130654324Y-116169500D01*
X130654319Y-116169500D01*
X130445681Y-116169500D01*
X130445676Y-116169500D01*
X130239610Y-116202137D01*
X130041179Y-116266612D01*
X129855285Y-116361330D01*
X129686493Y-116483966D01*
X129538966Y-116631493D01*
X129416330Y-116800286D01*
X129410484Y-116811759D01*
X129362508Y-116862554D01*
X129294687Y-116879348D01*
X129228553Y-116856809D01*
X129189516Y-116811759D01*
X129188303Y-116809380D01*
X129183670Y-116800286D01*
X129061035Y-116631495D01*
X128913505Y-116483965D01*
X128744714Y-116361330D01*
X128558820Y-116266612D01*
X128360389Y-116202137D01*
X128154324Y-116169500D01*
X128154319Y-116169500D01*
X127945681Y-116169500D01*
X127945676Y-116169500D01*
X127739610Y-116202137D01*
X127541179Y-116266612D01*
X127355285Y-116361330D01*
X127186493Y-116483966D01*
X127038966Y-116631493D01*
X126916330Y-116800285D01*
X126821612Y-116986179D01*
X126757137Y-117184610D01*
X126724500Y-117390675D01*
X123390000Y-117390675D01*
X123390000Y-114368995D01*
X156779499Y-114368995D01*
X156806418Y-114504322D01*
X156806421Y-114504332D01*
X156859221Y-114631804D01*
X156859228Y-114631817D01*
X156935885Y-114746541D01*
X156935888Y-114746545D01*
X157033454Y-114844111D01*
X157033458Y-114844114D01*
X157148182Y-114920771D01*
X157148195Y-114920778D01*
X157275667Y-114973578D01*
X157275672Y-114973580D01*
X157275676Y-114973580D01*
X157275677Y-114973581D01*
X157411004Y-115000500D01*
X157411007Y-115000500D01*
X157548995Y-115000500D01*
X157640041Y-114982389D01*
X157684328Y-114973580D01*
X157811811Y-114920775D01*
X157926542Y-114844114D01*
X158024114Y-114746542D01*
X158100775Y-114631811D01*
X158153580Y-114504328D01*
X158180500Y-114368995D01*
X159319499Y-114368995D01*
X159346418Y-114504322D01*
X159346421Y-114504332D01*
X159399221Y-114631804D01*
X159399228Y-114631817D01*
X159475885Y-114746541D01*
X159475888Y-114746545D01*
X159573454Y-114844111D01*
X159573458Y-114844114D01*
X159688182Y-114920771D01*
X159688195Y-114920778D01*
X159815667Y-114973578D01*
X159815672Y-114973580D01*
X159815676Y-114973580D01*
X159815677Y-114973581D01*
X159951004Y-115000500D01*
X159951007Y-115000500D01*
X160088995Y-115000500D01*
X160180041Y-114982389D01*
X160224328Y-114973580D01*
X160351811Y-114920775D01*
X160466542Y-114844114D01*
X160564114Y-114746542D01*
X160640775Y-114631811D01*
X160693580Y-114504328D01*
X160720500Y-114368995D01*
X161859499Y-114368995D01*
X161886418Y-114504322D01*
X161886421Y-114504332D01*
X161939221Y-114631804D01*
X161939228Y-114631817D01*
X162015885Y-114746541D01*
X162015888Y-114746545D01*
X162113454Y-114844111D01*
X162113458Y-114844114D01*
X162228182Y-114920771D01*
X162228195Y-114920778D01*
X162355667Y-114973578D01*
X162355672Y-114973580D01*
X162355676Y-114973580D01*
X162355677Y-114973581D01*
X162491004Y-115000500D01*
X162491007Y-115000500D01*
X162628995Y-115000500D01*
X162720041Y-114982389D01*
X162764328Y-114973580D01*
X162891811Y-114920775D01*
X163006542Y-114844114D01*
X163104114Y-114746542D01*
X163180775Y-114631811D01*
X163233580Y-114504328D01*
X163260500Y-114368995D01*
X164399499Y-114368995D01*
X164426418Y-114504322D01*
X164426421Y-114504332D01*
X164479221Y-114631804D01*
X164479228Y-114631817D01*
X164555885Y-114746541D01*
X164555888Y-114746545D01*
X164653454Y-114844111D01*
X164653458Y-114844114D01*
X164768182Y-114920771D01*
X164768195Y-114920778D01*
X164895667Y-114973578D01*
X164895672Y-114973580D01*
X164895676Y-114973580D01*
X164895677Y-114973581D01*
X165031004Y-115000500D01*
X165031007Y-115000500D01*
X165168995Y-115000500D01*
X165260041Y-114982389D01*
X165304328Y-114973580D01*
X165431811Y-114920775D01*
X165546542Y-114844114D01*
X165644114Y-114746542D01*
X165720775Y-114631811D01*
X165773580Y-114504328D01*
X165800500Y-114368993D01*
X165800500Y-114231007D01*
X165800500Y-114231004D01*
X165773581Y-114095677D01*
X165773580Y-114095676D01*
X165773580Y-114095672D01*
X165773578Y-114095667D01*
X165720778Y-113968195D01*
X165720771Y-113968182D01*
X165644114Y-113853458D01*
X165644111Y-113853454D01*
X165546545Y-113755888D01*
X165546541Y-113755885D01*
X165431817Y-113679228D01*
X165431804Y-113679221D01*
X165304332Y-113626421D01*
X165304322Y-113626418D01*
X165168995Y-113599500D01*
X165168993Y-113599500D01*
X165031007Y-113599500D01*
X165031005Y-113599500D01*
X164895677Y-113626418D01*
X164895667Y-113626421D01*
X164768195Y-113679221D01*
X164768182Y-113679228D01*
X164653458Y-113755885D01*
X164653454Y-113755888D01*
X164555888Y-113853454D01*
X164555885Y-113853458D01*
X164479228Y-113968182D01*
X164479221Y-113968195D01*
X164426421Y-114095667D01*
X164426418Y-114095677D01*
X164399500Y-114231004D01*
X164399500Y-114231007D01*
X164399500Y-114368993D01*
X164399500Y-114368995D01*
X164399499Y-114368995D01*
X163260500Y-114368995D01*
X163260500Y-114368993D01*
X163260500Y-114231007D01*
X163260500Y-114231004D01*
X163233581Y-114095677D01*
X163233580Y-114095676D01*
X163233580Y-114095672D01*
X163233578Y-114095667D01*
X163180778Y-113968195D01*
X163180771Y-113968182D01*
X163104114Y-113853458D01*
X163104111Y-113853454D01*
X163006545Y-113755888D01*
X163006541Y-113755885D01*
X162891817Y-113679228D01*
X162891804Y-113679221D01*
X162764332Y-113626421D01*
X162764322Y-113626418D01*
X162628995Y-113599500D01*
X162628993Y-113599500D01*
X162491007Y-113599500D01*
X162491005Y-113599500D01*
X162355677Y-113626418D01*
X162355667Y-113626421D01*
X162228195Y-113679221D01*
X162228182Y-113679228D01*
X162113458Y-113755885D01*
X162113454Y-113755888D01*
X162015888Y-113853454D01*
X162015885Y-113853458D01*
X161939228Y-113968182D01*
X161939221Y-113968195D01*
X161886421Y-114095667D01*
X161886418Y-114095677D01*
X161859500Y-114231004D01*
X161859500Y-114231007D01*
X161859500Y-114368993D01*
X161859500Y-114368995D01*
X161859499Y-114368995D01*
X160720500Y-114368995D01*
X160720500Y-114368993D01*
X160720500Y-114231007D01*
X160720500Y-114231004D01*
X160693581Y-114095677D01*
X160693580Y-114095676D01*
X160693580Y-114095672D01*
X160693578Y-114095667D01*
X160640778Y-113968195D01*
X160640771Y-113968182D01*
X160564114Y-113853458D01*
X160564111Y-113853454D01*
X160466545Y-113755888D01*
X160466541Y-113755885D01*
X160351817Y-113679228D01*
X160351804Y-113679221D01*
X160224332Y-113626421D01*
X160224322Y-113626418D01*
X160088995Y-113599500D01*
X160088993Y-113599500D01*
X159951007Y-113599500D01*
X159951005Y-113599500D01*
X159815677Y-113626418D01*
X159815667Y-113626421D01*
X159688195Y-113679221D01*
X159688182Y-113679228D01*
X159573458Y-113755885D01*
X159573454Y-113755888D01*
X159475888Y-113853454D01*
X159475885Y-113853458D01*
X159399228Y-113968182D01*
X159399221Y-113968195D01*
X159346421Y-114095667D01*
X159346418Y-114095677D01*
X159319500Y-114231004D01*
X159319500Y-114231007D01*
X159319500Y-114368993D01*
X159319500Y-114368995D01*
X159319499Y-114368995D01*
X158180500Y-114368995D01*
X158180500Y-114368993D01*
X158180500Y-114231007D01*
X158180500Y-114231004D01*
X158153581Y-114095677D01*
X158153580Y-114095676D01*
X158153580Y-114095672D01*
X158153578Y-114095667D01*
X158100778Y-113968195D01*
X158100771Y-113968182D01*
X158024114Y-113853458D01*
X158024111Y-113853454D01*
X157926545Y-113755888D01*
X157926541Y-113755885D01*
X157811817Y-113679228D01*
X157811804Y-113679221D01*
X157684332Y-113626421D01*
X157684322Y-113626418D01*
X157548995Y-113599500D01*
X157548993Y-113599500D01*
X157411007Y-113599500D01*
X157411005Y-113599500D01*
X157275677Y-113626418D01*
X157275667Y-113626421D01*
X157148195Y-113679221D01*
X157148182Y-113679228D01*
X157033458Y-113755885D01*
X157033454Y-113755888D01*
X156935888Y-113853454D01*
X156935885Y-113853458D01*
X156859228Y-113968182D01*
X156859221Y-113968195D01*
X156806421Y-114095667D01*
X156806418Y-114095677D01*
X156779500Y-114231004D01*
X156779500Y-114231007D01*
X156779500Y-114368993D01*
X156779500Y-114368995D01*
X156779499Y-114368995D01*
X123390000Y-114368995D01*
X123390000Y-111828995D01*
X156779499Y-111828995D01*
X156806418Y-111964322D01*
X156806421Y-111964332D01*
X156859221Y-112091804D01*
X156859228Y-112091817D01*
X156935885Y-112206541D01*
X156935888Y-112206545D01*
X157033454Y-112304111D01*
X157033458Y-112304114D01*
X157148182Y-112380771D01*
X157148195Y-112380778D01*
X157275667Y-112433578D01*
X157275672Y-112433580D01*
X157275676Y-112433580D01*
X157275677Y-112433581D01*
X157411004Y-112460500D01*
X157411007Y-112460500D01*
X157548995Y-112460500D01*
X157640041Y-112442389D01*
X157684328Y-112433580D01*
X157811811Y-112380775D01*
X157926542Y-112304114D01*
X158024114Y-112206542D01*
X158100775Y-112091811D01*
X158153580Y-111964328D01*
X158180500Y-111828995D01*
X159319499Y-111828995D01*
X159346418Y-111964322D01*
X159346421Y-111964332D01*
X159399221Y-112091804D01*
X159399228Y-112091817D01*
X159475885Y-112206541D01*
X159475888Y-112206545D01*
X159573454Y-112304111D01*
X159573458Y-112304114D01*
X159688182Y-112380771D01*
X159688195Y-112380778D01*
X159815667Y-112433578D01*
X159815672Y-112433580D01*
X159815676Y-112433580D01*
X159815677Y-112433581D01*
X159951004Y-112460500D01*
X159951007Y-112460500D01*
X160088995Y-112460500D01*
X160180041Y-112442389D01*
X160224328Y-112433580D01*
X160351811Y-112380775D01*
X160466542Y-112304114D01*
X160564114Y-112206542D01*
X160640775Y-112091811D01*
X160693580Y-111964328D01*
X160720500Y-111828995D01*
X161859499Y-111828995D01*
X161886418Y-111964322D01*
X161886421Y-111964332D01*
X161939221Y-112091804D01*
X161939228Y-112091817D01*
X162015885Y-112206541D01*
X162015888Y-112206545D01*
X162113454Y-112304111D01*
X162113458Y-112304114D01*
X162228182Y-112380771D01*
X162228195Y-112380778D01*
X162355667Y-112433578D01*
X162355672Y-112433580D01*
X162355676Y-112433580D01*
X162355677Y-112433581D01*
X162491004Y-112460500D01*
X162491007Y-112460500D01*
X162628995Y-112460500D01*
X162720041Y-112442389D01*
X162764328Y-112433580D01*
X162891811Y-112380775D01*
X163006542Y-112304114D01*
X163104114Y-112206542D01*
X163180775Y-112091811D01*
X163233580Y-111964328D01*
X163260500Y-111828995D01*
X164399499Y-111828995D01*
X164426418Y-111964322D01*
X164426421Y-111964332D01*
X164479221Y-112091804D01*
X164479228Y-112091817D01*
X164555885Y-112206541D01*
X164555888Y-112206545D01*
X164653454Y-112304111D01*
X164653458Y-112304114D01*
X164768182Y-112380771D01*
X164768195Y-112380778D01*
X164895667Y-112433578D01*
X164895672Y-112433580D01*
X164895676Y-112433580D01*
X164895677Y-112433581D01*
X165031004Y-112460500D01*
X165031007Y-112460500D01*
X165168995Y-112460500D01*
X165260041Y-112442389D01*
X165304328Y-112433580D01*
X165431811Y-112380775D01*
X165546542Y-112304114D01*
X165644114Y-112206542D01*
X165720775Y-112091811D01*
X165773580Y-111964328D01*
X165800500Y-111828993D01*
X165800500Y-111691007D01*
X165800500Y-111691004D01*
X165773581Y-111555677D01*
X165773580Y-111555676D01*
X165773580Y-111555672D01*
X165773578Y-111555667D01*
X165720778Y-111428195D01*
X165720771Y-111428182D01*
X165644114Y-111313458D01*
X165644111Y-111313454D01*
X165546545Y-111215888D01*
X165546541Y-111215885D01*
X165431817Y-111139228D01*
X165431804Y-111139221D01*
X165304332Y-111086421D01*
X165304322Y-111086418D01*
X165168995Y-111059500D01*
X165168993Y-111059500D01*
X165031007Y-111059500D01*
X165031005Y-111059500D01*
X164895677Y-111086418D01*
X164895667Y-111086421D01*
X164768195Y-111139221D01*
X164768182Y-111139228D01*
X164653458Y-111215885D01*
X164653454Y-111215888D01*
X164555888Y-111313454D01*
X164555885Y-111313458D01*
X164479228Y-111428182D01*
X164479221Y-111428195D01*
X164426421Y-111555667D01*
X164426418Y-111555677D01*
X164399500Y-111691004D01*
X164399500Y-111691007D01*
X164399500Y-111828993D01*
X164399500Y-111828995D01*
X164399499Y-111828995D01*
X163260500Y-111828995D01*
X163260500Y-111828993D01*
X163260500Y-111691007D01*
X163260500Y-111691004D01*
X163233581Y-111555677D01*
X163233580Y-111555676D01*
X163233580Y-111555672D01*
X163233578Y-111555667D01*
X163180778Y-111428195D01*
X163180771Y-111428182D01*
X163104114Y-111313458D01*
X163104111Y-111313454D01*
X163006545Y-111215888D01*
X163006541Y-111215885D01*
X162891817Y-111139228D01*
X162891804Y-111139221D01*
X162764332Y-111086421D01*
X162764322Y-111086418D01*
X162628995Y-111059500D01*
X162628993Y-111059500D01*
X162491007Y-111059500D01*
X162491005Y-111059500D01*
X162355677Y-111086418D01*
X162355667Y-111086421D01*
X162228195Y-111139221D01*
X162228182Y-111139228D01*
X162113458Y-111215885D01*
X162113454Y-111215888D01*
X162015888Y-111313454D01*
X162015885Y-111313458D01*
X161939228Y-111428182D01*
X161939221Y-111428195D01*
X161886421Y-111555667D01*
X161886418Y-111555677D01*
X161859500Y-111691004D01*
X161859500Y-111691007D01*
X161859500Y-111828993D01*
X161859500Y-111828995D01*
X161859499Y-111828995D01*
X160720500Y-111828995D01*
X160720500Y-111828993D01*
X160720500Y-111691007D01*
X160720500Y-111691004D01*
X160693581Y-111555677D01*
X160693580Y-111555676D01*
X160693580Y-111555672D01*
X160693578Y-111555667D01*
X160640778Y-111428195D01*
X160640771Y-111428182D01*
X160564114Y-111313458D01*
X160564111Y-111313454D01*
X160466545Y-111215888D01*
X160466541Y-111215885D01*
X160351817Y-111139228D01*
X160351804Y-111139221D01*
X160224332Y-111086421D01*
X160224322Y-111086418D01*
X160088995Y-111059500D01*
X160088993Y-111059500D01*
X159951007Y-111059500D01*
X159951005Y-111059500D01*
X159815677Y-111086418D01*
X159815667Y-111086421D01*
X159688195Y-111139221D01*
X159688182Y-111139228D01*
X159573458Y-111215885D01*
X159573454Y-111215888D01*
X159475888Y-111313454D01*
X159475885Y-111313458D01*
X159399228Y-111428182D01*
X159399221Y-111428195D01*
X159346421Y-111555667D01*
X159346418Y-111555677D01*
X159319500Y-111691004D01*
X159319500Y-111691007D01*
X159319500Y-111828993D01*
X159319500Y-111828995D01*
X159319499Y-111828995D01*
X158180500Y-111828995D01*
X158180500Y-111828993D01*
X158180500Y-111691007D01*
X158180500Y-111691004D01*
X158153581Y-111555677D01*
X158153580Y-111555676D01*
X158153580Y-111555672D01*
X158153578Y-111555667D01*
X158100778Y-111428195D01*
X158100771Y-111428182D01*
X158024114Y-111313458D01*
X158024111Y-111313454D01*
X157926545Y-111215888D01*
X157926541Y-111215885D01*
X157811817Y-111139228D01*
X157811804Y-111139221D01*
X157684332Y-111086421D01*
X157684322Y-111086418D01*
X157548995Y-111059500D01*
X157548993Y-111059500D01*
X157411007Y-111059500D01*
X157411005Y-111059500D01*
X157275677Y-111086418D01*
X157275667Y-111086421D01*
X157148195Y-111139221D01*
X157148182Y-111139228D01*
X157033458Y-111215885D01*
X157033454Y-111215888D01*
X156935888Y-111313454D01*
X156935885Y-111313458D01*
X156859228Y-111428182D01*
X156859221Y-111428195D01*
X156806421Y-111555667D01*
X156806418Y-111555677D01*
X156779500Y-111691004D01*
X156779500Y-111691007D01*
X156779500Y-111828993D01*
X156779500Y-111828995D01*
X156779499Y-111828995D01*
X123390000Y-111828995D01*
X123390000Y-109361900D01*
X123409685Y-109294861D01*
X123462489Y-109249106D01*
X123531647Y-109239162D01*
X123586885Y-109261582D01*
X123604505Y-109274384D01*
X123617284Y-109283669D01*
X123803179Y-109378387D01*
X123803181Y-109378387D01*
X123803184Y-109378389D01*
X123909545Y-109412948D01*
X124001610Y-109442862D01*
X124207676Y-109475500D01*
X124207681Y-109475500D01*
X124416324Y-109475500D01*
X124622389Y-109442862D01*
X124679418Y-109424332D01*
X124820816Y-109378389D01*
X124996263Y-109288995D01*
X156779499Y-109288995D01*
X156806418Y-109424322D01*
X156806421Y-109424332D01*
X156859221Y-109551804D01*
X156859228Y-109551817D01*
X156935885Y-109666541D01*
X156935888Y-109666545D01*
X157033454Y-109764111D01*
X157033458Y-109764114D01*
X157148182Y-109840771D01*
X157148195Y-109840778D01*
X157275667Y-109893578D01*
X157275672Y-109893580D01*
X157275676Y-109893580D01*
X157275677Y-109893581D01*
X157411004Y-109920500D01*
X157411007Y-109920500D01*
X157548995Y-109920500D01*
X157640041Y-109902389D01*
X157684328Y-109893580D01*
X157811811Y-109840775D01*
X157926542Y-109764114D01*
X158024114Y-109666542D01*
X158100775Y-109551811D01*
X158153580Y-109424328D01*
X158180500Y-109288995D01*
X159319499Y-109288995D01*
X159346418Y-109424322D01*
X159346421Y-109424332D01*
X159399221Y-109551804D01*
X159399228Y-109551817D01*
X159475885Y-109666541D01*
X159475888Y-109666545D01*
X159573454Y-109764111D01*
X159573458Y-109764114D01*
X159688182Y-109840771D01*
X159688195Y-109840778D01*
X159815667Y-109893578D01*
X159815672Y-109893580D01*
X159815676Y-109893580D01*
X159815677Y-109893581D01*
X159951004Y-109920500D01*
X159951007Y-109920500D01*
X160088995Y-109920500D01*
X160180041Y-109902389D01*
X160224328Y-109893580D01*
X160351811Y-109840775D01*
X160466542Y-109764114D01*
X160564114Y-109666542D01*
X160640775Y-109551811D01*
X160693580Y-109424328D01*
X160720500Y-109288995D01*
X161859499Y-109288995D01*
X161886418Y-109424322D01*
X161886421Y-109424332D01*
X161939221Y-109551804D01*
X161939228Y-109551817D01*
X162015885Y-109666541D01*
X162015888Y-109666545D01*
X162113454Y-109764111D01*
X162113458Y-109764114D01*
X162228182Y-109840771D01*
X162228195Y-109840778D01*
X162355667Y-109893578D01*
X162355672Y-109893580D01*
X162355676Y-109893580D01*
X162355677Y-109893581D01*
X162491004Y-109920500D01*
X162491007Y-109920500D01*
X162628995Y-109920500D01*
X162720041Y-109902389D01*
X162764328Y-109893580D01*
X162891811Y-109840775D01*
X163006542Y-109764114D01*
X163104114Y-109666542D01*
X163180775Y-109551811D01*
X163233580Y-109424328D01*
X163260500Y-109288995D01*
X164399499Y-109288995D01*
X164426418Y-109424322D01*
X164426421Y-109424332D01*
X164479221Y-109551804D01*
X164479228Y-109551817D01*
X164555885Y-109666541D01*
X164555888Y-109666545D01*
X164653454Y-109764111D01*
X164653458Y-109764114D01*
X164768182Y-109840771D01*
X164768195Y-109840778D01*
X164895667Y-109893578D01*
X164895672Y-109893580D01*
X164895676Y-109893580D01*
X164895677Y-109893581D01*
X165031004Y-109920500D01*
X165031007Y-109920500D01*
X165168995Y-109920500D01*
X165260041Y-109902389D01*
X165304328Y-109893580D01*
X165431811Y-109840775D01*
X165546542Y-109764114D01*
X165644114Y-109666542D01*
X165720775Y-109551811D01*
X165773580Y-109424328D01*
X165800500Y-109288993D01*
X165800500Y-109151007D01*
X165800500Y-109151004D01*
X165773581Y-109015677D01*
X165773580Y-109015676D01*
X165773580Y-109015672D01*
X165755314Y-108971573D01*
X165720778Y-108888195D01*
X165720771Y-108888182D01*
X165644114Y-108773458D01*
X165644111Y-108773454D01*
X165546545Y-108675888D01*
X165546541Y-108675885D01*
X165431817Y-108599228D01*
X165431804Y-108599221D01*
X165304332Y-108546421D01*
X165304322Y-108546418D01*
X165168995Y-108519500D01*
X165168993Y-108519500D01*
X165031007Y-108519500D01*
X165031005Y-108519500D01*
X164895677Y-108546418D01*
X164895667Y-108546421D01*
X164768195Y-108599221D01*
X164768182Y-108599228D01*
X164653458Y-108675885D01*
X164653454Y-108675888D01*
X164555888Y-108773454D01*
X164555885Y-108773458D01*
X164479228Y-108888182D01*
X164479221Y-108888195D01*
X164426421Y-109015667D01*
X164426418Y-109015677D01*
X164399500Y-109151004D01*
X164399500Y-109151007D01*
X164399500Y-109288993D01*
X164399500Y-109288995D01*
X164399499Y-109288995D01*
X163260500Y-109288995D01*
X163260500Y-109288993D01*
X163260500Y-109151007D01*
X163260500Y-109151004D01*
X163233581Y-109015677D01*
X163233580Y-109015676D01*
X163233580Y-109015672D01*
X163215314Y-108971573D01*
X163180778Y-108888195D01*
X163180771Y-108888182D01*
X163104114Y-108773458D01*
X163104111Y-108773454D01*
X163006545Y-108675888D01*
X163006541Y-108675885D01*
X162891817Y-108599228D01*
X162891804Y-108599221D01*
X162764332Y-108546421D01*
X162764322Y-108546418D01*
X162628995Y-108519500D01*
X162628993Y-108519500D01*
X162491007Y-108519500D01*
X162491005Y-108519500D01*
X162355677Y-108546418D01*
X162355667Y-108546421D01*
X162228195Y-108599221D01*
X162228182Y-108599228D01*
X162113458Y-108675885D01*
X162113454Y-108675888D01*
X162015888Y-108773454D01*
X162015885Y-108773458D01*
X161939228Y-108888182D01*
X161939221Y-108888195D01*
X161886421Y-109015667D01*
X161886418Y-109015677D01*
X161859500Y-109151004D01*
X161859500Y-109151007D01*
X161859500Y-109288993D01*
X161859500Y-109288995D01*
X161859499Y-109288995D01*
X160720500Y-109288995D01*
X160720500Y-109288993D01*
X160720500Y-109151007D01*
X160720500Y-109151004D01*
X160693581Y-109015677D01*
X160693580Y-109015676D01*
X160693580Y-109015672D01*
X160675314Y-108971573D01*
X160640778Y-108888195D01*
X160640771Y-108888182D01*
X160564114Y-108773458D01*
X160564111Y-108773454D01*
X160466545Y-108675888D01*
X160466541Y-108675885D01*
X160351817Y-108599228D01*
X160351804Y-108599221D01*
X160224332Y-108546421D01*
X160224322Y-108546418D01*
X160088995Y-108519500D01*
X160088993Y-108519500D01*
X159951007Y-108519500D01*
X159951005Y-108519500D01*
X159815677Y-108546418D01*
X159815667Y-108546421D01*
X159688195Y-108599221D01*
X159688182Y-108599228D01*
X159573458Y-108675885D01*
X159573454Y-108675888D01*
X159475888Y-108773454D01*
X159475885Y-108773458D01*
X159399228Y-108888182D01*
X159399221Y-108888195D01*
X159346421Y-109015667D01*
X159346418Y-109015677D01*
X159319500Y-109151004D01*
X159319500Y-109151007D01*
X159319500Y-109288993D01*
X159319500Y-109288995D01*
X159319499Y-109288995D01*
X158180500Y-109288995D01*
X158180500Y-109288993D01*
X158180500Y-109151007D01*
X158180500Y-109151004D01*
X158153581Y-109015677D01*
X158153580Y-109015676D01*
X158153580Y-109015672D01*
X158135314Y-108971573D01*
X158100778Y-108888195D01*
X158100771Y-108888182D01*
X158024114Y-108773458D01*
X158024111Y-108773454D01*
X157926545Y-108675888D01*
X157926541Y-108675885D01*
X157811817Y-108599228D01*
X157811804Y-108599221D01*
X157684332Y-108546421D01*
X157684322Y-108546418D01*
X157548995Y-108519500D01*
X157548993Y-108519500D01*
X157411007Y-108519500D01*
X157411005Y-108519500D01*
X157275677Y-108546418D01*
X157275667Y-108546421D01*
X157148195Y-108599221D01*
X157148182Y-108599228D01*
X157033458Y-108675885D01*
X157033454Y-108675888D01*
X156935888Y-108773454D01*
X156935885Y-108773458D01*
X156859228Y-108888182D01*
X156859221Y-108888195D01*
X156806421Y-109015667D01*
X156806418Y-109015677D01*
X156779500Y-109151004D01*
X156779500Y-109151007D01*
X156779500Y-109288993D01*
X156779500Y-109288995D01*
X156779499Y-109288995D01*
X124996263Y-109288995D01*
X125006714Y-109283670D01*
X125175505Y-109161035D01*
X125323035Y-109013505D01*
X125445670Y-108844714D01*
X125540389Y-108658816D01*
X125604862Y-108460389D01*
X125637500Y-108254324D01*
X125637500Y-108045675D01*
X125604862Y-107839610D01*
X125558121Y-107695757D01*
X125540389Y-107641184D01*
X125540387Y-107641181D01*
X125540387Y-107641179D01*
X125445669Y-107455285D01*
X125323035Y-107286495D01*
X125175505Y-107138965D01*
X125109501Y-107091010D01*
X125066838Y-107035682D01*
X125060859Y-106966068D01*
X125093465Y-106904273D01*
X125109496Y-106890382D01*
X125175505Y-106842424D01*
X125323035Y-106694894D01*
X125445670Y-106526103D01*
X125540389Y-106340205D01*
X125572417Y-106241634D01*
X162064500Y-106241634D01*
X162064500Y-106474365D01*
X162064501Y-106474382D01*
X162094878Y-106705122D01*
X162155120Y-106929947D01*
X162244180Y-107144960D01*
X162244188Y-107144976D01*
X162360553Y-107346524D01*
X162360564Y-107346540D01*
X162502242Y-107531179D01*
X162502248Y-107531186D01*
X162666813Y-107695751D01*
X162666819Y-107695756D01*
X162851468Y-107837442D01*
X162851475Y-107837446D01*
X163053023Y-107953811D01*
X163053039Y-107953819D01*
X163268052Y-108042879D01*
X163268054Y-108042879D01*
X163268060Y-108042882D01*
X163492874Y-108103121D01*
X163723628Y-108133500D01*
X163723635Y-108133500D01*
X163956365Y-108133500D01*
X163956372Y-108133500D01*
X164187126Y-108103121D01*
X164411940Y-108042882D01*
X164469953Y-108018852D01*
X164626960Y-107953819D01*
X164626963Y-107953817D01*
X164626969Y-107953815D01*
X164828532Y-107837442D01*
X165013181Y-107695756D01*
X165177756Y-107531181D01*
X165319442Y-107346532D01*
X165435815Y-107144969D01*
X165458165Y-107091012D01*
X165524879Y-106929947D01*
X165524878Y-106929947D01*
X165524882Y-106929940D01*
X165585121Y-106705126D01*
X165615500Y-106474372D01*
X165615500Y-106241628D01*
X165585121Y-106010874D01*
X165524882Y-105786060D01*
X165500448Y-105727070D01*
X165435819Y-105571039D01*
X165435811Y-105571023D01*
X165319446Y-105369475D01*
X165319442Y-105369468D01*
X165177756Y-105184819D01*
X165177751Y-105184813D01*
X165013186Y-105020248D01*
X165013179Y-105020242D01*
X164828540Y-104878564D01*
X164828538Y-104878562D01*
X164828532Y-104878558D01*
X164828527Y-104878555D01*
X164828524Y-104878553D01*
X164626976Y-104762188D01*
X164626960Y-104762180D01*
X164411947Y-104673120D01*
X164312406Y-104646448D01*
X164187126Y-104612879D01*
X164187125Y-104612878D01*
X164187122Y-104612878D01*
X163956382Y-104582501D01*
X163956377Y-104582500D01*
X163956372Y-104582500D01*
X163723628Y-104582500D01*
X163723622Y-104582500D01*
X163723617Y-104582501D01*
X163492877Y-104612878D01*
X163268052Y-104673120D01*
X163053039Y-104762180D01*
X163053023Y-104762188D01*
X162851475Y-104878553D01*
X162851459Y-104878564D01*
X162666820Y-105020242D01*
X162666813Y-105020248D01*
X162502248Y-105184813D01*
X162502242Y-105184820D01*
X162360564Y-105369459D01*
X162360553Y-105369475D01*
X162244188Y-105571023D01*
X162244180Y-105571039D01*
X162155120Y-105786052D01*
X162094878Y-106010877D01*
X162064501Y-106241617D01*
X162064500Y-106241634D01*
X125572417Y-106241634D01*
X125604862Y-106141778D01*
X125625595Y-106010874D01*
X125637500Y-105935713D01*
X125637500Y-105727064D01*
X125604862Y-105520999D01*
X125540387Y-105322568D01*
X125445669Y-105136674D01*
X125361077Y-105020244D01*
X125323035Y-104967884D01*
X125175505Y-104820354D01*
X125109501Y-104772399D01*
X125066838Y-104717071D01*
X125060859Y-104647457D01*
X125093465Y-104585662D01*
X125109496Y-104571771D01*
X125175505Y-104523813D01*
X125323035Y-104376283D01*
X125445670Y-104207492D01*
X125540389Y-104021594D01*
X125604862Y-103823167D01*
X125637500Y-103617102D01*
X125637500Y-103408453D01*
X125604862Y-103202388D01*
X125563250Y-103074322D01*
X125540389Y-103003962D01*
X125540387Y-103003959D01*
X125540387Y-103003957D01*
X125445669Y-102818063D01*
X125438181Y-102807757D01*
X125323035Y-102649273D01*
X125175505Y-102501743D01*
X125006714Y-102379108D01*
X125003913Y-102377681D01*
X124820820Y-102284390D01*
X124622389Y-102219915D01*
X124416324Y-102187278D01*
X124416319Y-102187278D01*
X124207681Y-102187278D01*
X124207676Y-102187278D01*
X124001610Y-102219915D01*
X123803179Y-102284390D01*
X123617285Y-102379108D01*
X123586886Y-102401195D01*
X123521079Y-102424675D01*
X123453025Y-102408850D01*
X123404330Y-102358744D01*
X123390000Y-102300877D01*
X123390000Y-98924000D01*
X123409685Y-98856961D01*
X123462489Y-98811206D01*
X123514000Y-98800000D01*
X129804115Y-98800000D01*
X129871154Y-98819685D01*
G37*
%TD.AperFunction*%
%TD*%
M02*
