%TF.GenerationSoftware,KiCad,Pcbnew,9.0.6*%
%TF.CreationDate,2026-08-02T21:27:32+03:00*%
%TF.ProjectId,BIFROST-3S,42494652-4f53-4542-9d33-532e6b696361,rev?*%
%TF.SameCoordinates,Original*%
%TF.FileFunction,Copper,L1,Top*%
%TF.FilePolarity,Positive*%
%FSLAX46Y46*%
G04 Gerber Fmt 4.6, Leading zero omitted, Abs format (unit mm)*
G04 Created by KiCad (PCBNEW 9.0.6) date 2026-08-02 21:27:32*
%MOMM*%
%LPD*%
G01*
G04 APERTURE LIST*
%TA.AperFunction,ComponentPad*%
%ADD10R,1.800000X1.800000*%
%TD*%
%TA.AperFunction,ComponentPad*%
%ADD11C,1.800000*%
%TD*%
%TA.AperFunction,ComponentPad*%
%ADD12C,1.500000*%
%TD*%
%TA.AperFunction,ComponentPad*%
%ADD13C,2.550000*%
%TD*%
%TA.AperFunction,ComponentPad*%
%ADD14R,1.650000X1.650000*%
%TD*%
%TA.AperFunction,ComponentPad*%
%ADD15C,1.650000*%
%TD*%
%TA.AperFunction,SMDPad,CuDef*%
%ADD16R,1.200000X2.200000*%
%TD*%
%TA.AperFunction,SMDPad,CuDef*%
%ADD17R,2.000000X4.200000*%
%TD*%
%TA.AperFunction,SMDPad,CuDef*%
%ADD18R,1.250000X0.600000*%
%TD*%
%TA.AperFunction,Conductor*%
%ADD19C,0.300000*%
%TD*%
G04 APERTURE END LIST*
D10*
%TO.P,F1,1,1*%
%TO.N,/PACK+_RAW*%
X161197500Y-104811500D03*
D11*
%TO.P,F1,2,2*%
%TO.N,/+BATT*%
X156097500Y-104811500D03*
%TD*%
D12*
%TO.P,J3,1,1*%
%TO.N,GND*%
X137030000Y-118860000D03*
%TO.P,J3,2,2*%
%TO.N,/BQ2_TS3*%
X139530000Y-118860000D03*
%TO.P,J3,3,3*%
%TO.N,/BQ2_TS2*%
X142030000Y-118860000D03*
%TO.P,J3,4,4*%
%TO.N,/BQ2_TS1*%
X144530000Y-118860000D03*
%TD*%
D13*
%TO.P,J4,1,1*%
%TO.N,GND*%
X161310000Y-109298000D03*
%TO.P,J4,2,2*%
%TO.N,/+BATT*%
X156310000Y-109298000D03*
D12*
%TO.P,J4,3,3*%
%TO.N,unconnected-(J4-Pad3)*%
X153310000Y-119298000D03*
%TO.P,J4,4,4*%
%TO.N,unconnected-(J4-Pad4)*%
X164310000Y-119298000D03*
%TD*%
D14*
%TO.P,J1,1,1*%
%TO.N,GND*%
X118010000Y-118860000D03*
D15*
%TO.P,J1,2,2*%
%TO.N,/BAT1*%
X120510000Y-118860000D03*
%TO.P,J1,3,3*%
%TO.N,/BAT2*%
X123010000Y-118860000D03*
%TO.P,J1,4,4*%
%TO.N,/BAT3{slash}PACK+*%
X125510000Y-118860000D03*
%TO.P,J1,5,5*%
%TO.N,/BQ_TS*%
X128010000Y-118860000D03*
%TO.P,J1,6,6*%
%TO.N,GND*%
X130510000Y-118860000D03*
%TD*%
D13*
%TO.P,J5,1,1*%
%TO.N,GND*%
X156516250Y-100250000D03*
%TO.P,J5,2,2*%
%TO.N,/PACK+_RAW*%
X161516250Y-100250000D03*
D12*
%TO.P,J5,3,3*%
%TO.N,unconnected-(J5-Pad3)*%
X164516250Y-90250000D03*
%TO.P,J5,4,4*%
%TO.N,unconnected-(J5-Pad4)*%
X153516250Y-90250000D03*
%TD*%
D16*
%TO.P,J2,1,1*%
%TO.N,GND*%
X119910000Y-95840000D03*
%TO.P,J2,2,2*%
%TO.N,/BAT1*%
X121910000Y-95840000D03*
%TO.P,J2,3,3*%
%TO.N,/BAT2*%
X123910000Y-95840000D03*
%TO.P,J2,4,4*%
%TO.N,/BAT3{slash}PACK+*%
X125910000Y-95840000D03*
%TO.P,J2,5,5*%
%TO.N,/BQ_TS*%
X127910000Y-95840000D03*
%TO.P,J2,6,6*%
%TO.N,GND*%
X129910000Y-95840000D03*
%TO.P,J2,7,7*%
X131910000Y-95840000D03*
%TO.P,J2,8,8*%
%TO.N,/BQ2_TS3*%
X133910000Y-95840000D03*
%TO.P,J2,9,9*%
%TO.N,/BQ2_TS2*%
X135910000Y-95840000D03*
%TO.P,J2,10,10*%
%TO.N,/BQ2_TS1*%
X137910000Y-95840000D03*
D17*
%TO.P,J2,MP1,MP1*%
%TO.N,unconnected-(J2-PadMP1)*%
X116310000Y-90260000D03*
%TO.P,J2,MP2,MP2*%
%TO.N,unconnected-(J2-PadMP2)*%
X141510000Y-90260000D03*
%TD*%
D18*
%TO.P,D1,1,1*%
%TO.N,/+BATT*%
X150700000Y-103030000D03*
%TO.P,D1,2,2*%
%TO.N,unconnected-(D1-Pad2)*%
X150700000Y-101130000D03*
%TO.P,D1,3,3*%
%TO.N,GND*%
X148700000Y-102080000D03*
%TD*%
D19*
%TO.N,/BAT1*%
X121910000Y-95840000D02*
X121910000Y-117460000D01*
X121910000Y-117460000D02*
X120510000Y-118860000D01*
%TO.N,/BQ2_TS1*%
X137910000Y-112240000D02*
X144530000Y-118860000D01*
X137910000Y-95840000D02*
X137910000Y-112240000D01*
%TO.N,/BQ_TS*%
X127910000Y-118760000D02*
X128010000Y-118860000D01*
X127910000Y-95840000D02*
X127910000Y-118760000D01*
%TO.N,/BAT3{slash}PACK+*%
X125910000Y-118460000D02*
X125510000Y-118860000D01*
X125910000Y-95840000D02*
X125910000Y-118460000D01*
%TO.N,/BQ2_TS2*%
X135910000Y-95840000D02*
X135910000Y-112740000D01*
X135910000Y-112740000D02*
X142030000Y-118860000D01*
%TO.N,/BQ2_TS3*%
X133910000Y-113240000D02*
X139530000Y-118860000D01*
X133910000Y-95840000D02*
X133910000Y-113240000D01*
%TO.N,/BAT2*%
X123910000Y-117960000D02*
X123010000Y-118860000D01*
X123910000Y-95840000D02*
X123910000Y-117960000D01*
%TD*%
%TA.AperFunction,Conductor*%
%TO.N,/+BATT*%
G36*
X158348012Y-87202685D02*
G01*
X158368654Y-87219319D01*
X158643681Y-87494346D01*
X158677166Y-87555669D01*
X158680000Y-87582027D01*
X158680000Y-121709303D01*
X158660315Y-121776342D01*
X158643681Y-121796984D01*
X158316319Y-122124346D01*
X158254996Y-122157831D01*
X158228638Y-122160665D01*
X150041362Y-122160665D01*
X149974323Y-122140980D01*
X149953681Y-122124346D01*
X149616319Y-121786984D01*
X149582834Y-121725661D01*
X149580000Y-121699303D01*
X149580000Y-119199577D01*
X152059500Y-119199577D01*
X152059500Y-119396422D01*
X152090290Y-119590826D01*
X152151117Y-119778029D01*
X152240476Y-119953405D01*
X152356172Y-120112646D01*
X152495354Y-120251828D01*
X152654595Y-120367524D01*
X152737455Y-120409743D01*
X152829970Y-120456882D01*
X152829972Y-120456882D01*
X152829975Y-120456884D01*
X152930317Y-120489487D01*
X153017173Y-120517709D01*
X153211578Y-120548500D01*
X153211583Y-120548500D01*
X153408422Y-120548500D01*
X153602826Y-120517709D01*
X153790025Y-120456884D01*
X153965405Y-120367524D01*
X154124646Y-120251828D01*
X154263828Y-120112646D01*
X154379524Y-119953405D01*
X154468884Y-119778025D01*
X154529709Y-119590826D01*
X154560500Y-119396422D01*
X154560500Y-119199577D01*
X154529709Y-119005173D01*
X154468882Y-118817970D01*
X154379523Y-118642594D01*
X154263828Y-118483354D01*
X154124646Y-118344172D01*
X153965405Y-118228476D01*
X153790029Y-118139117D01*
X153602826Y-118078290D01*
X153408422Y-118047500D01*
X153408417Y-118047500D01*
X153211583Y-118047500D01*
X153211578Y-118047500D01*
X153017173Y-118078290D01*
X152829970Y-118139117D01*
X152654594Y-118228476D01*
X152563741Y-118294485D01*
X152495354Y-118344172D01*
X152495352Y-118344174D01*
X152495351Y-118344174D01*
X152356174Y-118483351D01*
X152356174Y-118483352D01*
X152356172Y-118483354D01*
X152306485Y-118551741D01*
X152240476Y-118642594D01*
X152151117Y-118817970D01*
X152090290Y-119005173D01*
X152059500Y-119199577D01*
X149580000Y-119199577D01*
X149580000Y-102876380D01*
X149599685Y-102809341D01*
X149629683Y-102777118D01*
X149682546Y-102737546D01*
X149768796Y-102622331D01*
X149819091Y-102487483D01*
X149825500Y-102427873D01*
X149825499Y-102046866D01*
X149845183Y-101979829D01*
X149897987Y-101934074D01*
X149962755Y-101923579D01*
X149967516Y-101924090D01*
X149967517Y-101924091D01*
X150027127Y-101930500D01*
X151372872Y-101930499D01*
X151432483Y-101924091D01*
X151567331Y-101873796D01*
X151682546Y-101787546D01*
X151768796Y-101672331D01*
X151819091Y-101537483D01*
X151825500Y-101477873D01*
X151825499Y-100782128D01*
X151819091Y-100722517D01*
X151768796Y-100587669D01*
X151768795Y-100587668D01*
X151768793Y-100587664D01*
X151682547Y-100472455D01*
X151682544Y-100472452D01*
X151567335Y-100386206D01*
X151567328Y-100386202D01*
X151432482Y-100335908D01*
X151432483Y-100335908D01*
X151372883Y-100329501D01*
X151372881Y-100329500D01*
X151372873Y-100329500D01*
X151372864Y-100329500D01*
X150027129Y-100329500D01*
X150027123Y-100329501D01*
X149967516Y-100335908D01*
X149832671Y-100386202D01*
X149832668Y-100386204D01*
X149778311Y-100426896D01*
X149765688Y-100431603D01*
X149755511Y-100440423D01*
X149733594Y-100443574D01*
X149712846Y-100451313D01*
X149699685Y-100448450D01*
X149686353Y-100450367D01*
X149666209Y-100441167D01*
X149644573Y-100436461D01*
X149635049Y-100426937D01*
X149622797Y-100421342D01*
X149610824Y-100402712D01*
X149595168Y-100387056D01*
X149591481Y-100372614D01*
X149585023Y-100362564D01*
X149580000Y-100327629D01*
X149580000Y-100133634D01*
X154740750Y-100133634D01*
X154740750Y-100366365D01*
X154740751Y-100366382D01*
X154771128Y-100597122D01*
X154831370Y-100821947D01*
X154920430Y-101036960D01*
X154920438Y-101036976D01*
X155036803Y-101238524D01*
X155036814Y-101238540D01*
X155178492Y-101423179D01*
X155178498Y-101423186D01*
X155343063Y-101587751D01*
X155343070Y-101587757D01*
X155453289Y-101672331D01*
X155527718Y-101729442D01*
X155527725Y-101729446D01*
X155729273Y-101845811D01*
X155729289Y-101845819D01*
X155944302Y-101934879D01*
X155944304Y-101934879D01*
X155944310Y-101934882D01*
X156169124Y-101995121D01*
X156399878Y-102025500D01*
X156399885Y-102025500D01*
X156632615Y-102025500D01*
X156632622Y-102025500D01*
X156863376Y-101995121D01*
X157088190Y-101934882D01*
X157235664Y-101873797D01*
X157303210Y-101845819D01*
X157303213Y-101845817D01*
X157303219Y-101845815D01*
X157504782Y-101729442D01*
X157689431Y-101587756D01*
X157854006Y-101423181D01*
X157995692Y-101238532D01*
X158112065Y-101036969D01*
X158201132Y-100821940D01*
X158261371Y-100597126D01*
X158291750Y-100366372D01*
X158291750Y-100133628D01*
X158261371Y-99902874D01*
X158201132Y-99678060D01*
X158201129Y-99678052D01*
X158112069Y-99463039D01*
X158112061Y-99463023D01*
X157995696Y-99261475D01*
X157995692Y-99261468D01*
X157854006Y-99076819D01*
X157854001Y-99076813D01*
X157689436Y-98912248D01*
X157689429Y-98912242D01*
X157504790Y-98770564D01*
X157504788Y-98770562D01*
X157504782Y-98770558D01*
X157504777Y-98770555D01*
X157504774Y-98770553D01*
X157303226Y-98654188D01*
X157303210Y-98654180D01*
X157088197Y-98565120D01*
X156863372Y-98504878D01*
X156632632Y-98474501D01*
X156632627Y-98474500D01*
X156632622Y-98474500D01*
X156399878Y-98474500D01*
X156399872Y-98474500D01*
X156399867Y-98474501D01*
X156169127Y-98504878D01*
X155944302Y-98565120D01*
X155729289Y-98654180D01*
X155729273Y-98654188D01*
X155527725Y-98770553D01*
X155527709Y-98770564D01*
X155343070Y-98912242D01*
X155343063Y-98912248D01*
X155178498Y-99076813D01*
X155178492Y-99076820D01*
X155036814Y-99261459D01*
X155036803Y-99261475D01*
X154920438Y-99463023D01*
X154920430Y-99463039D01*
X154831370Y-99678052D01*
X154771128Y-99902877D01*
X154740751Y-100133617D01*
X154740750Y-100133634D01*
X149580000Y-100133634D01*
X149580000Y-90151577D01*
X152265750Y-90151577D01*
X152265750Y-90348422D01*
X152296540Y-90542826D01*
X152357367Y-90730029D01*
X152446726Y-90905405D01*
X152562422Y-91064646D01*
X152701604Y-91203828D01*
X152860845Y-91319524D01*
X152943705Y-91361743D01*
X153036220Y-91408882D01*
X153036222Y-91408882D01*
X153036225Y-91408884D01*
X153136567Y-91441487D01*
X153223423Y-91469709D01*
X153417828Y-91500500D01*
X153417833Y-91500500D01*
X153614672Y-91500500D01*
X153809076Y-91469709D01*
X153996275Y-91408884D01*
X154171655Y-91319524D01*
X154330896Y-91203828D01*
X154470078Y-91064646D01*
X154585774Y-90905405D01*
X154675134Y-90730025D01*
X154735959Y-90542826D01*
X154766750Y-90348422D01*
X154766750Y-90151577D01*
X154735959Y-89957173D01*
X154675132Y-89769970D01*
X154585773Y-89594594D01*
X154470078Y-89435354D01*
X154330896Y-89296172D01*
X154171655Y-89180476D01*
X153996279Y-89091117D01*
X153809076Y-89030290D01*
X153614672Y-88999500D01*
X153614667Y-88999500D01*
X153417833Y-88999500D01*
X153417828Y-88999500D01*
X153223423Y-89030290D01*
X153036220Y-89091117D01*
X152860844Y-89180476D01*
X152769991Y-89246485D01*
X152701604Y-89296172D01*
X152701602Y-89296174D01*
X152701601Y-89296174D01*
X152562424Y-89435351D01*
X152562424Y-89435352D01*
X152562422Y-89435354D01*
X152512735Y-89503741D01*
X152446726Y-89594594D01*
X152357367Y-89769970D01*
X152296540Y-89957173D01*
X152265750Y-90151577D01*
X149580000Y-90151577D01*
X149580000Y-87592027D01*
X149599685Y-87524988D01*
X149616319Y-87504346D01*
X149901346Y-87219319D01*
X149962669Y-87185834D01*
X149989027Y-87183000D01*
X158280973Y-87183000D01*
X158348012Y-87202685D01*
G37*
%TD.AperFunction*%
%TD*%
%TA.AperFunction,Conductor*%
%TO.N,/PACK+_RAW*%
G36*
X167765677Y-87228974D02*
G01*
X167786319Y-87245608D01*
X168113681Y-87572970D01*
X168147166Y-87634293D01*
X168150000Y-87660651D01*
X168150000Y-121517927D01*
X168130315Y-121584966D01*
X168113681Y-121605608D01*
X167586319Y-122132970D01*
X167524996Y-122166455D01*
X167498638Y-122169289D01*
X159661362Y-122169289D01*
X159594323Y-122149604D01*
X159573681Y-122132970D01*
X159236319Y-121795608D01*
X159202834Y-121734285D01*
X159200000Y-121707927D01*
X159200000Y-119199577D01*
X163059500Y-119199577D01*
X163059500Y-119396422D01*
X163090290Y-119590826D01*
X163151117Y-119778029D01*
X163240476Y-119953405D01*
X163356172Y-120112646D01*
X163495354Y-120251828D01*
X163654595Y-120367524D01*
X163737455Y-120409743D01*
X163829970Y-120456882D01*
X163829972Y-120456882D01*
X163829975Y-120456884D01*
X163930317Y-120489487D01*
X164017173Y-120517709D01*
X164211578Y-120548500D01*
X164211583Y-120548500D01*
X164408422Y-120548500D01*
X164602826Y-120517709D01*
X164790025Y-120456884D01*
X164965405Y-120367524D01*
X165124646Y-120251828D01*
X165263828Y-120112646D01*
X165379524Y-119953405D01*
X165468884Y-119778025D01*
X165529709Y-119590826D01*
X165560500Y-119396422D01*
X165560500Y-119199577D01*
X165529709Y-119005173D01*
X165468882Y-118817970D01*
X165379523Y-118642594D01*
X165263828Y-118483354D01*
X165124646Y-118344172D01*
X164965405Y-118228476D01*
X164790029Y-118139117D01*
X164602826Y-118078290D01*
X164408422Y-118047500D01*
X164408417Y-118047500D01*
X164211583Y-118047500D01*
X164211578Y-118047500D01*
X164017173Y-118078290D01*
X163829970Y-118139117D01*
X163654594Y-118228476D01*
X163563741Y-118294485D01*
X163495354Y-118344172D01*
X163495352Y-118344174D01*
X163495351Y-118344174D01*
X163356174Y-118483351D01*
X163356174Y-118483352D01*
X163356172Y-118483354D01*
X163306485Y-118551741D01*
X163240476Y-118642594D01*
X163151117Y-118817970D01*
X163090290Y-119005173D01*
X163059500Y-119199577D01*
X159200000Y-119199577D01*
X159200000Y-109181634D01*
X159534500Y-109181634D01*
X159534500Y-109414365D01*
X159534501Y-109414382D01*
X159564878Y-109645122D01*
X159625120Y-109869947D01*
X159714180Y-110084960D01*
X159714188Y-110084976D01*
X159830553Y-110286524D01*
X159830564Y-110286540D01*
X159972242Y-110471179D01*
X159972248Y-110471186D01*
X160136813Y-110635751D01*
X160136819Y-110635756D01*
X160321468Y-110777442D01*
X160321475Y-110777446D01*
X160523023Y-110893811D01*
X160523039Y-110893819D01*
X160738052Y-110982879D01*
X160738054Y-110982879D01*
X160738060Y-110982882D01*
X160962874Y-111043121D01*
X161193628Y-111073500D01*
X161193635Y-111073500D01*
X161426365Y-111073500D01*
X161426372Y-111073500D01*
X161657126Y-111043121D01*
X161881940Y-110982882D01*
X161939953Y-110958852D01*
X162096960Y-110893819D01*
X162096963Y-110893817D01*
X162096969Y-110893815D01*
X162298532Y-110777442D01*
X162483181Y-110635756D01*
X162647756Y-110471181D01*
X162789442Y-110286532D01*
X162905815Y-110084969D01*
X162994882Y-109869940D01*
X163055121Y-109645126D01*
X163085500Y-109414372D01*
X163085500Y-109181628D01*
X163055121Y-108950874D01*
X162994882Y-108726060D01*
X162994879Y-108726052D01*
X162905819Y-108511039D01*
X162905811Y-108511023D01*
X162789446Y-108309475D01*
X162789442Y-108309468D01*
X162647756Y-108124819D01*
X162647751Y-108124813D01*
X162483186Y-107960248D01*
X162483179Y-107960242D01*
X162298540Y-107818564D01*
X162298538Y-107818562D01*
X162298532Y-107818558D01*
X162298527Y-107818555D01*
X162298524Y-107818553D01*
X162096976Y-107702188D01*
X162096960Y-107702180D01*
X161881947Y-107613120D01*
X161657122Y-107552878D01*
X161426382Y-107522501D01*
X161426377Y-107522500D01*
X161426372Y-107522500D01*
X161193628Y-107522500D01*
X161193622Y-107522500D01*
X161193617Y-107522501D01*
X160962877Y-107552878D01*
X160738052Y-107613120D01*
X160523039Y-107702180D01*
X160523023Y-107702188D01*
X160321475Y-107818553D01*
X160321459Y-107818564D01*
X160136820Y-107960242D01*
X160136813Y-107960248D01*
X159972248Y-108124813D01*
X159972242Y-108124820D01*
X159830564Y-108309459D01*
X159830553Y-108309475D01*
X159714188Y-108511023D01*
X159714180Y-108511039D01*
X159625120Y-108726052D01*
X159564878Y-108950877D01*
X159534501Y-109181617D01*
X159534500Y-109181634D01*
X159200000Y-109181634D01*
X159200000Y-90151577D01*
X163265750Y-90151577D01*
X163265750Y-90348422D01*
X163296540Y-90542826D01*
X163357367Y-90730029D01*
X163446726Y-90905405D01*
X163562422Y-91064646D01*
X163701604Y-91203828D01*
X163860845Y-91319524D01*
X163943705Y-91361743D01*
X164036220Y-91408882D01*
X164036222Y-91408882D01*
X164036225Y-91408884D01*
X164136567Y-91441487D01*
X164223423Y-91469709D01*
X164417828Y-91500500D01*
X164417833Y-91500500D01*
X164614672Y-91500500D01*
X164809076Y-91469709D01*
X164996275Y-91408884D01*
X165171655Y-91319524D01*
X165330896Y-91203828D01*
X165470078Y-91064646D01*
X165585774Y-90905405D01*
X165675134Y-90730025D01*
X165735959Y-90542826D01*
X165766750Y-90348422D01*
X165766750Y-90151577D01*
X165735959Y-89957173D01*
X165675132Y-89769970D01*
X165585773Y-89594594D01*
X165470078Y-89435354D01*
X165330896Y-89296172D01*
X165171655Y-89180476D01*
X164996279Y-89091117D01*
X164809076Y-89030290D01*
X164614672Y-88999500D01*
X164614667Y-88999500D01*
X164417833Y-88999500D01*
X164417828Y-88999500D01*
X164223423Y-89030290D01*
X164036220Y-89091117D01*
X163860844Y-89180476D01*
X163769991Y-89246485D01*
X163701604Y-89296172D01*
X163701602Y-89296174D01*
X163701601Y-89296174D01*
X163562424Y-89435351D01*
X163562424Y-89435352D01*
X163562422Y-89435354D01*
X163512735Y-89503741D01*
X163446726Y-89594594D01*
X163357367Y-89769970D01*
X163296540Y-89957173D01*
X163265750Y-90151577D01*
X159200000Y-90151577D01*
X159200000Y-87720651D01*
X159219685Y-87653612D01*
X159236319Y-87632970D01*
X159623681Y-87245608D01*
X159685004Y-87212123D01*
X159711362Y-87209289D01*
X167698638Y-87209289D01*
X167765677Y-87228974D01*
G37*
%TD.AperFunction*%
%TD*%
%TA.AperFunction,Conductor*%
%TO.N,GND*%
G36*
X148705012Y-87219685D02*
G01*
X148725654Y-87236319D01*
X149013681Y-87524346D01*
X149047166Y-87585669D01*
X149050000Y-87612027D01*
X149050000Y-121719303D01*
X149030315Y-121786342D01*
X149013681Y-121806984D01*
X148686984Y-122133681D01*
X148625661Y-122167166D01*
X148599303Y-122170000D01*
X115621362Y-122170000D01*
X115554323Y-122150315D01*
X115533681Y-122133681D01*
X115216319Y-121816319D01*
X115182834Y-121754996D01*
X115180000Y-121728638D01*
X115180000Y-118755675D01*
X119184500Y-118755675D01*
X119184500Y-118964324D01*
X119217137Y-119170389D01*
X119281612Y-119368820D01*
X119356301Y-119515405D01*
X119376330Y-119554714D01*
X119498965Y-119723505D01*
X119646495Y-119871035D01*
X119815286Y-119993670D01*
X119864768Y-120018882D01*
X120001179Y-120088387D01*
X120001181Y-120088387D01*
X120001184Y-120088389D01*
X120107545Y-120122948D01*
X120199610Y-120152862D01*
X120405676Y-120185500D01*
X120405681Y-120185500D01*
X120614324Y-120185500D01*
X120820389Y-120152862D01*
X121018816Y-120088389D01*
X121204714Y-119993670D01*
X121373505Y-119871035D01*
X121521035Y-119723505D01*
X121643670Y-119554714D01*
X121649515Y-119543243D01*
X121697489Y-119492447D01*
X121765310Y-119475651D01*
X121831445Y-119498188D01*
X121870485Y-119543243D01*
X121876328Y-119554712D01*
X121958086Y-119667241D01*
X121998965Y-119723505D01*
X122146495Y-119871035D01*
X122315286Y-119993670D01*
X122364768Y-120018882D01*
X122501179Y-120088387D01*
X122501181Y-120088387D01*
X122501184Y-120088389D01*
X122607545Y-120122948D01*
X122699610Y-120152862D01*
X122905676Y-120185500D01*
X122905681Y-120185500D01*
X123114324Y-120185500D01*
X123320389Y-120152862D01*
X123518816Y-120088389D01*
X123704714Y-119993670D01*
X123873505Y-119871035D01*
X124021035Y-119723505D01*
X124143670Y-119554714D01*
X124149515Y-119543243D01*
X124197489Y-119492447D01*
X124265310Y-119475651D01*
X124331445Y-119498188D01*
X124370485Y-119543243D01*
X124376328Y-119554712D01*
X124458086Y-119667241D01*
X124498965Y-119723505D01*
X124646495Y-119871035D01*
X124815286Y-119993670D01*
X124864768Y-120018882D01*
X125001179Y-120088387D01*
X125001181Y-120088387D01*
X125001184Y-120088389D01*
X125107545Y-120122948D01*
X125199610Y-120152862D01*
X125405676Y-120185500D01*
X125405681Y-120185500D01*
X125614324Y-120185500D01*
X125820389Y-120152862D01*
X126018816Y-120088389D01*
X126204714Y-119993670D01*
X126373505Y-119871035D01*
X126521035Y-119723505D01*
X126643670Y-119554714D01*
X126649515Y-119543243D01*
X126697489Y-119492447D01*
X126765310Y-119475651D01*
X126831445Y-119498188D01*
X126870485Y-119543243D01*
X126876328Y-119554712D01*
X126958086Y-119667241D01*
X126998965Y-119723505D01*
X127146495Y-119871035D01*
X127315286Y-119993670D01*
X127364768Y-120018882D01*
X127501179Y-120088387D01*
X127501181Y-120088387D01*
X127501184Y-120088389D01*
X127607545Y-120122948D01*
X127699610Y-120152862D01*
X127905676Y-120185500D01*
X127905681Y-120185500D01*
X128114324Y-120185500D01*
X128320389Y-120152862D01*
X128518816Y-120088389D01*
X128704714Y-119993670D01*
X128873505Y-119871035D01*
X129021035Y-119723505D01*
X129143670Y-119554714D01*
X129238389Y-119368816D01*
X129302862Y-119170389D01*
X129305644Y-119152826D01*
X129335500Y-118964324D01*
X129335500Y-118755675D01*
X129302862Y-118549610D01*
X129238387Y-118351179D01*
X129156598Y-118190659D01*
X129143670Y-118165286D01*
X129021035Y-117996495D01*
X128873505Y-117848965D01*
X128704714Y-117726330D01*
X128704713Y-117726329D01*
X128704711Y-117726328D01*
X128628204Y-117687345D01*
X128577409Y-117639371D01*
X128560500Y-117576861D01*
X128560500Y-97541439D01*
X128580185Y-97474400D01*
X128632989Y-97428645D01*
X128641168Y-97425257D01*
X128752326Y-97383798D01*
X128752326Y-97383797D01*
X128752331Y-97383796D01*
X128867546Y-97297546D01*
X128953796Y-97182331D01*
X129004091Y-97047483D01*
X129010500Y-96987873D01*
X129010499Y-94692135D01*
X132809500Y-94692135D01*
X132809500Y-96987870D01*
X132809501Y-96987876D01*
X132815908Y-97047483D01*
X132866202Y-97182328D01*
X132866206Y-97182335D01*
X132952452Y-97297544D01*
X132952455Y-97297547D01*
X133067664Y-97383793D01*
X133067673Y-97383798D01*
X133178832Y-97425257D01*
X133234766Y-97467127D01*
X133259184Y-97532592D01*
X133259500Y-97541439D01*
X133259500Y-113304070D01*
X133271720Y-113365500D01*
X133271720Y-113365502D01*
X133284497Y-113429736D01*
X133284499Y-113429744D01*
X133333534Y-113548125D01*
X133404726Y-113654673D01*
X133404727Y-113654674D01*
X138266563Y-118516508D01*
X138300048Y-118577831D01*
X138301355Y-118623586D01*
X138279500Y-118761576D01*
X138279500Y-118958422D01*
X138310290Y-119152826D01*
X138371117Y-119340029D01*
X138460476Y-119515405D01*
X138576172Y-119674646D01*
X138715354Y-119813828D01*
X138874595Y-119929524D01*
X138957455Y-119971743D01*
X139049970Y-120018882D01*
X139049972Y-120018882D01*
X139049975Y-120018884D01*
X139150317Y-120051487D01*
X139237173Y-120079709D01*
X139431578Y-120110500D01*
X139431583Y-120110500D01*
X139628422Y-120110500D01*
X139822826Y-120079709D01*
X140010025Y-120018884D01*
X140185405Y-119929524D01*
X140344646Y-119813828D01*
X140483828Y-119674646D01*
X140599524Y-119515405D01*
X140669515Y-119378038D01*
X140717489Y-119327243D01*
X140785310Y-119310448D01*
X140851445Y-119332985D01*
X140890484Y-119378038D01*
X140960476Y-119515405D01*
X141076172Y-119674646D01*
X141215354Y-119813828D01*
X141374595Y-119929524D01*
X141457455Y-119971743D01*
X141549970Y-120018882D01*
X141549972Y-120018882D01*
X141549975Y-120018884D01*
X141650317Y-120051487D01*
X141737173Y-120079709D01*
X141931578Y-120110500D01*
X141931583Y-120110500D01*
X142128422Y-120110500D01*
X142322826Y-120079709D01*
X142510025Y-120018884D01*
X142685405Y-119929524D01*
X142844646Y-119813828D01*
X142983828Y-119674646D01*
X143099524Y-119515405D01*
X143169515Y-119378038D01*
X143217489Y-119327243D01*
X143285310Y-119310448D01*
X143351445Y-119332985D01*
X143390484Y-119378038D01*
X143460476Y-119515405D01*
X143576172Y-119674646D01*
X143715354Y-119813828D01*
X143874595Y-119929524D01*
X143957455Y-119971743D01*
X144049970Y-120018882D01*
X144049972Y-120018882D01*
X144049975Y-120018884D01*
X144150317Y-120051487D01*
X144237173Y-120079709D01*
X144431578Y-120110500D01*
X144431583Y-120110500D01*
X144628422Y-120110500D01*
X144822826Y-120079709D01*
X145010025Y-120018884D01*
X145185405Y-119929524D01*
X145344646Y-119813828D01*
X145483828Y-119674646D01*
X145599524Y-119515405D01*
X145688884Y-119340025D01*
X145749709Y-119152826D01*
X145780500Y-118958422D01*
X145780500Y-118761577D01*
X145749709Y-118567173D01*
X145688882Y-118379970D01*
X145619779Y-118244348D01*
X145599524Y-118204595D01*
X145483828Y-118045354D01*
X145344646Y-117906172D01*
X145185405Y-117790476D01*
X145157096Y-117776052D01*
X145010029Y-117701117D01*
X144822826Y-117640290D01*
X144628422Y-117609500D01*
X144628417Y-117609500D01*
X144431583Y-117609500D01*
X144431578Y-117609500D01*
X144293588Y-117631355D01*
X144224294Y-117622400D01*
X144186509Y-117596563D01*
X138596819Y-112006873D01*
X138563334Y-111945550D01*
X138560500Y-111919192D01*
X138560500Y-97541439D01*
X138580185Y-97474400D01*
X138632989Y-97428645D01*
X138641168Y-97425257D01*
X138752326Y-97383798D01*
X138752326Y-97383797D01*
X138752331Y-97383796D01*
X138867546Y-97297546D01*
X138953796Y-97182331D01*
X139004091Y-97047483D01*
X139010500Y-96987873D01*
X139010499Y-94692128D01*
X139004091Y-94632517D01*
X138953796Y-94497669D01*
X138953795Y-94497668D01*
X138953793Y-94497664D01*
X138867547Y-94382455D01*
X138867544Y-94382452D01*
X138752335Y-94296206D01*
X138752328Y-94296202D01*
X138617482Y-94245908D01*
X138617483Y-94245908D01*
X138557883Y-94239501D01*
X138557881Y-94239500D01*
X138557873Y-94239500D01*
X138557864Y-94239500D01*
X137262129Y-94239500D01*
X137262123Y-94239501D01*
X137202516Y-94245908D01*
X137067671Y-94296202D01*
X137067669Y-94296203D01*
X136984311Y-94358606D01*
X136918847Y-94383023D01*
X136850574Y-94368172D01*
X136835689Y-94358606D01*
X136752330Y-94296203D01*
X136752328Y-94296202D01*
X136617482Y-94245908D01*
X136617483Y-94245908D01*
X136557883Y-94239501D01*
X136557881Y-94239500D01*
X136557873Y-94239500D01*
X136557864Y-94239500D01*
X135262129Y-94239500D01*
X135262123Y-94239501D01*
X135202516Y-94245908D01*
X135067671Y-94296202D01*
X135067669Y-94296203D01*
X134984311Y-94358606D01*
X134918847Y-94383023D01*
X134850574Y-94368172D01*
X134835689Y-94358606D01*
X134752330Y-94296203D01*
X134752328Y-94296202D01*
X134617482Y-94245908D01*
X134617483Y-94245908D01*
X134557883Y-94239501D01*
X134557881Y-94239500D01*
X134557873Y-94239500D01*
X134557864Y-94239500D01*
X133262129Y-94239500D01*
X133262123Y-94239501D01*
X133202516Y-94245908D01*
X133067671Y-94296202D01*
X133067664Y-94296206D01*
X132952455Y-94382452D01*
X132952452Y-94382455D01*
X132866206Y-94497664D01*
X132866202Y-94497671D01*
X132815908Y-94632517D01*
X132809501Y-94692116D01*
X132809501Y-94692123D01*
X132809500Y-94692135D01*
X129010499Y-94692135D01*
X129010499Y-94692128D01*
X129004091Y-94632517D01*
X128953796Y-94497669D01*
X128953795Y-94497668D01*
X128953793Y-94497664D01*
X128867547Y-94382455D01*
X128867544Y-94382452D01*
X128752335Y-94296206D01*
X128752328Y-94296202D01*
X128617482Y-94245908D01*
X128617483Y-94245908D01*
X128557883Y-94239501D01*
X128557881Y-94239500D01*
X128557873Y-94239500D01*
X128557864Y-94239500D01*
X127262129Y-94239500D01*
X127262123Y-94239501D01*
X127202516Y-94245908D01*
X127067671Y-94296202D01*
X127067669Y-94296203D01*
X126984311Y-94358606D01*
X126918847Y-94383023D01*
X126850574Y-94368172D01*
X126835689Y-94358606D01*
X126752330Y-94296203D01*
X126752328Y-94296202D01*
X126617482Y-94245908D01*
X126617483Y-94245908D01*
X126557883Y-94239501D01*
X126557881Y-94239500D01*
X126557873Y-94239500D01*
X126557864Y-94239500D01*
X125262129Y-94239500D01*
X125262123Y-94239501D01*
X125202516Y-94245908D01*
X125067671Y-94296202D01*
X125067669Y-94296203D01*
X124984311Y-94358606D01*
X124918847Y-94383023D01*
X124850574Y-94368172D01*
X124835689Y-94358606D01*
X124752330Y-94296203D01*
X124752328Y-94296202D01*
X124617482Y-94245908D01*
X124617483Y-94245908D01*
X124557883Y-94239501D01*
X124557881Y-94239500D01*
X124557873Y-94239500D01*
X124557864Y-94239500D01*
X123262129Y-94239500D01*
X123262123Y-94239501D01*
X123202516Y-94245908D01*
X123067671Y-94296202D01*
X123067669Y-94296203D01*
X122984311Y-94358606D01*
X122918847Y-94383023D01*
X122850574Y-94368172D01*
X122835689Y-94358606D01*
X122752330Y-94296203D01*
X122752328Y-94296202D01*
X122617482Y-94245908D01*
X122617483Y-94245908D01*
X122557883Y-94239501D01*
X122557881Y-94239500D01*
X122557873Y-94239500D01*
X122557864Y-94239500D01*
X121262129Y-94239500D01*
X121262123Y-94239501D01*
X121202516Y-94245908D01*
X121067671Y-94296202D01*
X121067664Y-94296206D01*
X120952455Y-94382452D01*
X120952452Y-94382455D01*
X120866206Y-94497664D01*
X120866202Y-94497671D01*
X120815908Y-94632517D01*
X120809501Y-94692116D01*
X120809501Y-94692123D01*
X120809500Y-94692135D01*
X120809500Y-96987870D01*
X120809501Y-96987876D01*
X120815908Y-97047483D01*
X120866202Y-97182328D01*
X120866206Y-97182335D01*
X120952452Y-97297544D01*
X120952455Y-97297547D01*
X121067664Y-97383793D01*
X121067673Y-97383798D01*
X121178832Y-97425257D01*
X121234766Y-97467127D01*
X121259184Y-97532592D01*
X121259500Y-97541439D01*
X121259500Y-117139191D01*
X121239815Y-117206230D01*
X121223181Y-117226872D01*
X120919041Y-117531011D01*
X120857718Y-117564496D01*
X120811962Y-117565803D01*
X120614324Y-117534500D01*
X120614319Y-117534500D01*
X120405681Y-117534500D01*
X120405676Y-117534500D01*
X120199610Y-117567137D01*
X120001179Y-117631612D01*
X119815285Y-117726330D01*
X119646493Y-117848966D01*
X119498966Y-117996493D01*
X119376330Y-118165285D01*
X119281612Y-118351179D01*
X119217137Y-118549610D01*
X119184500Y-118755675D01*
X115180000Y-118755675D01*
X115180000Y-92984499D01*
X115199685Y-92917460D01*
X115252489Y-92871705D01*
X115303995Y-92860499D01*
X117357872Y-92860499D01*
X117417483Y-92854091D01*
X117552331Y-92803796D01*
X117667546Y-92717546D01*
X117753796Y-92602331D01*
X117804091Y-92467483D01*
X117810500Y-92407873D01*
X117810499Y-88112135D01*
X140009500Y-88112135D01*
X140009500Y-92407870D01*
X140009501Y-92407876D01*
X140015908Y-92467483D01*
X140066202Y-92602328D01*
X140066206Y-92602335D01*
X140152452Y-92717544D01*
X140152455Y-92717547D01*
X140267664Y-92803793D01*
X140267671Y-92803797D01*
X140402517Y-92854091D01*
X140402516Y-92854091D01*
X140409444Y-92854835D01*
X140462127Y-92860500D01*
X142557872Y-92860499D01*
X142617483Y-92854091D01*
X142752331Y-92803796D01*
X142867546Y-92717546D01*
X142953796Y-92602331D01*
X143004091Y-92467483D01*
X143010500Y-92407873D01*
X143010499Y-88112128D01*
X143004091Y-88052517D01*
X142953796Y-87917669D01*
X142953795Y-87917668D01*
X142953793Y-87917664D01*
X142867547Y-87802455D01*
X142867544Y-87802452D01*
X142752335Y-87716206D01*
X142752328Y-87716202D01*
X142617482Y-87665908D01*
X142617483Y-87665908D01*
X142557883Y-87659501D01*
X142557881Y-87659500D01*
X142557873Y-87659500D01*
X142557864Y-87659500D01*
X140462129Y-87659500D01*
X140462123Y-87659501D01*
X140402516Y-87665908D01*
X140267671Y-87716202D01*
X140267664Y-87716206D01*
X140152455Y-87802452D01*
X140152452Y-87802455D01*
X140066206Y-87917664D01*
X140066202Y-87917671D01*
X140015908Y-88052517D01*
X140009501Y-88112116D01*
X140009501Y-88112123D01*
X140009500Y-88112135D01*
X117810499Y-88112135D01*
X117810499Y-88112128D01*
X117804091Y-88052517D01*
X117753796Y-87917669D01*
X117753795Y-87917668D01*
X117753793Y-87917664D01*
X117667547Y-87802455D01*
X117667544Y-87802452D01*
X117552335Y-87716206D01*
X117552328Y-87716202D01*
X117417482Y-87665908D01*
X117417483Y-87665908D01*
X117357883Y-87659501D01*
X117357881Y-87659500D01*
X117357873Y-87659500D01*
X117357865Y-87659500D01*
X115649861Y-87659500D01*
X115582822Y-87639815D01*
X115537067Y-87587011D01*
X115527123Y-87517853D01*
X115556148Y-87454297D01*
X115562166Y-87447833D01*
X115773681Y-87236319D01*
X115835004Y-87202834D01*
X115861362Y-87200000D01*
X148637973Y-87200000D01*
X148705012Y-87219685D01*
G37*
%TD.AperFunction*%
%TD*%
M02*
