%TF.GenerationSoftware,KiCad,Pcbnew,9.0.6*%
%TF.CreationDate,2026-08-10T18:58:00+03:00*%
%TF.ProjectId,BIFROST-3S,42494652-4f53-4542-9d33-532e6b696361,rev?*%
%TF.SameCoordinates,Original*%
%TF.FileFunction,Copper,L1,Top*%
%TF.FilePolarity,Positive*%
%FSLAX46Y46*%
G04 Gerber Fmt 4.6, Leading zero omitted, Abs format (unit mm)*
G04 Created by KiCad (PCBNEW 9.0.6) date 2026-08-10 18:58:00*
%MOMM*%
%LPD*%
G01*
G04 APERTURE LIST*
%TA.AperFunction,SMDPad,CuDef*%
%ADD10R,1.650000X1.250000*%
%TD*%
%TA.AperFunction,ComponentPad*%
%ADD11C,1.500000*%
%TD*%
%TA.AperFunction,ComponentPad*%
%ADD12C,2.550000*%
%TD*%
%TA.AperFunction,ComponentPad*%
%ADD13R,1.650000X1.650000*%
%TD*%
%TA.AperFunction,ComponentPad*%
%ADD14C,1.650000*%
%TD*%
%TA.AperFunction,SMDPad,CuDef*%
%ADD15R,1.250000X0.600000*%
%TD*%
%TA.AperFunction,Conductor*%
%ADD16C,0.300000*%
%TD*%
G04 APERTURE END LIST*
D10*
%TO.P,F1,1,1*%
%TO.N,/PACK+_RAW*%
X151827500Y-101815000D03*
%TO.P,F1,2,2*%
%TO.N,/+BATT*%
X151827500Y-105265000D03*
%TD*%
D11*
%TO.P,J3,1,1*%
%TO.N,GND*%
X143660000Y-117465000D03*
%TO.P,J3,2,2*%
%TO.N,/BQ2_TS3*%
X146160000Y-117465000D03*
%TO.P,J3,3,3*%
%TO.N,/BQ2_TS2*%
X148660000Y-117465000D03*
%TO.P,J3,4,4*%
%TO.N,/BQ2_TS1*%
X151160000Y-117465000D03*
%TD*%
D12*
%TO.P,J4,1,1*%
%TO.N,/+BATT*%
X163840000Y-106358000D03*
%TO.P,J4,2,2*%
%TO.N,GND*%
X158840000Y-106358000D03*
D11*
%TO.P,J4,3,3*%
%TO.N,unconnected-(J4-Pad3)*%
X155840000Y-116358000D03*
%TO.P,J4,4,4*%
%TO.N,unconnected-(J4-Pad4)*%
X166840000Y-116358000D03*
%TD*%
D13*
%TO.P,J1,1,1*%
%TO.N,GND*%
X125550000Y-117495000D03*
D14*
%TO.P,J1,2,2*%
%TO.N,/BAT1*%
X128050000Y-117495000D03*
%TO.P,J1,3,3*%
%TO.N,/BAT2*%
X130550000Y-117495000D03*
%TO.P,J1,4,4*%
%TO.N,/BAT3{slash}PACK+*%
X133050000Y-117495000D03*
%TO.P,J1,5,5*%
%TO.N,/BQ_TS*%
X135550000Y-117495000D03*
%TO.P,J1,6,6*%
%TO.N,GND*%
X138050000Y-117495000D03*
%TD*%
%TO.P,J2,1,Pin_1*%
%TO.N,GND*%
X124312000Y-110468611D03*
%TO.P,J2,2,Pin_2*%
%TO.N,/BAT1*%
X124312000Y-108150000D03*
%TO.P,J2,3,Pin_3*%
%TO.N,/BAT2*%
X124312000Y-105831389D03*
%TO.P,J2,4,Pin_4*%
%TO.N,/BAT3{slash}PACK+*%
X124312000Y-103512778D03*
%TO.P,J2,5,Pin_5*%
%TO.N,/BQ_TS*%
X131032000Y-99700000D03*
%TO.P,J2,6,Pin_6*%
%TO.N,GND*%
X133289000Y-99700000D03*
D11*
%TO.P,J2,7,Pin_7*%
X135471000Y-99700000D03*
%TO.P,J2,8,Pin_8*%
%TO.N,/BQ2_TS3*%
X137578000Y-99700000D03*
%TO.P,J2,9,Pin_9*%
%TO.N,/BQ2_TS2*%
X139685000Y-99700000D03*
%TO.P,J2,10,Pin_10*%
%TO.N,/BQ2_TS1*%
X141792000Y-99700000D03*
D12*
%TO.P,J2,11,Pin_11*%
%TO.N,GND*%
X158872000Y-101470000D03*
%TO.P,J2,12,Pin_12*%
%TO.N,/PACK+_RAW*%
X163492000Y-101470000D03*
%TD*%
D15*
%TO.P,D1,1,1*%
%TO.N,/+BATT*%
X148580000Y-107690000D03*
%TO.P,D1,2,2*%
%TO.N,unconnected-(D1-Pad2)*%
X148580000Y-105790000D03*
%TO.P,D1,3,3*%
%TO.N,GND*%
X146580000Y-106740000D03*
%TD*%
D16*
%TO.N,/BAT1*%
X124280000Y-108150000D02*
X128050000Y-111920000D01*
X128050000Y-111920000D02*
X128050000Y-117495000D01*
%TO.N,/BQ2_TS1*%
X140360000Y-107520000D02*
X150305000Y-117465000D01*
X141760000Y-99700000D02*
X140360000Y-101100000D01*
X140360000Y-101100000D02*
X140360000Y-107520000D01*
X150305000Y-117465000D02*
X151160000Y-117465000D01*
%TO.N,/BQ_TS*%
X135550000Y-113920000D02*
X135550000Y-117495000D01*
X131010000Y-99710000D02*
X131010000Y-109380000D01*
X131010000Y-109380000D02*
X135550000Y-113920000D01*
X131000000Y-99700000D02*
X131010000Y-99710000D01*
%TO.N,/BAT3{slash}PACK+*%
X133050000Y-112282778D02*
X133050000Y-117495000D01*
X124280000Y-103512778D02*
X133050000Y-112282778D01*
%TO.N,/BQ2_TS2*%
X138500000Y-108210000D02*
X147755000Y-117465000D01*
X147755000Y-117465000D02*
X148660000Y-117465000D01*
X139653000Y-99700000D02*
X138500000Y-100853000D01*
X138500000Y-100853000D02*
X138500000Y-108210000D01*
%TO.N,/BQ2_TS3*%
X137546000Y-108851000D02*
X146160000Y-117465000D01*
X137546000Y-99700000D02*
X137546000Y-108851000D01*
%TO.N,/BAT2*%
X124280000Y-105831389D02*
X130550000Y-112101389D01*
X130550000Y-112101389D02*
X130550000Y-117495000D01*
%TD*%
%TA.AperFunction,Conductor*%
%TO.N,GND*%
G36*
X136517126Y-98809685D02*
G01*
X136562881Y-98862489D01*
X136572825Y-98931647D01*
X136550404Y-98986886D01*
X136508478Y-99044590D01*
X136419117Y-99219970D01*
X136358290Y-99407173D01*
X136327500Y-99601577D01*
X136327500Y-99798422D01*
X136358290Y-99992826D01*
X136419117Y-100180029D01*
X136508476Y-100355405D01*
X136624172Y-100514646D01*
X136763354Y-100653828D01*
X136844386Y-100712701D01*
X136887051Y-100768031D01*
X136895500Y-100813019D01*
X136895500Y-108915069D01*
X136905627Y-108965976D01*
X136905627Y-108965979D01*
X136920497Y-109040736D01*
X136920499Y-109040744D01*
X136969534Y-109159125D01*
X137040726Y-109265673D01*
X137040727Y-109265674D01*
X144896563Y-117121509D01*
X144930048Y-117182832D01*
X144931355Y-117228588D01*
X144909500Y-117366577D01*
X144909500Y-117563422D01*
X144940290Y-117757826D01*
X145001117Y-117945029D01*
X145085302Y-118110251D01*
X145090476Y-118120405D01*
X145206172Y-118279646D01*
X145345354Y-118418828D01*
X145504595Y-118534524D01*
X145587455Y-118576743D01*
X145679970Y-118623882D01*
X145679972Y-118623882D01*
X145679975Y-118623884D01*
X145780317Y-118656487D01*
X145867173Y-118684709D01*
X146061578Y-118715500D01*
X146061583Y-118715500D01*
X146258422Y-118715500D01*
X146452826Y-118684709D01*
X146640025Y-118623884D01*
X146815405Y-118534524D01*
X146974646Y-118418828D01*
X147113828Y-118279646D01*
X147229524Y-118120405D01*
X147251382Y-118077504D01*
X147299353Y-118026710D01*
X147367173Y-118009913D01*
X147415216Y-118021862D01*
X147423301Y-118025715D01*
X147446874Y-118041466D01*
X147516221Y-118070189D01*
X147537947Y-118079188D01*
X147590807Y-118120861D01*
X147706172Y-118279646D01*
X147845354Y-118418828D01*
X148004595Y-118534524D01*
X148087455Y-118576743D01*
X148179970Y-118623882D01*
X148179972Y-118623882D01*
X148179975Y-118623884D01*
X148280317Y-118656487D01*
X148367173Y-118684709D01*
X148561578Y-118715500D01*
X148561583Y-118715500D01*
X148758422Y-118715500D01*
X148952826Y-118684709D01*
X149140025Y-118623884D01*
X149315405Y-118534524D01*
X149474646Y-118418828D01*
X149613828Y-118279646D01*
X149729524Y-118120405D01*
X149764081Y-118052581D01*
X149772456Y-118043713D01*
X149776974Y-118032378D01*
X149796000Y-118018784D01*
X149812054Y-118001786D01*
X149823897Y-117998852D01*
X149833825Y-117991760D01*
X149857180Y-117990610D01*
X149879875Y-117984990D01*
X149893143Y-117988840D01*
X149903610Y-117988325D01*
X149927659Y-117998855D01*
X149936396Y-118001391D01*
X149939999Y-118003463D01*
X149996873Y-118041465D01*
X150029691Y-118055058D01*
X150036647Y-118059060D01*
X150055467Y-118078736D01*
X150076672Y-118095823D01*
X150084783Y-118109384D01*
X150084943Y-118109551D01*
X150084971Y-118109698D01*
X150085302Y-118110251D01*
X150090474Y-118120403D01*
X150090807Y-118120861D01*
X150206172Y-118279646D01*
X150345354Y-118418828D01*
X150504595Y-118534524D01*
X150587455Y-118576743D01*
X150679970Y-118623882D01*
X150679972Y-118623882D01*
X150679975Y-118623884D01*
X150780317Y-118656487D01*
X150867173Y-118684709D01*
X151061578Y-118715500D01*
X151061583Y-118715500D01*
X151258422Y-118715500D01*
X151452826Y-118684709D01*
X151640025Y-118623884D01*
X151815405Y-118534524D01*
X151974646Y-118418828D01*
X152113828Y-118279646D01*
X152229524Y-118120405D01*
X152318884Y-117945025D01*
X152379709Y-117757826D01*
X152403360Y-117608500D01*
X152410500Y-117563422D01*
X152410500Y-117366577D01*
X152379709Y-117172173D01*
X152340888Y-117052695D01*
X152318884Y-116984975D01*
X152318882Y-116984972D01*
X152318882Y-116984970D01*
X152256508Y-116862554D01*
X152229524Y-116809595D01*
X152113828Y-116650354D01*
X151974646Y-116511172D01*
X151815405Y-116395476D01*
X151761492Y-116368006D01*
X151640029Y-116306117D01*
X151452826Y-116245290D01*
X151258422Y-116214500D01*
X151258417Y-116214500D01*
X151061583Y-116214500D01*
X151061578Y-116214500D01*
X150867173Y-116245290D01*
X150679970Y-116306117D01*
X150504594Y-116395476D01*
X150388037Y-116480161D01*
X150322230Y-116503641D01*
X150254176Y-116487816D01*
X150227470Y-116467524D01*
X141046819Y-107286873D01*
X141013334Y-107225550D01*
X141010500Y-107199192D01*
X141010500Y-101420807D01*
X141030185Y-101353768D01*
X141046815Y-101333130D01*
X141420886Y-100959058D01*
X141482207Y-100925575D01*
X141527959Y-100924268D01*
X141622113Y-100939180D01*
X141693579Y-100950500D01*
X141693583Y-100950500D01*
X141890422Y-100950500D01*
X142084826Y-100919709D01*
X142105505Y-100912990D01*
X142272025Y-100858884D01*
X142447405Y-100769524D01*
X142606646Y-100653828D01*
X142745828Y-100514646D01*
X142861524Y-100355405D01*
X142950884Y-100180025D01*
X143011709Y-99992826D01*
X143042500Y-99798422D01*
X143042500Y-99601577D01*
X143011709Y-99407173D01*
X142950882Y-99219970D01*
X142861521Y-99044590D01*
X142819596Y-98986886D01*
X142796115Y-98921080D01*
X142811940Y-98853026D01*
X142862045Y-98804331D01*
X142919913Y-98790000D01*
X146558638Y-98790000D01*
X146625677Y-98809685D01*
X146646319Y-98826319D01*
X146863681Y-99043681D01*
X146897166Y-99105004D01*
X146900000Y-99131362D01*
X146900000Y-109680000D01*
X157023681Y-119803681D01*
X157057166Y-119865004D01*
X157060000Y-119891362D01*
X157060000Y-120308638D01*
X157040315Y-120375677D01*
X157023681Y-120396319D01*
X156756319Y-120663681D01*
X156694996Y-120697166D01*
X156668638Y-120700000D01*
X123841362Y-120700000D01*
X123774323Y-120680315D01*
X123753681Y-120663681D01*
X123386319Y-120296319D01*
X123352834Y-120234996D01*
X123350000Y-120208638D01*
X123350000Y-109332838D01*
X123369685Y-109265799D01*
X123422489Y-109220044D01*
X123491647Y-109210100D01*
X123546884Y-109232520D01*
X123588334Y-109262635D01*
X123617284Y-109283669D01*
X123803179Y-109378387D01*
X123803181Y-109378387D01*
X123803184Y-109378389D01*
X123909545Y-109412948D01*
X124001610Y-109442862D01*
X124207676Y-109475500D01*
X124207681Y-109475500D01*
X124416324Y-109475500D01*
X124586339Y-109448572D01*
X124655632Y-109457526D01*
X124693418Y-109483364D01*
X127363181Y-112153126D01*
X127396666Y-112214449D01*
X127399500Y-112240807D01*
X127399500Y-116266025D01*
X127379815Y-116333064D01*
X127348386Y-116366343D01*
X127186493Y-116483966D01*
X127038966Y-116631493D01*
X126916330Y-116800285D01*
X126821612Y-116986179D01*
X126757137Y-117184610D01*
X126724500Y-117390675D01*
X126724500Y-117599324D01*
X126757137Y-117805389D01*
X126821612Y-118003820D01*
X126910485Y-118178243D01*
X126916330Y-118189714D01*
X127038965Y-118358505D01*
X127186495Y-118506035D01*
X127355286Y-118628670D01*
X127443116Y-118673421D01*
X127541179Y-118723387D01*
X127541181Y-118723387D01*
X127541184Y-118723389D01*
X127647545Y-118757948D01*
X127739610Y-118787862D01*
X127945676Y-118820500D01*
X127945681Y-118820500D01*
X128154324Y-118820500D01*
X128360389Y-118787862D01*
X128558816Y-118723389D01*
X128744714Y-118628670D01*
X128913505Y-118506035D01*
X129061035Y-118358505D01*
X129183670Y-118189714D01*
X129189515Y-118178243D01*
X129237489Y-118127447D01*
X129305310Y-118110651D01*
X129371445Y-118133188D01*
X129410485Y-118178243D01*
X129416328Y-118189712D01*
X129481670Y-118279646D01*
X129538965Y-118358505D01*
X129686495Y-118506035D01*
X129855286Y-118628670D01*
X129943116Y-118673421D01*
X130041179Y-118723387D01*
X130041181Y-118723387D01*
X130041184Y-118723389D01*
X130147545Y-118757948D01*
X130239610Y-118787862D01*
X130445676Y-118820500D01*
X130445681Y-118820500D01*
X130654324Y-118820500D01*
X130860389Y-118787862D01*
X131058816Y-118723389D01*
X131244714Y-118628670D01*
X131413505Y-118506035D01*
X131561035Y-118358505D01*
X131683670Y-118189714D01*
X131689515Y-118178243D01*
X131737489Y-118127447D01*
X131805310Y-118110651D01*
X131871445Y-118133188D01*
X131910485Y-118178243D01*
X131916328Y-118189712D01*
X131981670Y-118279646D01*
X132038965Y-118358505D01*
X132186495Y-118506035D01*
X132355286Y-118628670D01*
X132443116Y-118673421D01*
X132541179Y-118723387D01*
X132541181Y-118723387D01*
X132541184Y-118723389D01*
X132647545Y-118757948D01*
X132739610Y-118787862D01*
X132945676Y-118820500D01*
X132945681Y-118820500D01*
X133154324Y-118820500D01*
X133360389Y-118787862D01*
X133558816Y-118723389D01*
X133744714Y-118628670D01*
X133913505Y-118506035D01*
X134061035Y-118358505D01*
X134183670Y-118189714D01*
X134189515Y-118178243D01*
X134237489Y-118127447D01*
X134305310Y-118110651D01*
X134371445Y-118133188D01*
X134410485Y-118178243D01*
X134416328Y-118189712D01*
X134481670Y-118279646D01*
X134538965Y-118358505D01*
X134686495Y-118506035D01*
X134855286Y-118628670D01*
X134943116Y-118673421D01*
X135041179Y-118723387D01*
X135041181Y-118723387D01*
X135041184Y-118723389D01*
X135147545Y-118757948D01*
X135239610Y-118787862D01*
X135445676Y-118820500D01*
X135445681Y-118820500D01*
X135654324Y-118820500D01*
X135860389Y-118787862D01*
X136058816Y-118723389D01*
X136244714Y-118628670D01*
X136413505Y-118506035D01*
X136561035Y-118358505D01*
X136683670Y-118189714D01*
X136778389Y-118003816D01*
X136842862Y-117805389D01*
X136850395Y-117757826D01*
X136875500Y-117599324D01*
X136875500Y-117390675D01*
X136842862Y-117184610D01*
X136800000Y-117052695D01*
X136778389Y-116986184D01*
X136778387Y-116986181D01*
X136778387Y-116986179D01*
X136702899Y-116838025D01*
X136683670Y-116800286D01*
X136561035Y-116631495D01*
X136413505Y-116483965D01*
X136291714Y-116395478D01*
X136251614Y-116366343D01*
X136208949Y-116311012D01*
X136200500Y-116266025D01*
X136200500Y-113855928D01*
X136175502Y-113730260D01*
X136175500Y-113730254D01*
X136155189Y-113681221D01*
X136155187Y-113681216D01*
X136126468Y-113611878D01*
X136126462Y-113611868D01*
X136055278Y-113505332D01*
X136055272Y-113505325D01*
X131696819Y-109146872D01*
X131663334Y-109085549D01*
X131660500Y-109059191D01*
X131660500Y-100943394D01*
X131680185Y-100876355D01*
X131723278Y-100837373D01*
X131722566Y-100836211D01*
X131726702Y-100833675D01*
X131726714Y-100833670D01*
X131895505Y-100711035D01*
X132043035Y-100563505D01*
X132165670Y-100394714D01*
X132260389Y-100208816D01*
X132324862Y-100010389D01*
X132327644Y-99992826D01*
X132357500Y-99804324D01*
X132357500Y-99595675D01*
X132324862Y-99389610D01*
X132260387Y-99191179D01*
X132165669Y-99005284D01*
X132152302Y-98986887D01*
X132128821Y-98921081D01*
X132144645Y-98853027D01*
X132194750Y-98804331D01*
X132252619Y-98790000D01*
X136450087Y-98790000D01*
X136517126Y-98809685D01*
G37*
%TD.AperFunction*%
%TD*%
%TA.AperFunction,Conductor*%
%TO.N,/PACK+_RAW*%
G36*
X167985677Y-98809685D02*
G01*
X168006319Y-98826319D01*
X168193681Y-99013681D01*
X168227166Y-99075004D01*
X168230000Y-99101362D01*
X168230000Y-103338638D01*
X168210315Y-103405677D01*
X168193681Y-103426319D01*
X167946319Y-103673681D01*
X167884996Y-103707166D01*
X167858638Y-103710000D01*
X147881362Y-103710000D01*
X147814323Y-103690315D01*
X147793681Y-103673681D01*
X147546319Y-103426319D01*
X147512834Y-103364996D01*
X147510000Y-103338638D01*
X147510000Y-101353634D01*
X157096500Y-101353634D01*
X157096500Y-101586365D01*
X157096501Y-101586382D01*
X157126878Y-101817122D01*
X157187120Y-102041947D01*
X157276180Y-102256960D01*
X157276188Y-102256976D01*
X157392553Y-102458524D01*
X157392564Y-102458540D01*
X157534242Y-102643179D01*
X157534248Y-102643186D01*
X157698813Y-102807751D01*
X157698819Y-102807756D01*
X157883468Y-102949442D01*
X157883475Y-102949446D01*
X158085023Y-103065811D01*
X158085039Y-103065819D01*
X158300052Y-103154879D01*
X158300054Y-103154879D01*
X158300060Y-103154882D01*
X158524874Y-103215121D01*
X158755628Y-103245500D01*
X158755635Y-103245500D01*
X158988365Y-103245500D01*
X158988372Y-103245500D01*
X159219126Y-103215121D01*
X159443940Y-103154882D01*
X159501953Y-103130852D01*
X159658960Y-103065819D01*
X159658963Y-103065817D01*
X159658969Y-103065815D01*
X159860532Y-102949442D01*
X160045181Y-102807756D01*
X160209756Y-102643181D01*
X160351442Y-102458532D01*
X160467815Y-102256969D01*
X160556882Y-102041940D01*
X160617121Y-101817126D01*
X160647500Y-101586372D01*
X160647500Y-101353628D01*
X160617121Y-101122874D01*
X160556882Y-100898060D01*
X160556879Y-100898052D01*
X160467819Y-100683039D01*
X160467811Y-100683023D01*
X160351446Y-100481475D01*
X160351442Y-100481468D01*
X160209756Y-100296819D01*
X160209751Y-100296813D01*
X160045186Y-100132248D01*
X160045179Y-100132242D01*
X159860540Y-99990564D01*
X159860538Y-99990562D01*
X159860532Y-99990558D01*
X159860527Y-99990555D01*
X159860524Y-99990553D01*
X159658976Y-99874188D01*
X159658960Y-99874180D01*
X159443947Y-99785120D01*
X159219122Y-99724878D01*
X158988382Y-99694501D01*
X158988377Y-99694500D01*
X158988372Y-99694500D01*
X158755628Y-99694500D01*
X158755622Y-99694500D01*
X158755617Y-99694501D01*
X158524877Y-99724878D01*
X158300052Y-99785120D01*
X158085039Y-99874180D01*
X158085023Y-99874188D01*
X157883475Y-99990553D01*
X157883459Y-99990564D01*
X157698820Y-100132242D01*
X157698813Y-100132248D01*
X157534248Y-100296813D01*
X157534242Y-100296820D01*
X157392564Y-100481459D01*
X157392553Y-100481475D01*
X157276188Y-100683023D01*
X157276180Y-100683039D01*
X157187120Y-100898052D01*
X157126878Y-101122877D01*
X157096501Y-101353617D01*
X157096500Y-101353634D01*
X147510000Y-101353634D01*
X147510000Y-99101362D01*
X147529685Y-99034323D01*
X147546319Y-99013681D01*
X147733681Y-98826319D01*
X147795004Y-98792834D01*
X147821362Y-98790000D01*
X167918638Y-98790000D01*
X167985677Y-98809685D01*
G37*
%TD.AperFunction*%
%TD*%
%TA.AperFunction,Conductor*%
%TO.N,/+BATT*%
G36*
X158375195Y-104429685D02*
G01*
X158420950Y-104482489D01*
X158430894Y-104551647D01*
X158401869Y-104615203D01*
X158343091Y-104652977D01*
X158340276Y-104653767D01*
X158289535Y-104667363D01*
X158268052Y-104673120D01*
X158053039Y-104762180D01*
X158053023Y-104762188D01*
X157851475Y-104878553D01*
X157851459Y-104878564D01*
X157666820Y-105020242D01*
X157666813Y-105020248D01*
X157502248Y-105184813D01*
X157502242Y-105184820D01*
X157360564Y-105369459D01*
X157360553Y-105369475D01*
X157244188Y-105571023D01*
X157244180Y-105571039D01*
X157155120Y-105786052D01*
X157094878Y-106010877D01*
X157064501Y-106241617D01*
X157064500Y-106241634D01*
X157064500Y-106474365D01*
X157064501Y-106474382D01*
X157094878Y-106705122D01*
X157155120Y-106929947D01*
X157244180Y-107144960D01*
X157244188Y-107144976D01*
X157360553Y-107346524D01*
X157360564Y-107346540D01*
X157502242Y-107531179D01*
X157502248Y-107531186D01*
X157666813Y-107695751D01*
X157666820Y-107695757D01*
X157796588Y-107795331D01*
X157851468Y-107837442D01*
X157851475Y-107837446D01*
X158053023Y-107953811D01*
X158053039Y-107953819D01*
X158268052Y-108042879D01*
X158268054Y-108042879D01*
X158268060Y-108042882D01*
X158492874Y-108103121D01*
X158723628Y-108133500D01*
X158723635Y-108133500D01*
X158956365Y-108133500D01*
X158956372Y-108133500D01*
X159187126Y-108103121D01*
X159411940Y-108042882D01*
X159469953Y-108018852D01*
X159626960Y-107953819D01*
X159626963Y-107953817D01*
X159626969Y-107953815D01*
X159828532Y-107837442D01*
X160013181Y-107695756D01*
X160177756Y-107531181D01*
X160319442Y-107346532D01*
X160435815Y-107144969D01*
X160452234Y-107105331D01*
X160524879Y-106929947D01*
X160524878Y-106929947D01*
X160524882Y-106929940D01*
X160585121Y-106705126D01*
X160615500Y-106474372D01*
X160615500Y-106241628D01*
X160585121Y-106010874D01*
X160524882Y-105786060D01*
X160524879Y-105786052D01*
X160435819Y-105571039D01*
X160435811Y-105571023D01*
X160319446Y-105369475D01*
X160319442Y-105369468D01*
X160225984Y-105247671D01*
X160177757Y-105184820D01*
X160177751Y-105184813D01*
X160013186Y-105020248D01*
X160013179Y-105020242D01*
X159828540Y-104878564D01*
X159828538Y-104878562D01*
X159828532Y-104878558D01*
X159828527Y-104878555D01*
X159828524Y-104878553D01*
X159626976Y-104762188D01*
X159626960Y-104762180D01*
X159411947Y-104673120D01*
X159411940Y-104673118D01*
X159339749Y-104653774D01*
X159280090Y-104617410D01*
X159249561Y-104554563D01*
X159257856Y-104485187D01*
X159302341Y-104431309D01*
X159368893Y-104410035D01*
X159371844Y-104410000D01*
X167768638Y-104410000D01*
X167835677Y-104429685D01*
X167856319Y-104446319D01*
X168223681Y-104813681D01*
X168257166Y-104875004D01*
X168260000Y-104901362D01*
X168260000Y-115898702D01*
X168240315Y-115965741D01*
X168187511Y-116011496D01*
X168118353Y-116021440D01*
X168054797Y-115992415D01*
X168018069Y-115937021D01*
X167998884Y-115877975D01*
X167998882Y-115877972D01*
X167998882Y-115877970D01*
X167909523Y-115702594D01*
X167793828Y-115543354D01*
X167654646Y-115404172D01*
X167495405Y-115288476D01*
X167320029Y-115199117D01*
X167132826Y-115138290D01*
X166938422Y-115107500D01*
X166938417Y-115107500D01*
X166741583Y-115107500D01*
X166741578Y-115107500D01*
X166547173Y-115138290D01*
X166359970Y-115199117D01*
X166184594Y-115288476D01*
X166093741Y-115354485D01*
X166025354Y-115404172D01*
X166025352Y-115404174D01*
X166025351Y-115404174D01*
X165886174Y-115543351D01*
X165886174Y-115543352D01*
X165886172Y-115543354D01*
X165836485Y-115611741D01*
X165770476Y-115702594D01*
X165681117Y-115877970D01*
X165620290Y-116065173D01*
X165589500Y-116259577D01*
X165589500Y-116456422D01*
X165620290Y-116650826D01*
X165681117Y-116838029D01*
X165755990Y-116984975D01*
X165770476Y-117013405D01*
X165886172Y-117172646D01*
X166025354Y-117311828D01*
X166184595Y-117427524D01*
X166267455Y-117469743D01*
X166359970Y-117516882D01*
X166359972Y-117516882D01*
X166359975Y-117516884D01*
X166460317Y-117549487D01*
X166547173Y-117577709D01*
X166741578Y-117608500D01*
X166741583Y-117608500D01*
X166938422Y-117608500D01*
X167132826Y-117577709D01*
X167320025Y-117516884D01*
X167495405Y-117427524D01*
X167654646Y-117311828D01*
X167793828Y-117172646D01*
X167909524Y-117013405D01*
X167998884Y-116838025D01*
X168018069Y-116778978D01*
X168057507Y-116721303D01*
X168121865Y-116694105D01*
X168190712Y-116706020D01*
X168242187Y-116753264D01*
X168260000Y-116817297D01*
X168260000Y-120128638D01*
X168240315Y-120195677D01*
X168223681Y-120216319D01*
X167786319Y-120653681D01*
X167724996Y-120687166D01*
X167698638Y-120690000D01*
X158721362Y-120690000D01*
X158654323Y-120670315D01*
X158633681Y-120653681D01*
X155800181Y-117820181D01*
X155766696Y-117758858D01*
X155771680Y-117689166D01*
X155813552Y-117633233D01*
X155879016Y-117608816D01*
X155887862Y-117608500D01*
X155938422Y-117608500D01*
X156132826Y-117577709D01*
X156320025Y-117516884D01*
X156495405Y-117427524D01*
X156654646Y-117311828D01*
X156793828Y-117172646D01*
X156909524Y-117013405D01*
X156998884Y-116838025D01*
X157059709Y-116650826D01*
X157059784Y-116650354D01*
X157090500Y-116456422D01*
X157090500Y-116259577D01*
X157059709Y-116065173D01*
X157018069Y-115937021D01*
X156998884Y-115877975D01*
X156998882Y-115877972D01*
X156998882Y-115877970D01*
X156909523Y-115702594D01*
X156793828Y-115543354D01*
X156654646Y-115404172D01*
X156495405Y-115288476D01*
X156320029Y-115199117D01*
X156132826Y-115138290D01*
X155938422Y-115107500D01*
X155938417Y-115107500D01*
X155741583Y-115107500D01*
X155741578Y-115107500D01*
X155547173Y-115138290D01*
X155359970Y-115199117D01*
X155184594Y-115288476D01*
X155093741Y-115354485D01*
X155025354Y-115404172D01*
X155025352Y-115404174D01*
X155025351Y-115404174D01*
X154886174Y-115543351D01*
X154886174Y-115543352D01*
X154886172Y-115543354D01*
X154836485Y-115611741D01*
X154770476Y-115702594D01*
X154681117Y-115877970D01*
X154620290Y-116065173D01*
X154589500Y-116259577D01*
X154589500Y-116310138D01*
X154569815Y-116377177D01*
X154517011Y-116422932D01*
X154447853Y-116432876D01*
X154384297Y-116403851D01*
X154377819Y-116397819D01*
X147766319Y-109786319D01*
X147732834Y-109724996D01*
X147730000Y-109698638D01*
X147730000Y-106709502D01*
X147749685Y-106642463D01*
X147802489Y-106596708D01*
X147867255Y-106586213D01*
X147907127Y-106590500D01*
X149252872Y-106590499D01*
X149312483Y-106584091D01*
X149447331Y-106533796D01*
X149562546Y-106447546D01*
X149648796Y-106332331D01*
X149699091Y-106197483D01*
X149705500Y-106137873D01*
X149705499Y-105442128D01*
X149699091Y-105382517D01*
X149648796Y-105247669D01*
X149648795Y-105247668D01*
X149648793Y-105247664D01*
X149562547Y-105132455D01*
X149562544Y-105132452D01*
X149447335Y-105046206D01*
X149447328Y-105046202D01*
X149312482Y-104995908D01*
X149312483Y-104995908D01*
X149252883Y-104989501D01*
X149252881Y-104989500D01*
X149252873Y-104989500D01*
X149252864Y-104989500D01*
X147907129Y-104989500D01*
X147907120Y-104989501D01*
X147867252Y-104993787D01*
X147851846Y-104991007D01*
X147836353Y-104993235D01*
X147818167Y-104984930D01*
X147798493Y-104981380D01*
X147787036Y-104970712D01*
X147772797Y-104964210D01*
X147761987Y-104947390D01*
X147747357Y-104933768D01*
X147742980Y-104917814D01*
X147735023Y-104905432D01*
X147730000Y-104870497D01*
X147730000Y-104821362D01*
X147749685Y-104754323D01*
X147766319Y-104733681D01*
X148053681Y-104446319D01*
X148115004Y-104412834D01*
X148141362Y-104410000D01*
X158308156Y-104410000D01*
X158375195Y-104429685D01*
G37*
%TD.AperFunction*%
%TD*%
M02*
