M48
; DRILL file {KiCad 9.0.6} date 2026-08-06T12:25:29+0300
; FORMAT={-:-/ absolute / metric / decimal}
; #@! TF.CreationDate,2026-08-06T12:25:29+03:00
; #@! TF.GenerationSoftware,Kicad,Pcbnew,9.0.6
; #@! TF.FileFunction,Plated,1,2,PTH
FMAT,2
METRIC
; #@! TA.AperFunction,Plated,PTH,ComponentDrill
T1C1.000
; #@! TA.AperFunction,Plated,PTH,ComponentDrill
T2C1.100
; #@! TA.AperFunction,Plated,PTH,ComponentDrill
T3C1.200
; #@! TA.AperFunction,Plated,PTH,ComponentDrill
T4C1.700
%
G90
G05
T1
X143.66Y-117.465
X146.16Y-117.465
X148.66Y-117.465
X151.16Y-117.465
X155.84Y-91.582
X155.84Y-116.358
X166.84Y-91.582
X166.84Y-116.358
T2
X125.55Y-117.495
X128.05Y-117.495
X130.55Y-117.495
X133.05Y-117.495
X135.55Y-117.495
X138.05Y-117.495
T3
X151.827Y-102.593
X151.827Y-107.692
T4
X158.84Y-101.582
X158.84Y-106.358
X163.84Y-101.582
X163.84Y-106.358
M30
