%TF.GenerationSoftware,KiCad,Pcbnew,9.0.6*%
%TF.CreationDate,2026-08-02T21:27:32+03:00*%
%TF.ProjectId,BIFROST-3S,42494652-4f53-4542-9d33-532e6b696361,rev?*%
%TF.SameCoordinates,Original*%
%TF.FileFunction,Copper,L2,Bot*%
%TF.FilePolarity,Positive*%
%FSLAX46Y46*%
G04 Gerber Fmt 4.6, Leading zero omitted, Abs format (unit mm)*
G04 Created by KiCad (PCBNEW 9.0.6) date 2026-08-02 21:27:32*
%MOMM*%
%LPD*%
G01*
G04 APERTURE LIST*
%TA.AperFunction,ComponentPad*%
%ADD10R,1.800000X1.800000*%
%TD*%
%TA.AperFunction,ComponentPad*%
%ADD11C,1.800000*%
%TD*%
%TA.AperFunction,ComponentPad*%
%ADD12C,1.500000*%
%TD*%
%TA.AperFunction,ComponentPad*%
%ADD13C,2.550000*%
%TD*%
%TA.AperFunction,ComponentPad*%
%ADD14R,1.650000X1.650000*%
%TD*%
%TA.AperFunction,ComponentPad*%
%ADD15C,1.650000*%
%TD*%
G04 APERTURE END LIST*
D10*
%TO.P,F1,1,1*%
%TO.N,/PACK+_RAW*%
X161197500Y-104811500D03*
D11*
%TO.P,F1,2,2*%
%TO.N,/+BATT*%
X156097500Y-104811500D03*
%TD*%
D12*
%TO.P,J3,1,1*%
%TO.N,GND*%
X137030000Y-118860000D03*
%TO.P,J3,2,2*%
%TO.N,/BQ2_TS3*%
X139530000Y-118860000D03*
%TO.P,J3,3,3*%
%TO.N,/BQ2_TS2*%
X142030000Y-118860000D03*
%TO.P,J3,4,4*%
%TO.N,/BQ2_TS1*%
X144530000Y-118860000D03*
%TD*%
D13*
%TO.P,J4,1,1*%
%TO.N,GND*%
X161310000Y-109298000D03*
%TO.P,J4,2,2*%
%TO.N,/+BATT*%
X156310000Y-109298000D03*
D12*
%TO.P,J4,3,3*%
%TO.N,unconnected-(J4-Pad3)*%
X153310000Y-119298000D03*
%TO.P,J4,4,4*%
%TO.N,unconnected-(J4-Pad4)*%
X164310000Y-119298000D03*
%TD*%
D14*
%TO.P,J1,1,1*%
%TO.N,GND*%
X118010000Y-118860000D03*
D15*
%TO.P,J1,2,2*%
%TO.N,/BAT1*%
X120510000Y-118860000D03*
%TO.P,J1,3,3*%
%TO.N,/BAT2*%
X123010000Y-118860000D03*
%TO.P,J1,4,4*%
%TO.N,/BAT3{slash}PACK+*%
X125510000Y-118860000D03*
%TO.P,J1,5,5*%
%TO.N,/BQ_TS*%
X128010000Y-118860000D03*
%TO.P,J1,6,6*%
%TO.N,GND*%
X130510000Y-118860000D03*
%TD*%
D13*
%TO.P,J5,1,1*%
%TO.N,GND*%
X156516250Y-100250000D03*
%TO.P,J5,2,2*%
%TO.N,/PACK+_RAW*%
X161516250Y-100250000D03*
D12*
%TO.P,J5,3,3*%
%TO.N,unconnected-(J5-Pad3)*%
X164516250Y-90250000D03*
%TO.P,J5,4,4*%
%TO.N,unconnected-(J5-Pad4)*%
X153516250Y-90250000D03*
%TD*%
%TA.AperFunction,Conductor*%
%TO.N,GND*%
G36*
X167435677Y-87219685D02*
G01*
X167456319Y-87236319D01*
X168073681Y-87853681D01*
X168107166Y-87915004D01*
X168110000Y-87941362D01*
X168110000Y-121558638D01*
X168090315Y-121625677D01*
X168073681Y-121646319D01*
X167586319Y-122133681D01*
X167524996Y-122167166D01*
X167498638Y-122170000D01*
X115621362Y-122170000D01*
X115554323Y-122150315D01*
X115533681Y-122133681D01*
X115216319Y-121816319D01*
X115182834Y-121754996D01*
X115180000Y-121728638D01*
X115180000Y-118755675D01*
X119184500Y-118755675D01*
X119184500Y-118964324D01*
X119217137Y-119170389D01*
X119281612Y-119368820D01*
X119356301Y-119515405D01*
X119376330Y-119554714D01*
X119498965Y-119723505D01*
X119646495Y-119871035D01*
X119815286Y-119993670D01*
X119864768Y-120018882D01*
X120001179Y-120088387D01*
X120001181Y-120088387D01*
X120001184Y-120088389D01*
X120107545Y-120122948D01*
X120199610Y-120152862D01*
X120405676Y-120185500D01*
X120405681Y-120185500D01*
X120614324Y-120185500D01*
X120820389Y-120152862D01*
X121018816Y-120088389D01*
X121204714Y-119993670D01*
X121373505Y-119871035D01*
X121521035Y-119723505D01*
X121643670Y-119554714D01*
X121649515Y-119543243D01*
X121697489Y-119492447D01*
X121765310Y-119475651D01*
X121831445Y-119498188D01*
X121870485Y-119543243D01*
X121876328Y-119554712D01*
X121902567Y-119590826D01*
X121998965Y-119723505D01*
X122146495Y-119871035D01*
X122315286Y-119993670D01*
X122364768Y-120018882D01*
X122501179Y-120088387D01*
X122501181Y-120088387D01*
X122501184Y-120088389D01*
X122607545Y-120122948D01*
X122699610Y-120152862D01*
X122905676Y-120185500D01*
X122905681Y-120185500D01*
X123114324Y-120185500D01*
X123320389Y-120152862D01*
X123518816Y-120088389D01*
X123704714Y-119993670D01*
X123873505Y-119871035D01*
X124021035Y-119723505D01*
X124143670Y-119554714D01*
X124149515Y-119543243D01*
X124197489Y-119492447D01*
X124265310Y-119475651D01*
X124331445Y-119498188D01*
X124370485Y-119543243D01*
X124376328Y-119554712D01*
X124402567Y-119590826D01*
X124498965Y-119723505D01*
X124646495Y-119871035D01*
X124815286Y-119993670D01*
X124864768Y-120018882D01*
X125001179Y-120088387D01*
X125001181Y-120088387D01*
X125001184Y-120088389D01*
X125107545Y-120122948D01*
X125199610Y-120152862D01*
X125405676Y-120185500D01*
X125405681Y-120185500D01*
X125614324Y-120185500D01*
X125820389Y-120152862D01*
X126018816Y-120088389D01*
X126204714Y-119993670D01*
X126373505Y-119871035D01*
X126521035Y-119723505D01*
X126643670Y-119554714D01*
X126649515Y-119543243D01*
X126697489Y-119492447D01*
X126765310Y-119475651D01*
X126831445Y-119498188D01*
X126870485Y-119543243D01*
X126876328Y-119554712D01*
X126902567Y-119590826D01*
X126998965Y-119723505D01*
X127146495Y-119871035D01*
X127315286Y-119993670D01*
X127364768Y-120018882D01*
X127501179Y-120088387D01*
X127501181Y-120088387D01*
X127501184Y-120088389D01*
X127607545Y-120122948D01*
X127699610Y-120152862D01*
X127905676Y-120185500D01*
X127905681Y-120185500D01*
X128114324Y-120185500D01*
X128320389Y-120152862D01*
X128518816Y-120088389D01*
X128704714Y-119993670D01*
X128873505Y-119871035D01*
X129021035Y-119723505D01*
X129143670Y-119554714D01*
X129238389Y-119368816D01*
X129302862Y-119170389D01*
X129305644Y-119152826D01*
X129335500Y-118964324D01*
X129335500Y-118761577D01*
X138279500Y-118761577D01*
X138279500Y-118958422D01*
X138310290Y-119152826D01*
X138371117Y-119340029D01*
X138460476Y-119515405D01*
X138576172Y-119674646D01*
X138715354Y-119813828D01*
X138874595Y-119929524D01*
X138957455Y-119971743D01*
X139049970Y-120018882D01*
X139049972Y-120018882D01*
X139049975Y-120018884D01*
X139150317Y-120051487D01*
X139237173Y-120079709D01*
X139431578Y-120110500D01*
X139431583Y-120110500D01*
X139628422Y-120110500D01*
X139822826Y-120079709D01*
X140010025Y-120018884D01*
X140185405Y-119929524D01*
X140344646Y-119813828D01*
X140483828Y-119674646D01*
X140599524Y-119515405D01*
X140669515Y-119378038D01*
X140717489Y-119327243D01*
X140785310Y-119310448D01*
X140851445Y-119332985D01*
X140890484Y-119378038D01*
X140960476Y-119515405D01*
X141076172Y-119674646D01*
X141215354Y-119813828D01*
X141374595Y-119929524D01*
X141457455Y-119971743D01*
X141549970Y-120018882D01*
X141549972Y-120018882D01*
X141549975Y-120018884D01*
X141650317Y-120051487D01*
X141737173Y-120079709D01*
X141931578Y-120110500D01*
X141931583Y-120110500D01*
X142128422Y-120110500D01*
X142322826Y-120079709D01*
X142510025Y-120018884D01*
X142685405Y-119929524D01*
X142844646Y-119813828D01*
X142983828Y-119674646D01*
X143099524Y-119515405D01*
X143169515Y-119378038D01*
X143217489Y-119327243D01*
X143285310Y-119310448D01*
X143351445Y-119332985D01*
X143390484Y-119378038D01*
X143460476Y-119515405D01*
X143576172Y-119674646D01*
X143715354Y-119813828D01*
X143874595Y-119929524D01*
X143957455Y-119971743D01*
X144049970Y-120018882D01*
X144049972Y-120018882D01*
X144049975Y-120018884D01*
X144150317Y-120051487D01*
X144237173Y-120079709D01*
X144431578Y-120110500D01*
X144431583Y-120110500D01*
X144628422Y-120110500D01*
X144822826Y-120079709D01*
X145010025Y-120018884D01*
X145185405Y-119929524D01*
X145344646Y-119813828D01*
X145483828Y-119674646D01*
X145599524Y-119515405D01*
X145688884Y-119340025D01*
X145734519Y-119199577D01*
X152059500Y-119199577D01*
X152059500Y-119396422D01*
X152090290Y-119590826D01*
X152151117Y-119778029D01*
X152228308Y-119929524D01*
X152240476Y-119953405D01*
X152356172Y-120112646D01*
X152495354Y-120251828D01*
X152654595Y-120367524D01*
X152737455Y-120409743D01*
X152829970Y-120456882D01*
X152829972Y-120456882D01*
X152829975Y-120456884D01*
X152930317Y-120489487D01*
X153017173Y-120517709D01*
X153211578Y-120548500D01*
X153211583Y-120548500D01*
X153408422Y-120548500D01*
X153602826Y-120517709D01*
X153790025Y-120456884D01*
X153965405Y-120367524D01*
X154124646Y-120251828D01*
X154263828Y-120112646D01*
X154379524Y-119953405D01*
X154468884Y-119778025D01*
X154529709Y-119590826D01*
X154535429Y-119554712D01*
X154560500Y-119396422D01*
X154560500Y-119199577D01*
X163059500Y-119199577D01*
X163059500Y-119396422D01*
X163090290Y-119590826D01*
X163151117Y-119778029D01*
X163228308Y-119929524D01*
X163240476Y-119953405D01*
X163356172Y-120112646D01*
X163495354Y-120251828D01*
X163654595Y-120367524D01*
X163737455Y-120409743D01*
X163829970Y-120456882D01*
X163829972Y-120456882D01*
X163829975Y-120456884D01*
X163930317Y-120489487D01*
X164017173Y-120517709D01*
X164211578Y-120548500D01*
X164211583Y-120548500D01*
X164408422Y-120548500D01*
X164602826Y-120517709D01*
X164790025Y-120456884D01*
X164965405Y-120367524D01*
X165124646Y-120251828D01*
X165263828Y-120112646D01*
X165379524Y-119953405D01*
X165468884Y-119778025D01*
X165529709Y-119590826D01*
X165535429Y-119554712D01*
X165560500Y-119396422D01*
X165560500Y-119199577D01*
X165529709Y-119005173D01*
X165468882Y-118817970D01*
X165379523Y-118642594D01*
X165263828Y-118483354D01*
X165124646Y-118344172D01*
X164965405Y-118228476D01*
X164918534Y-118204594D01*
X164790029Y-118139117D01*
X164602826Y-118078290D01*
X164408422Y-118047500D01*
X164408417Y-118047500D01*
X164211583Y-118047500D01*
X164211578Y-118047500D01*
X164017173Y-118078290D01*
X163829970Y-118139117D01*
X163654594Y-118228476D01*
X163563741Y-118294485D01*
X163495354Y-118344172D01*
X163495352Y-118344174D01*
X163495351Y-118344174D01*
X163356174Y-118483351D01*
X163356174Y-118483352D01*
X163356172Y-118483354D01*
X163308034Y-118549610D01*
X163240476Y-118642594D01*
X163151117Y-118817970D01*
X163090290Y-119005173D01*
X163059500Y-119199577D01*
X154560500Y-119199577D01*
X154529709Y-119005173D01*
X154468882Y-118817970D01*
X154379523Y-118642594D01*
X154263828Y-118483354D01*
X154124646Y-118344172D01*
X153965405Y-118228476D01*
X153918534Y-118204594D01*
X153790029Y-118139117D01*
X153602826Y-118078290D01*
X153408422Y-118047500D01*
X153408417Y-118047500D01*
X153211583Y-118047500D01*
X153211578Y-118047500D01*
X153017173Y-118078290D01*
X152829970Y-118139117D01*
X152654594Y-118228476D01*
X152563741Y-118294485D01*
X152495354Y-118344172D01*
X152495352Y-118344174D01*
X152495351Y-118344174D01*
X152356174Y-118483351D01*
X152356174Y-118483352D01*
X152356172Y-118483354D01*
X152308034Y-118549610D01*
X152240476Y-118642594D01*
X152151117Y-118817970D01*
X152090290Y-119005173D01*
X152059500Y-119199577D01*
X145734519Y-119199577D01*
X145748551Y-119156392D01*
X145748552Y-119156390D01*
X145749706Y-119152836D01*
X145749706Y-119152833D01*
X145749709Y-119152826D01*
X145773095Y-119005173D01*
X145780500Y-118958422D01*
X145780500Y-118761577D01*
X145749709Y-118567173D01*
X145698494Y-118409551D01*
X145688884Y-118379975D01*
X145688882Y-118379972D01*
X145688882Y-118379970D01*
X145599523Y-118204594D01*
X145483828Y-118045354D01*
X145344646Y-117906172D01*
X145185405Y-117790476D01*
X145010029Y-117701117D01*
X144822826Y-117640290D01*
X144628422Y-117609500D01*
X144628417Y-117609500D01*
X144431583Y-117609500D01*
X144431578Y-117609500D01*
X144237173Y-117640290D01*
X144049970Y-117701117D01*
X143874594Y-117790476D01*
X143794092Y-117848965D01*
X143715354Y-117906172D01*
X143715352Y-117906174D01*
X143715351Y-117906174D01*
X143576174Y-118045351D01*
X143576174Y-118045352D01*
X143576172Y-118045354D01*
X143552242Y-118078291D01*
X143460476Y-118204594D01*
X143390485Y-118341960D01*
X143342510Y-118392756D01*
X143274689Y-118409551D01*
X143208554Y-118387014D01*
X143169515Y-118341960D01*
X143099523Y-118204594D01*
X142983828Y-118045354D01*
X142844646Y-117906172D01*
X142685405Y-117790476D01*
X142510029Y-117701117D01*
X142322826Y-117640290D01*
X142128422Y-117609500D01*
X142128417Y-117609500D01*
X141931583Y-117609500D01*
X141931578Y-117609500D01*
X141737173Y-117640290D01*
X141549970Y-117701117D01*
X141374594Y-117790476D01*
X141294092Y-117848965D01*
X141215354Y-117906172D01*
X141215352Y-117906174D01*
X141215351Y-117906174D01*
X141076174Y-118045351D01*
X141076174Y-118045352D01*
X141076172Y-118045354D01*
X141052242Y-118078291D01*
X140960476Y-118204594D01*
X140890485Y-118341960D01*
X140842510Y-118392756D01*
X140774689Y-118409551D01*
X140708554Y-118387014D01*
X140669515Y-118341960D01*
X140599523Y-118204594D01*
X140483828Y-118045354D01*
X140344646Y-117906172D01*
X140185405Y-117790476D01*
X140010029Y-117701117D01*
X139822826Y-117640290D01*
X139628422Y-117609500D01*
X139628417Y-117609500D01*
X139431583Y-117609500D01*
X139431578Y-117609500D01*
X139237173Y-117640290D01*
X139049970Y-117701117D01*
X138874594Y-117790476D01*
X138794092Y-117848965D01*
X138715354Y-117906172D01*
X138715352Y-117906174D01*
X138715351Y-117906174D01*
X138576174Y-118045351D01*
X138576174Y-118045352D01*
X138576172Y-118045354D01*
X138552242Y-118078291D01*
X138460476Y-118204594D01*
X138371117Y-118379970D01*
X138310290Y-118567173D01*
X138279500Y-118761577D01*
X129335500Y-118761577D01*
X129335500Y-118755675D01*
X129302862Y-118549610D01*
X129260000Y-118417695D01*
X129238389Y-118351184D01*
X129238387Y-118351181D01*
X129238387Y-118351179D01*
X129163698Y-118204594D01*
X129143670Y-118165286D01*
X129021035Y-117996495D01*
X128873505Y-117848965D01*
X128704714Y-117726330D01*
X128518820Y-117631612D01*
X128320389Y-117567137D01*
X128114324Y-117534500D01*
X128114319Y-117534500D01*
X127905681Y-117534500D01*
X127905676Y-117534500D01*
X127699610Y-117567137D01*
X127501179Y-117631612D01*
X127315285Y-117726330D01*
X127146493Y-117848966D01*
X126998966Y-117996493D01*
X126876330Y-118165286D01*
X126870484Y-118176759D01*
X126822508Y-118227554D01*
X126754687Y-118244348D01*
X126688553Y-118221809D01*
X126649516Y-118176759D01*
X126648303Y-118174380D01*
X126643670Y-118165286D01*
X126521035Y-117996495D01*
X126373505Y-117848965D01*
X126204714Y-117726330D01*
X126018820Y-117631612D01*
X125820389Y-117567137D01*
X125614324Y-117534500D01*
X125614319Y-117534500D01*
X125405681Y-117534500D01*
X125405676Y-117534500D01*
X125199610Y-117567137D01*
X125001179Y-117631612D01*
X124815285Y-117726330D01*
X124646493Y-117848966D01*
X124498966Y-117996493D01*
X124376330Y-118165286D01*
X124370484Y-118176759D01*
X124322508Y-118227554D01*
X124254687Y-118244348D01*
X124188553Y-118221809D01*
X124149516Y-118176759D01*
X124148303Y-118174380D01*
X124143670Y-118165286D01*
X124021035Y-117996495D01*
X123873505Y-117848965D01*
X123704714Y-117726330D01*
X123518820Y-117631612D01*
X123320389Y-117567137D01*
X123114324Y-117534500D01*
X123114319Y-117534500D01*
X122905681Y-117534500D01*
X122905676Y-117534500D01*
X122699610Y-117567137D01*
X122501179Y-117631612D01*
X122315285Y-117726330D01*
X122146493Y-117848966D01*
X121998966Y-117996493D01*
X121876330Y-118165286D01*
X121870484Y-118176759D01*
X121822508Y-118227554D01*
X121754687Y-118244348D01*
X121688553Y-118221809D01*
X121649516Y-118176759D01*
X121648303Y-118174380D01*
X121643670Y-118165286D01*
X121521035Y-117996495D01*
X121373505Y-117848965D01*
X121204714Y-117726330D01*
X121018820Y-117631612D01*
X120820389Y-117567137D01*
X120614324Y-117534500D01*
X120614319Y-117534500D01*
X120405681Y-117534500D01*
X120405676Y-117534500D01*
X120199610Y-117567137D01*
X120001179Y-117631612D01*
X119815285Y-117726330D01*
X119646493Y-117848966D01*
X119498966Y-117996493D01*
X119376330Y-118165285D01*
X119281612Y-118351179D01*
X119217137Y-118549610D01*
X119184500Y-118755675D01*
X115180000Y-118755675D01*
X115180000Y-109181634D01*
X154534500Y-109181634D01*
X154534500Y-109414365D01*
X154534501Y-109414382D01*
X154564878Y-109645122D01*
X154625120Y-109869947D01*
X154714180Y-110084960D01*
X154714188Y-110084976D01*
X154830553Y-110286524D01*
X154830564Y-110286540D01*
X154972242Y-110471179D01*
X154972248Y-110471186D01*
X155136813Y-110635751D01*
X155136819Y-110635756D01*
X155321468Y-110777442D01*
X155321475Y-110777446D01*
X155523023Y-110893811D01*
X155523039Y-110893819D01*
X155738052Y-110982879D01*
X155738054Y-110982879D01*
X155738060Y-110982882D01*
X155962874Y-111043121D01*
X156193628Y-111073500D01*
X156193635Y-111073500D01*
X156426365Y-111073500D01*
X156426372Y-111073500D01*
X156657126Y-111043121D01*
X156881940Y-110982882D01*
X156939953Y-110958852D01*
X157096960Y-110893819D01*
X157096963Y-110893817D01*
X157096969Y-110893815D01*
X157298532Y-110777442D01*
X157483181Y-110635756D01*
X157647756Y-110471181D01*
X157789442Y-110286532D01*
X157905815Y-110084969D01*
X157994882Y-109869940D01*
X158055121Y-109645126D01*
X158085500Y-109414372D01*
X158085500Y-109181628D01*
X158055121Y-108950874D01*
X157994882Y-108726060D01*
X157994879Y-108726052D01*
X157905819Y-108511039D01*
X157905811Y-108511023D01*
X157789446Y-108309475D01*
X157789442Y-108309468D01*
X157647756Y-108124819D01*
X157647751Y-108124813D01*
X157483186Y-107960248D01*
X157483179Y-107960242D01*
X157298540Y-107818564D01*
X157298538Y-107818562D01*
X157298532Y-107818558D01*
X157298527Y-107818555D01*
X157298524Y-107818553D01*
X157096976Y-107702188D01*
X157096960Y-107702180D01*
X156881947Y-107613120D01*
X156657122Y-107552878D01*
X156426382Y-107522501D01*
X156426377Y-107522500D01*
X156426372Y-107522500D01*
X156193628Y-107522500D01*
X156193622Y-107522500D01*
X156193617Y-107522501D01*
X155962877Y-107552878D01*
X155738052Y-107613120D01*
X155523039Y-107702180D01*
X155523023Y-107702188D01*
X155321475Y-107818553D01*
X155321459Y-107818564D01*
X155136820Y-107960242D01*
X155136813Y-107960248D01*
X154972248Y-108124813D01*
X154972242Y-108124820D01*
X154830564Y-108309459D01*
X154830553Y-108309475D01*
X154714188Y-108511023D01*
X154714180Y-108511039D01*
X154625120Y-108726052D01*
X154564878Y-108950877D01*
X154534501Y-109181617D01*
X154534500Y-109181634D01*
X115180000Y-109181634D01*
X115180000Y-104701278D01*
X154697000Y-104701278D01*
X154697000Y-104921721D01*
X154731485Y-105139452D01*
X154799603Y-105349103D01*
X154799604Y-105349106D01*
X154899687Y-105545525D01*
X155029252Y-105723858D01*
X155029256Y-105723863D01*
X155185136Y-105879743D01*
X155185141Y-105879747D01*
X155287106Y-105953828D01*
X155363478Y-106009315D01*
X155491875Y-106074737D01*
X155559893Y-106109395D01*
X155559896Y-106109396D01*
X155664721Y-106143455D01*
X155769549Y-106177515D01*
X155987278Y-106212000D01*
X155987279Y-106212000D01*
X156207721Y-106212000D01*
X156207722Y-106212000D01*
X156425451Y-106177515D01*
X156635106Y-106109395D01*
X156831522Y-106009315D01*
X157009865Y-105879742D01*
X157165742Y-105723865D01*
X157295315Y-105545522D01*
X157395395Y-105349106D01*
X157463515Y-105139451D01*
X157498000Y-104921722D01*
X157498000Y-104701278D01*
X157463515Y-104483549D01*
X157395395Y-104273894D01*
X157395395Y-104273893D01*
X157360737Y-104205875D01*
X157295315Y-104077478D01*
X157286443Y-104065267D01*
X157190486Y-103933191D01*
X157165747Y-103899141D01*
X157165743Y-103899136D01*
X157130242Y-103863635D01*
X159797000Y-103863635D01*
X159797000Y-105759370D01*
X159797001Y-105759376D01*
X159803408Y-105818983D01*
X159853702Y-105953828D01*
X159853706Y-105953835D01*
X159939952Y-106069044D01*
X159939955Y-106069047D01*
X160055164Y-106155293D01*
X160055171Y-106155297D01*
X160190017Y-106205591D01*
X160190016Y-106205591D01*
X160196944Y-106206335D01*
X160249627Y-106212000D01*
X162145372Y-106211999D01*
X162204983Y-106205591D01*
X162339831Y-106155296D01*
X162455046Y-106069046D01*
X162541296Y-105953831D01*
X162591591Y-105818983D01*
X162598000Y-105759373D01*
X162597999Y-103863628D01*
X162591591Y-103804017D01*
X162568929Y-103743258D01*
X162541297Y-103669171D01*
X162541293Y-103669164D01*
X162455047Y-103553955D01*
X162455044Y-103553952D01*
X162339835Y-103467706D01*
X162339828Y-103467702D01*
X162204982Y-103417408D01*
X162204983Y-103417408D01*
X162145383Y-103411001D01*
X162145381Y-103411000D01*
X162145373Y-103411000D01*
X162145364Y-103411000D01*
X160249629Y-103411000D01*
X160249623Y-103411001D01*
X160190016Y-103417408D01*
X160055171Y-103467702D01*
X160055164Y-103467706D01*
X159939955Y-103553952D01*
X159939952Y-103553955D01*
X159853706Y-103669164D01*
X159853702Y-103669171D01*
X159803408Y-103804017D01*
X159797001Y-103863616D01*
X159797001Y-103863623D01*
X159797000Y-103863635D01*
X157130242Y-103863635D01*
X157009863Y-103743256D01*
X157009858Y-103743252D01*
X156831525Y-103613687D01*
X156831524Y-103613686D01*
X156831522Y-103613685D01*
X156714291Y-103553952D01*
X156635106Y-103513604D01*
X156635103Y-103513603D01*
X156425452Y-103445485D01*
X156316586Y-103428242D01*
X156207722Y-103411000D01*
X155987278Y-103411000D01*
X155914701Y-103422495D01*
X155769547Y-103445485D01*
X155559896Y-103513603D01*
X155559893Y-103513604D01*
X155363474Y-103613687D01*
X155185141Y-103743252D01*
X155185136Y-103743256D01*
X155029256Y-103899136D01*
X155029252Y-103899141D01*
X154899687Y-104077474D01*
X154799604Y-104273893D01*
X154799603Y-104273896D01*
X154731485Y-104483547D01*
X154697000Y-104701278D01*
X115180000Y-104701278D01*
X115180000Y-100133634D01*
X159740750Y-100133634D01*
X159740750Y-100366365D01*
X159740751Y-100366382D01*
X159771128Y-100597122D01*
X159831370Y-100821947D01*
X159920430Y-101036960D01*
X159920438Y-101036976D01*
X160036803Y-101238524D01*
X160036814Y-101238540D01*
X160178492Y-101423179D01*
X160178498Y-101423186D01*
X160343063Y-101587751D01*
X160343069Y-101587756D01*
X160527718Y-101729442D01*
X160527725Y-101729446D01*
X160729273Y-101845811D01*
X160729289Y-101845819D01*
X160944302Y-101934879D01*
X160944304Y-101934879D01*
X160944310Y-101934882D01*
X161169124Y-101995121D01*
X161399878Y-102025500D01*
X161399885Y-102025500D01*
X161632615Y-102025500D01*
X161632622Y-102025500D01*
X161863376Y-101995121D01*
X162088190Y-101934882D01*
X162146203Y-101910852D01*
X162303210Y-101845819D01*
X162303213Y-101845817D01*
X162303219Y-101845815D01*
X162504782Y-101729442D01*
X162689431Y-101587756D01*
X162854006Y-101423181D01*
X162995692Y-101238532D01*
X163112065Y-101036969D01*
X163201132Y-100821940D01*
X163261371Y-100597126D01*
X163291750Y-100366372D01*
X163291750Y-100133628D01*
X163261371Y-99902874D01*
X163201132Y-99678060D01*
X163201129Y-99678052D01*
X163112069Y-99463039D01*
X163112061Y-99463023D01*
X162995696Y-99261475D01*
X162995692Y-99261468D01*
X162854006Y-99076819D01*
X162854001Y-99076813D01*
X162689436Y-98912248D01*
X162689429Y-98912242D01*
X162504790Y-98770564D01*
X162504788Y-98770562D01*
X162504782Y-98770558D01*
X162504777Y-98770555D01*
X162504774Y-98770553D01*
X162303226Y-98654188D01*
X162303210Y-98654180D01*
X162088197Y-98565120D01*
X161863372Y-98504878D01*
X161632632Y-98474501D01*
X161632627Y-98474500D01*
X161632622Y-98474500D01*
X161399878Y-98474500D01*
X161399872Y-98474500D01*
X161399867Y-98474501D01*
X161169127Y-98504878D01*
X160944302Y-98565120D01*
X160729289Y-98654180D01*
X160729273Y-98654188D01*
X160527725Y-98770553D01*
X160527709Y-98770564D01*
X160343070Y-98912242D01*
X160343063Y-98912248D01*
X160178498Y-99076813D01*
X160178492Y-99076820D01*
X160036814Y-99261459D01*
X160036803Y-99261475D01*
X159920438Y-99463023D01*
X159920430Y-99463039D01*
X159831370Y-99678052D01*
X159771128Y-99902877D01*
X159740751Y-100133617D01*
X159740750Y-100133634D01*
X115180000Y-100133634D01*
X115180000Y-90151577D01*
X152265750Y-90151577D01*
X152265750Y-90348422D01*
X152296540Y-90542826D01*
X152357367Y-90730029D01*
X152446726Y-90905405D01*
X152562422Y-91064646D01*
X152701604Y-91203828D01*
X152860845Y-91319524D01*
X152943705Y-91361743D01*
X153036220Y-91408882D01*
X153036222Y-91408882D01*
X153036225Y-91408884D01*
X153136567Y-91441487D01*
X153223423Y-91469709D01*
X153417828Y-91500500D01*
X153417833Y-91500500D01*
X153614672Y-91500500D01*
X153809076Y-91469709D01*
X153996275Y-91408884D01*
X154171655Y-91319524D01*
X154330896Y-91203828D01*
X154470078Y-91064646D01*
X154585774Y-90905405D01*
X154675134Y-90730025D01*
X154735959Y-90542826D01*
X154766750Y-90348422D01*
X154766750Y-90151577D01*
X163265750Y-90151577D01*
X163265750Y-90348422D01*
X163296540Y-90542826D01*
X163357367Y-90730029D01*
X163446726Y-90905405D01*
X163562422Y-91064646D01*
X163701604Y-91203828D01*
X163860845Y-91319524D01*
X163943705Y-91361743D01*
X164036220Y-91408882D01*
X164036222Y-91408882D01*
X164036225Y-91408884D01*
X164136567Y-91441487D01*
X164223423Y-91469709D01*
X164417828Y-91500500D01*
X164417833Y-91500500D01*
X164614672Y-91500500D01*
X164809076Y-91469709D01*
X164996275Y-91408884D01*
X165171655Y-91319524D01*
X165330896Y-91203828D01*
X165470078Y-91064646D01*
X165585774Y-90905405D01*
X165675134Y-90730025D01*
X165735959Y-90542826D01*
X165766750Y-90348422D01*
X165766750Y-90151577D01*
X165735959Y-89957173D01*
X165675132Y-89769970D01*
X165585773Y-89594594D01*
X165470078Y-89435354D01*
X165330896Y-89296172D01*
X165171655Y-89180476D01*
X164996279Y-89091117D01*
X164809076Y-89030290D01*
X164614672Y-88999500D01*
X164614667Y-88999500D01*
X164417833Y-88999500D01*
X164417828Y-88999500D01*
X164223423Y-89030290D01*
X164036220Y-89091117D01*
X163860844Y-89180476D01*
X163769991Y-89246485D01*
X163701604Y-89296172D01*
X163701602Y-89296174D01*
X163701601Y-89296174D01*
X163562424Y-89435351D01*
X163562424Y-89435352D01*
X163562422Y-89435354D01*
X163512735Y-89503741D01*
X163446726Y-89594594D01*
X163357367Y-89769970D01*
X163296540Y-89957173D01*
X163265750Y-90151577D01*
X154766750Y-90151577D01*
X154735959Y-89957173D01*
X154675132Y-89769970D01*
X154585773Y-89594594D01*
X154470078Y-89435354D01*
X154330896Y-89296172D01*
X154171655Y-89180476D01*
X153996279Y-89091117D01*
X153809076Y-89030290D01*
X153614672Y-88999500D01*
X153614667Y-88999500D01*
X153417833Y-88999500D01*
X153417828Y-88999500D01*
X153223423Y-89030290D01*
X153036220Y-89091117D01*
X152860844Y-89180476D01*
X152769991Y-89246485D01*
X152701604Y-89296172D01*
X152701602Y-89296174D01*
X152701601Y-89296174D01*
X152562424Y-89435351D01*
X152562424Y-89435352D01*
X152562422Y-89435354D01*
X152512735Y-89503741D01*
X152446726Y-89594594D01*
X152357367Y-89769970D01*
X152296540Y-89957173D01*
X152265750Y-90151577D01*
X115180000Y-90151577D01*
X115180000Y-87881362D01*
X115199685Y-87814323D01*
X115216319Y-87793681D01*
X115773681Y-87236319D01*
X115835004Y-87202834D01*
X115861362Y-87200000D01*
X167368638Y-87200000D01*
X167435677Y-87219685D01*
G37*
%TD.AperFunction*%
%TD*%
M02*
