%TF.GenerationSoftware,KiCad,Pcbnew,9.0.6*%
%TF.CreationDate,2026-08-10T18:58:00+03:00*%
%TF.ProjectId,BIFROST-3S,42494652-4f53-4542-9d33-532e6b696361,rev?*%
%TF.SameCoordinates,Original*%
%TF.FileFunction,Copper,L2,Inr*%
%TF.FilePolarity,Positive*%
%FSLAX46Y46*%
G04 Gerber Fmt 4.6, Leading zero omitted, Abs format (unit mm)*
G04 Created by KiCad (PCBNEW 9.0.6) date 2026-08-10 18:58:00*
%MOMM*%
%LPD*%
G01*
G04 APERTURE LIST*
%TA.AperFunction,ComponentPad*%
%ADD10C,1.500000*%
%TD*%
%TA.AperFunction,ComponentPad*%
%ADD11C,2.550000*%
%TD*%
%TA.AperFunction,ComponentPad*%
%ADD12R,1.650000X1.650000*%
%TD*%
%TA.AperFunction,ComponentPad*%
%ADD13C,1.650000*%
%TD*%
G04 APERTURE END LIST*
D10*
%TO.N,GND*%
%TO.C,J3*%
X143660000Y-117465000D03*
%TO.N,/BQ2_TS3*%
X146160000Y-117465000D03*
%TO.N,/BQ2_TS2*%
X148660000Y-117465000D03*
%TO.N,/BQ2_TS1*%
X151160000Y-117465000D03*
%TD*%
D11*
%TO.N,/+BATT*%
%TO.C,J4*%
X163840000Y-106358000D03*
%TO.N,GND*%
X158840000Y-106358000D03*
D10*
%TO.N,unconnected-(J4-Pad3)*%
X155840000Y-116358000D03*
%TO.N,unconnected-(J4-Pad4)*%
X166840000Y-116358000D03*
%TD*%
D12*
%TO.N,GND*%
%TO.C,J1*%
X125550000Y-117495000D03*
D13*
%TO.N,/BAT1*%
X128050000Y-117495000D03*
%TO.N,/BAT2*%
X130550000Y-117495000D03*
%TO.N,/BAT3{slash}PACK+*%
X133050000Y-117495000D03*
%TO.N,/BQ_TS*%
X135550000Y-117495000D03*
%TO.N,GND*%
X138050000Y-117495000D03*
%TD*%
%TO.N,GND*%
%TO.C,J2*%
X124312000Y-110468611D03*
%TO.N,/BAT1*%
X124312000Y-108150000D03*
%TO.N,/BAT2*%
X124312000Y-105831389D03*
%TO.N,/BAT3{slash}PACK+*%
X124312000Y-103512778D03*
%TO.N,/BQ_TS*%
X131032000Y-99700000D03*
%TO.N,GND*%
X133289000Y-99700000D03*
D10*
X135471000Y-99700000D03*
%TO.N,/BQ2_TS3*%
X137578000Y-99700000D03*
%TO.N,/BQ2_TS2*%
X139685000Y-99700000D03*
%TO.N,/BQ2_TS1*%
X141792000Y-99700000D03*
D11*
%TO.N,GND*%
X158872000Y-101470000D03*
%TO.N,/PACK+_RAW*%
X163492000Y-101470000D03*
%TD*%
%TA.AperFunction,Conductor*%
%TO.N,GND*%
G36*
X129878420Y-98809685D02*
G01*
X129924175Y-98862489D01*
X129934119Y-98931647D01*
X129911698Y-98986887D01*
X129898330Y-99005284D01*
X129803612Y-99191179D01*
X129739137Y-99389610D01*
X129706500Y-99595675D01*
X129706500Y-99804324D01*
X129739137Y-100010389D01*
X129803612Y-100208820D01*
X129878301Y-100355405D01*
X129898330Y-100394714D01*
X130020965Y-100563505D01*
X130168495Y-100711035D01*
X130337286Y-100833670D01*
X130386768Y-100858882D01*
X130523179Y-100928387D01*
X130523181Y-100928387D01*
X130523184Y-100928389D01*
X130629545Y-100962948D01*
X130721610Y-100992862D01*
X130927676Y-101025500D01*
X130927681Y-101025500D01*
X131136324Y-101025500D01*
X131342389Y-100992862D01*
X131540816Y-100928389D01*
X131726714Y-100833670D01*
X131895505Y-100711035D01*
X132043035Y-100563505D01*
X132165670Y-100394714D01*
X132260389Y-100208816D01*
X132324862Y-100010389D01*
X132346434Y-99874188D01*
X132357500Y-99804324D01*
X132357500Y-99595675D01*
X132324862Y-99389610D01*
X132260387Y-99191179D01*
X132165669Y-99005284D01*
X132152302Y-98986887D01*
X132128821Y-98921081D01*
X132144645Y-98853027D01*
X132194750Y-98804331D01*
X132252619Y-98790000D01*
X136450087Y-98790000D01*
X136517126Y-98809685D01*
X136562881Y-98862489D01*
X136572825Y-98931647D01*
X136550404Y-98986886D01*
X136508478Y-99044590D01*
X136419117Y-99219970D01*
X136358290Y-99407173D01*
X136327500Y-99601577D01*
X136327500Y-99798422D01*
X136358290Y-99992826D01*
X136419117Y-100180029D01*
X136508476Y-100355405D01*
X136624172Y-100514646D01*
X136763354Y-100653828D01*
X136922595Y-100769524D01*
X137005455Y-100811743D01*
X137097970Y-100858882D01*
X137097972Y-100858882D01*
X137097975Y-100858884D01*
X137198317Y-100891487D01*
X137285173Y-100919709D01*
X137479578Y-100950500D01*
X137479583Y-100950500D01*
X137676422Y-100950500D01*
X137870826Y-100919709D01*
X137937454Y-100898060D01*
X138058025Y-100858884D01*
X138233405Y-100769524D01*
X138392646Y-100653828D01*
X138531828Y-100514646D01*
X138531835Y-100514635D01*
X138534992Y-100510941D01*
X138536011Y-100511811D01*
X138586509Y-100472870D01*
X138656122Y-100466889D01*
X138717918Y-100499493D01*
X138727909Y-100511024D01*
X138728008Y-100510941D01*
X138731170Y-100514643D01*
X138731172Y-100514646D01*
X138870354Y-100653828D01*
X139029595Y-100769524D01*
X139112455Y-100811743D01*
X139204970Y-100858882D01*
X139204972Y-100858882D01*
X139204975Y-100858884D01*
X139305317Y-100891487D01*
X139392173Y-100919709D01*
X139586578Y-100950500D01*
X139586583Y-100950500D01*
X139783422Y-100950500D01*
X139977826Y-100919709D01*
X140044454Y-100898060D01*
X140165025Y-100858884D01*
X140340405Y-100769524D01*
X140499646Y-100653828D01*
X140638828Y-100514646D01*
X140638835Y-100514635D01*
X140641992Y-100510941D01*
X140643011Y-100511811D01*
X140693509Y-100472870D01*
X140763122Y-100466889D01*
X140824918Y-100499493D01*
X140834909Y-100511024D01*
X140835008Y-100510941D01*
X140838170Y-100514643D01*
X140838172Y-100514646D01*
X140977354Y-100653828D01*
X141136595Y-100769524D01*
X141219455Y-100811743D01*
X141311970Y-100858882D01*
X141311972Y-100858882D01*
X141311975Y-100858884D01*
X141412317Y-100891487D01*
X141499173Y-100919709D01*
X141693578Y-100950500D01*
X141693583Y-100950500D01*
X141890422Y-100950500D01*
X142084826Y-100919709D01*
X142151454Y-100898060D01*
X142272025Y-100858884D01*
X142447405Y-100769524D01*
X142606646Y-100653828D01*
X142745828Y-100514646D01*
X142861524Y-100355405D01*
X142950884Y-100180025D01*
X143011709Y-99992826D01*
X143012069Y-99990553D01*
X143042500Y-99798422D01*
X143042500Y-99601577D01*
X143011709Y-99407173D01*
X142950882Y-99219970D01*
X142861521Y-99044590D01*
X142819596Y-98986886D01*
X142796115Y-98921080D01*
X142811940Y-98853026D01*
X142862045Y-98804331D01*
X142919913Y-98790000D01*
X168136000Y-98790000D01*
X168203039Y-98809685D01*
X168248794Y-98862489D01*
X168260000Y-98914000D01*
X168260000Y-115898702D01*
X168240315Y-115965741D01*
X168187511Y-116011496D01*
X168118353Y-116021440D01*
X168054797Y-115992415D01*
X168018069Y-115937021D01*
X167998884Y-115877975D01*
X167998882Y-115877972D01*
X167998882Y-115877970D01*
X167909523Y-115702594D01*
X167793828Y-115543354D01*
X167654646Y-115404172D01*
X167495405Y-115288476D01*
X167320029Y-115199117D01*
X167132826Y-115138290D01*
X166938422Y-115107500D01*
X166938417Y-115107500D01*
X166741583Y-115107500D01*
X166741578Y-115107500D01*
X166547173Y-115138290D01*
X166359970Y-115199117D01*
X166184594Y-115288476D01*
X166093741Y-115354485D01*
X166025354Y-115404172D01*
X166025352Y-115404174D01*
X166025351Y-115404174D01*
X165886174Y-115543351D01*
X165886174Y-115543352D01*
X165886172Y-115543354D01*
X165836485Y-115611741D01*
X165770476Y-115702594D01*
X165681117Y-115877970D01*
X165620290Y-116065173D01*
X165589500Y-116259577D01*
X165589500Y-116456422D01*
X165620290Y-116650826D01*
X165681117Y-116838029D01*
X165755988Y-116984970D01*
X165770476Y-117013405D01*
X165886172Y-117172646D01*
X166025354Y-117311828D01*
X166184595Y-117427524D01*
X166267455Y-117469743D01*
X166359970Y-117516882D01*
X166359972Y-117516882D01*
X166359975Y-117516884D01*
X166460317Y-117549487D01*
X166547173Y-117577709D01*
X166741578Y-117608500D01*
X166741583Y-117608500D01*
X166938422Y-117608500D01*
X167132826Y-117577709D01*
X167320025Y-117516884D01*
X167495405Y-117427524D01*
X167654646Y-117311828D01*
X167793828Y-117172646D01*
X167909524Y-117013405D01*
X167998884Y-116838025D01*
X168018069Y-116778978D01*
X168057507Y-116721303D01*
X168121865Y-116694105D01*
X168190712Y-116706020D01*
X168242187Y-116753264D01*
X168260000Y-116817297D01*
X168260000Y-120576000D01*
X168240315Y-120643039D01*
X168187511Y-120688794D01*
X168136000Y-120700000D01*
X123474000Y-120700000D01*
X123406961Y-120680315D01*
X123361206Y-120627511D01*
X123350000Y-120576000D01*
X123350000Y-117390675D01*
X126724500Y-117390675D01*
X126724500Y-117599324D01*
X126757137Y-117805389D01*
X126821612Y-118003820D01*
X126910485Y-118178243D01*
X126916330Y-118189714D01*
X127038965Y-118358505D01*
X127186495Y-118506035D01*
X127355286Y-118628670D01*
X127443116Y-118673421D01*
X127541179Y-118723387D01*
X127541181Y-118723387D01*
X127541184Y-118723389D01*
X127647545Y-118757948D01*
X127739610Y-118787862D01*
X127945676Y-118820500D01*
X127945681Y-118820500D01*
X128154324Y-118820500D01*
X128360389Y-118787862D01*
X128558816Y-118723389D01*
X128744714Y-118628670D01*
X128913505Y-118506035D01*
X129061035Y-118358505D01*
X129183670Y-118189714D01*
X129189515Y-118178243D01*
X129237489Y-118127447D01*
X129305310Y-118110651D01*
X129371445Y-118133188D01*
X129410485Y-118178243D01*
X129416328Y-118189712D01*
X129481670Y-118279646D01*
X129538965Y-118358505D01*
X129686495Y-118506035D01*
X129855286Y-118628670D01*
X129943116Y-118673421D01*
X130041179Y-118723387D01*
X130041181Y-118723387D01*
X130041184Y-118723389D01*
X130147545Y-118757948D01*
X130239610Y-118787862D01*
X130445676Y-118820500D01*
X130445681Y-118820500D01*
X130654324Y-118820500D01*
X130860389Y-118787862D01*
X131058816Y-118723389D01*
X131244714Y-118628670D01*
X131413505Y-118506035D01*
X131561035Y-118358505D01*
X131683670Y-118189714D01*
X131689515Y-118178243D01*
X131737489Y-118127447D01*
X131805310Y-118110651D01*
X131871445Y-118133188D01*
X131910485Y-118178243D01*
X131916328Y-118189712D01*
X131981670Y-118279646D01*
X132038965Y-118358505D01*
X132186495Y-118506035D01*
X132355286Y-118628670D01*
X132443116Y-118673421D01*
X132541179Y-118723387D01*
X132541181Y-118723387D01*
X132541184Y-118723389D01*
X132647545Y-118757948D01*
X132739610Y-118787862D01*
X132945676Y-118820500D01*
X132945681Y-118820500D01*
X133154324Y-118820500D01*
X133360389Y-118787862D01*
X133558816Y-118723389D01*
X133744714Y-118628670D01*
X133913505Y-118506035D01*
X134061035Y-118358505D01*
X134183670Y-118189714D01*
X134189515Y-118178243D01*
X134237489Y-118127447D01*
X134305310Y-118110651D01*
X134371445Y-118133188D01*
X134410485Y-118178243D01*
X134416328Y-118189712D01*
X134481670Y-118279646D01*
X134538965Y-118358505D01*
X134686495Y-118506035D01*
X134855286Y-118628670D01*
X134943116Y-118673421D01*
X135041179Y-118723387D01*
X135041181Y-118723387D01*
X135041184Y-118723389D01*
X135147545Y-118757948D01*
X135239610Y-118787862D01*
X135445676Y-118820500D01*
X135445681Y-118820500D01*
X135654324Y-118820500D01*
X135860389Y-118787862D01*
X136058816Y-118723389D01*
X136244714Y-118628670D01*
X136413505Y-118506035D01*
X136561035Y-118358505D01*
X136683670Y-118189714D01*
X136778389Y-118003816D01*
X136842862Y-117805389D01*
X136850395Y-117757826D01*
X136875500Y-117599324D01*
X136875500Y-117390679D01*
X136873984Y-117381107D01*
X136873984Y-117381104D01*
X136871683Y-117366577D01*
X144909500Y-117366577D01*
X144909500Y-117563422D01*
X144940290Y-117757826D01*
X145001117Y-117945029D01*
X145031071Y-118003816D01*
X145090476Y-118120405D01*
X145206172Y-118279646D01*
X145345354Y-118418828D01*
X145504595Y-118534524D01*
X145587455Y-118576743D01*
X145679970Y-118623882D01*
X145679972Y-118623882D01*
X145679975Y-118623884D01*
X145780317Y-118656487D01*
X145867173Y-118684709D01*
X146061578Y-118715500D01*
X146061583Y-118715500D01*
X146258422Y-118715500D01*
X146452826Y-118684709D01*
X146640025Y-118623884D01*
X146815405Y-118534524D01*
X146974646Y-118418828D01*
X147113828Y-118279646D01*
X147229524Y-118120405D01*
X147299515Y-117983038D01*
X147347489Y-117932243D01*
X147415310Y-117915448D01*
X147481445Y-117937985D01*
X147520484Y-117983038D01*
X147590476Y-118120405D01*
X147706172Y-118279646D01*
X147845354Y-118418828D01*
X148004595Y-118534524D01*
X148087455Y-118576743D01*
X148179970Y-118623882D01*
X148179972Y-118623882D01*
X148179975Y-118623884D01*
X148280317Y-118656487D01*
X148367173Y-118684709D01*
X148561578Y-118715500D01*
X148561583Y-118715500D01*
X148758422Y-118715500D01*
X148952826Y-118684709D01*
X149140025Y-118623884D01*
X149315405Y-118534524D01*
X149474646Y-118418828D01*
X149613828Y-118279646D01*
X149729524Y-118120405D01*
X149799515Y-117983038D01*
X149847489Y-117932243D01*
X149915310Y-117915448D01*
X149981445Y-117937985D01*
X150020484Y-117983038D01*
X150090476Y-118120405D01*
X150206172Y-118279646D01*
X150345354Y-118418828D01*
X150504595Y-118534524D01*
X150587455Y-118576743D01*
X150679970Y-118623882D01*
X150679972Y-118623882D01*
X150679975Y-118623884D01*
X150780317Y-118656487D01*
X150867173Y-118684709D01*
X151061578Y-118715500D01*
X151061583Y-118715500D01*
X151258422Y-118715500D01*
X151452826Y-118684709D01*
X151640025Y-118623884D01*
X151815405Y-118534524D01*
X151974646Y-118418828D01*
X152113828Y-118279646D01*
X152229524Y-118120405D01*
X152318884Y-117945025D01*
X152379709Y-117757826D01*
X152403360Y-117608500D01*
X152410500Y-117563422D01*
X152410500Y-117366577D01*
X152379709Y-117172173D01*
X152328494Y-117014551D01*
X152318884Y-116984975D01*
X152318882Y-116984972D01*
X152318882Y-116984970D01*
X152256508Y-116862554D01*
X152229524Y-116809595D01*
X152113828Y-116650354D01*
X151974646Y-116511172D01*
X151815405Y-116395476D01*
X151755977Y-116365196D01*
X151640029Y-116306117D01*
X151496796Y-116259577D01*
X154589500Y-116259577D01*
X154589500Y-116456422D01*
X154620290Y-116650826D01*
X154681117Y-116838029D01*
X154755988Y-116984970D01*
X154770476Y-117013405D01*
X154886172Y-117172646D01*
X155025354Y-117311828D01*
X155184595Y-117427524D01*
X155267455Y-117469743D01*
X155359970Y-117516882D01*
X155359972Y-117516882D01*
X155359975Y-117516884D01*
X155460317Y-117549487D01*
X155547173Y-117577709D01*
X155741578Y-117608500D01*
X155741583Y-117608500D01*
X155938422Y-117608500D01*
X156132826Y-117577709D01*
X156320025Y-117516884D01*
X156495405Y-117427524D01*
X156654646Y-117311828D01*
X156793828Y-117172646D01*
X156909524Y-117013405D01*
X156998884Y-116838025D01*
X157059709Y-116650826D01*
X157062771Y-116631493D01*
X157090500Y-116456422D01*
X157090500Y-116259577D01*
X157059709Y-116065173D01*
X157018069Y-115937021D01*
X156998884Y-115877975D01*
X156998882Y-115877972D01*
X156998882Y-115877970D01*
X156909523Y-115702594D01*
X156793828Y-115543354D01*
X156654646Y-115404172D01*
X156495405Y-115288476D01*
X156320029Y-115199117D01*
X156132826Y-115138290D01*
X155938422Y-115107500D01*
X155938417Y-115107500D01*
X155741583Y-115107500D01*
X155741578Y-115107500D01*
X155547173Y-115138290D01*
X155359970Y-115199117D01*
X155184594Y-115288476D01*
X155093741Y-115354485D01*
X155025354Y-115404172D01*
X155025352Y-115404174D01*
X155025351Y-115404174D01*
X154886174Y-115543351D01*
X154886174Y-115543352D01*
X154886172Y-115543354D01*
X154836485Y-115611741D01*
X154770476Y-115702594D01*
X154681117Y-115877970D01*
X154620290Y-116065173D01*
X154589500Y-116259577D01*
X151496796Y-116259577D01*
X151452826Y-116245290D01*
X151258422Y-116214500D01*
X151258417Y-116214500D01*
X151061583Y-116214500D01*
X151061578Y-116214500D01*
X150867173Y-116245290D01*
X150679970Y-116306117D01*
X150504594Y-116395476D01*
X150420717Y-116456417D01*
X150345354Y-116511172D01*
X150345352Y-116511174D01*
X150345351Y-116511174D01*
X150206174Y-116650351D01*
X150206174Y-116650352D01*
X150206172Y-116650354D01*
X150174385Y-116694105D01*
X150090476Y-116809594D01*
X150020485Y-116946960D01*
X149972510Y-116997756D01*
X149904689Y-117014551D01*
X149838554Y-116992014D01*
X149799515Y-116946960D01*
X149756508Y-116862554D01*
X149729524Y-116809595D01*
X149613828Y-116650354D01*
X149474646Y-116511172D01*
X149315405Y-116395476D01*
X149255977Y-116365196D01*
X149140029Y-116306117D01*
X148952826Y-116245290D01*
X148758422Y-116214500D01*
X148758417Y-116214500D01*
X148561583Y-116214500D01*
X148561578Y-116214500D01*
X148367173Y-116245290D01*
X148179970Y-116306117D01*
X148004594Y-116395476D01*
X147920717Y-116456417D01*
X147845354Y-116511172D01*
X147845352Y-116511174D01*
X147845351Y-116511174D01*
X147706174Y-116650351D01*
X147706174Y-116650352D01*
X147706172Y-116650354D01*
X147674385Y-116694105D01*
X147590476Y-116809594D01*
X147520485Y-116946960D01*
X147472510Y-116997756D01*
X147404689Y-117014551D01*
X147338554Y-116992014D01*
X147299515Y-116946960D01*
X147256508Y-116862554D01*
X147229524Y-116809595D01*
X147113828Y-116650354D01*
X146974646Y-116511172D01*
X146815405Y-116395476D01*
X146755977Y-116365196D01*
X146640029Y-116306117D01*
X146452826Y-116245290D01*
X146258422Y-116214500D01*
X146258417Y-116214500D01*
X146061583Y-116214500D01*
X146061578Y-116214500D01*
X145867173Y-116245290D01*
X145679970Y-116306117D01*
X145504594Y-116395476D01*
X145420717Y-116456417D01*
X145345354Y-116511172D01*
X145345352Y-116511174D01*
X145345351Y-116511174D01*
X145206174Y-116650351D01*
X145206174Y-116650352D01*
X145206172Y-116650354D01*
X145174385Y-116694105D01*
X145090476Y-116809594D01*
X145001117Y-116984970D01*
X144940290Y-117172173D01*
X144909500Y-117366577D01*
X136871683Y-117366577D01*
X136842862Y-117184610D01*
X136787606Y-117014551D01*
X136778389Y-116986184D01*
X136778387Y-116986181D01*
X136778387Y-116986179D01*
X136692337Y-116817297D01*
X136683670Y-116800286D01*
X136561035Y-116631495D01*
X136413505Y-116483965D01*
X136244714Y-116361330D01*
X136058820Y-116266612D01*
X135860389Y-116202137D01*
X135654324Y-116169500D01*
X135654319Y-116169500D01*
X135445681Y-116169500D01*
X135445676Y-116169500D01*
X135239610Y-116202137D01*
X135041179Y-116266612D01*
X134855285Y-116361330D01*
X134686493Y-116483966D01*
X134538966Y-116631493D01*
X134416330Y-116800286D01*
X134410484Y-116811759D01*
X134362508Y-116862554D01*
X134294687Y-116879348D01*
X134228553Y-116856809D01*
X134189516Y-116811759D01*
X134188303Y-116809380D01*
X134183670Y-116800286D01*
X134061035Y-116631495D01*
X133913505Y-116483965D01*
X133744714Y-116361330D01*
X133558820Y-116266612D01*
X133360389Y-116202137D01*
X133154324Y-116169500D01*
X133154319Y-116169500D01*
X132945681Y-116169500D01*
X132945676Y-116169500D01*
X132739610Y-116202137D01*
X132541179Y-116266612D01*
X132355285Y-116361330D01*
X132186493Y-116483966D01*
X132038966Y-116631493D01*
X131916330Y-116800286D01*
X131910484Y-116811759D01*
X131862508Y-116862554D01*
X131794687Y-116879348D01*
X131728553Y-116856809D01*
X131689516Y-116811759D01*
X131688303Y-116809380D01*
X131683670Y-116800286D01*
X131561035Y-116631495D01*
X131413505Y-116483965D01*
X131244714Y-116361330D01*
X131058820Y-116266612D01*
X130860389Y-116202137D01*
X130654324Y-116169500D01*
X130654319Y-116169500D01*
X130445681Y-116169500D01*
X130445676Y-116169500D01*
X130239610Y-116202137D01*
X130041179Y-116266612D01*
X129855285Y-116361330D01*
X129686493Y-116483966D01*
X129538966Y-116631493D01*
X129416330Y-116800286D01*
X129410484Y-116811759D01*
X129362508Y-116862554D01*
X129294687Y-116879348D01*
X129228553Y-116856809D01*
X129189516Y-116811759D01*
X129188303Y-116809380D01*
X129183670Y-116800286D01*
X129061035Y-116631495D01*
X128913505Y-116483965D01*
X128744714Y-116361330D01*
X128558820Y-116266612D01*
X128360389Y-116202137D01*
X128154324Y-116169500D01*
X128154319Y-116169500D01*
X127945681Y-116169500D01*
X127945676Y-116169500D01*
X127739610Y-116202137D01*
X127541179Y-116266612D01*
X127355285Y-116361330D01*
X127186493Y-116483966D01*
X127038966Y-116631493D01*
X126916330Y-116800285D01*
X126821612Y-116986179D01*
X126757137Y-117184610D01*
X126724500Y-117390675D01*
X123350000Y-117390675D01*
X123350000Y-109332838D01*
X123369685Y-109265799D01*
X123422489Y-109220044D01*
X123491647Y-109210100D01*
X123546884Y-109232520D01*
X123588334Y-109262635D01*
X123617284Y-109283669D01*
X123803179Y-109378387D01*
X123803181Y-109378387D01*
X123803184Y-109378389D01*
X123909545Y-109412948D01*
X124001610Y-109442862D01*
X124207676Y-109475500D01*
X124207681Y-109475500D01*
X124416324Y-109475500D01*
X124622389Y-109442862D01*
X124820816Y-109378389D01*
X125006714Y-109283670D01*
X125175505Y-109161035D01*
X125323035Y-109013505D01*
X125445670Y-108844714D01*
X125540389Y-108658816D01*
X125604862Y-108460389D01*
X125637500Y-108254324D01*
X125637500Y-108045675D01*
X125604862Y-107839610D01*
X125558121Y-107695757D01*
X125540389Y-107641184D01*
X125540387Y-107641181D01*
X125540387Y-107641179D01*
X125445669Y-107455285D01*
X125323035Y-107286495D01*
X125175505Y-107138965D01*
X125109501Y-107091010D01*
X125066838Y-107035682D01*
X125060859Y-106966068D01*
X125093465Y-106904273D01*
X125109496Y-106890382D01*
X125175505Y-106842424D01*
X125323035Y-106694894D01*
X125445670Y-106526103D01*
X125540389Y-106340205D01*
X125572417Y-106241634D01*
X162064500Y-106241634D01*
X162064500Y-106474365D01*
X162064501Y-106474382D01*
X162094878Y-106705122D01*
X162155120Y-106929947D01*
X162244180Y-107144960D01*
X162244188Y-107144976D01*
X162360553Y-107346524D01*
X162360564Y-107346540D01*
X162502242Y-107531179D01*
X162502248Y-107531186D01*
X162666813Y-107695751D01*
X162666819Y-107695756D01*
X162851468Y-107837442D01*
X162851475Y-107837446D01*
X163053023Y-107953811D01*
X163053039Y-107953819D01*
X163268052Y-108042879D01*
X163268054Y-108042879D01*
X163268060Y-108042882D01*
X163492874Y-108103121D01*
X163723628Y-108133500D01*
X163723635Y-108133500D01*
X163956365Y-108133500D01*
X163956372Y-108133500D01*
X164187126Y-108103121D01*
X164411940Y-108042882D01*
X164469953Y-108018852D01*
X164626960Y-107953819D01*
X164626963Y-107953817D01*
X164626969Y-107953815D01*
X164828532Y-107837442D01*
X165013181Y-107695756D01*
X165177756Y-107531181D01*
X165319442Y-107346532D01*
X165435815Y-107144969D01*
X165458165Y-107091012D01*
X165524879Y-106929947D01*
X165524878Y-106929947D01*
X165524882Y-106929940D01*
X165585121Y-106705126D01*
X165615500Y-106474372D01*
X165615500Y-106241628D01*
X165585121Y-106010874D01*
X165524882Y-105786060D01*
X165500448Y-105727070D01*
X165435819Y-105571039D01*
X165435811Y-105571023D01*
X165319446Y-105369475D01*
X165319442Y-105369468D01*
X165177756Y-105184819D01*
X165177751Y-105184813D01*
X165013186Y-105020248D01*
X165013179Y-105020242D01*
X164828540Y-104878564D01*
X164828538Y-104878562D01*
X164828532Y-104878558D01*
X164828527Y-104878555D01*
X164828524Y-104878553D01*
X164626976Y-104762188D01*
X164626960Y-104762180D01*
X164411947Y-104673120D01*
X164312406Y-104646448D01*
X164187126Y-104612879D01*
X164187125Y-104612878D01*
X164187122Y-104612878D01*
X163956382Y-104582501D01*
X163956377Y-104582500D01*
X163956372Y-104582500D01*
X163723628Y-104582500D01*
X163723622Y-104582500D01*
X163723617Y-104582501D01*
X163492877Y-104612878D01*
X163268052Y-104673120D01*
X163053039Y-104762180D01*
X163053023Y-104762188D01*
X162851475Y-104878553D01*
X162851459Y-104878564D01*
X162666820Y-105020242D01*
X162666813Y-105020248D01*
X162502248Y-105184813D01*
X162502242Y-105184820D01*
X162360564Y-105369459D01*
X162360553Y-105369475D01*
X162244188Y-105571023D01*
X162244180Y-105571039D01*
X162155120Y-105786052D01*
X162094878Y-106010877D01*
X162064501Y-106241617D01*
X162064500Y-106241634D01*
X125572417Y-106241634D01*
X125604862Y-106141778D01*
X125625595Y-106010874D01*
X125637500Y-105935713D01*
X125637500Y-105727064D01*
X125604862Y-105520999D01*
X125540387Y-105322568D01*
X125445669Y-105136674D01*
X125361077Y-105020244D01*
X125323035Y-104967884D01*
X125175505Y-104820354D01*
X125109501Y-104772399D01*
X125066838Y-104717071D01*
X125060859Y-104647457D01*
X125093465Y-104585662D01*
X125109496Y-104571771D01*
X125175505Y-104523813D01*
X125323035Y-104376283D01*
X125445670Y-104207492D01*
X125540389Y-104021594D01*
X125604862Y-103823167D01*
X125637500Y-103617102D01*
X125637500Y-103408453D01*
X125604862Y-103202388D01*
X125574948Y-103110323D01*
X125540389Y-103003962D01*
X125540387Y-103003959D01*
X125540387Y-103003957D01*
X125445669Y-102818063D01*
X125438181Y-102807757D01*
X125323035Y-102649273D01*
X125175505Y-102501743D01*
X125006714Y-102379108D01*
X124820820Y-102284390D01*
X124622389Y-102219915D01*
X124416324Y-102187278D01*
X124416319Y-102187278D01*
X124207681Y-102187278D01*
X124207676Y-102187278D01*
X124001610Y-102219915D01*
X123803179Y-102284390D01*
X123617285Y-102379108D01*
X123546886Y-102430257D01*
X123481079Y-102453737D01*
X123413025Y-102437912D01*
X123364331Y-102387806D01*
X123350000Y-102329939D01*
X123350000Y-101353634D01*
X161716500Y-101353634D01*
X161716500Y-101586365D01*
X161716501Y-101586382D01*
X161746878Y-101817122D01*
X161807120Y-102041947D01*
X161896180Y-102256960D01*
X161896188Y-102256976D01*
X162012553Y-102458524D01*
X162012564Y-102458540D01*
X162154242Y-102643179D01*
X162154248Y-102643186D01*
X162318813Y-102807751D01*
X162318820Y-102807757D01*
X162450303Y-102908647D01*
X162503468Y-102949442D01*
X162503475Y-102949446D01*
X162705023Y-103065811D01*
X162705039Y-103065819D01*
X162920052Y-103154879D01*
X162920054Y-103154879D01*
X162920060Y-103154882D01*
X163144874Y-103215121D01*
X163375628Y-103245500D01*
X163375635Y-103245500D01*
X163608365Y-103245500D01*
X163608372Y-103245500D01*
X163839126Y-103215121D01*
X164063940Y-103154882D01*
X164121953Y-103130852D01*
X164278960Y-103065819D01*
X164278963Y-103065817D01*
X164278969Y-103065815D01*
X164480532Y-102949442D01*
X164665181Y-102807756D01*
X164829756Y-102643181D01*
X164971442Y-102458532D01*
X165087815Y-102256969D01*
X165176882Y-102041940D01*
X165237121Y-101817126D01*
X165267500Y-101586372D01*
X165267500Y-101353628D01*
X165237121Y-101122874D01*
X165176882Y-100898060D01*
X165150211Y-100833669D01*
X165087819Y-100683039D01*
X165087811Y-100683023D01*
X164971446Y-100481475D01*
X164971442Y-100481468D01*
X164829756Y-100296819D01*
X164829751Y-100296813D01*
X164665186Y-100132248D01*
X164665179Y-100132242D01*
X164480540Y-99990564D01*
X164480538Y-99990562D01*
X164480532Y-99990558D01*
X164480527Y-99990555D01*
X164480524Y-99990553D01*
X164278976Y-99874188D01*
X164278960Y-99874180D01*
X164063947Y-99785120D01*
X163839122Y-99724878D01*
X163608382Y-99694501D01*
X163608377Y-99694500D01*
X163608372Y-99694500D01*
X163375628Y-99694500D01*
X163375622Y-99694500D01*
X163375617Y-99694501D01*
X163144877Y-99724878D01*
X162920052Y-99785120D01*
X162705039Y-99874180D01*
X162705023Y-99874188D01*
X162503475Y-99990553D01*
X162503459Y-99990564D01*
X162318820Y-100132242D01*
X162318813Y-100132248D01*
X162154248Y-100296813D01*
X162154242Y-100296820D01*
X162012564Y-100481459D01*
X162012553Y-100481475D01*
X161896188Y-100683023D01*
X161896180Y-100683039D01*
X161807120Y-100898052D01*
X161746878Y-101122877D01*
X161716501Y-101353617D01*
X161716500Y-101353634D01*
X123350000Y-101353634D01*
X123350000Y-98914000D01*
X123369685Y-98846961D01*
X123422489Y-98801206D01*
X123474000Y-98790000D01*
X129811381Y-98790000D01*
X129878420Y-98809685D01*
G37*
%TD.AperFunction*%
%TD*%
M02*
